<svg xmlns="http://www.w3.org/2000/svg" viewBox="0 0 1154.93 633.23"><defs><style>.cls-1{fill:#533d83;}.cls-16,.cls-2{fill:#332275;}.cls-2{opacity:0.7;}.cls-3{fill:#8e7fae;}.cls-4{fill:#432e7b;}.cls-5{fill:#00ece2;}.cls-6{font-size:30px;font-family:MuseoSansRounded-500, Museo Sans Rounded;font-weight:500;}.cls-18,.cls-6{fill:#fff;}.cls-7{letter-spacing:-0.01em;}.cls-8{letter-spacing:0em;}.cls-9{letter-spacing:0em;}.cls-10{letter-spacing:-0.01em;}.cls-11{letter-spacing:0em;}.cls-12{letter-spacing:0em;}.cls-13{letter-spacing:-0.01em;}.cls-14{letter-spacing:-0.01em;}.cls-15{letter-spacing:0em;}.cls-17{fill:#d555f6;}.cls-18{font-size:15px;font-family:MuseoSansRounded-300, Museo Sans Rounded;font-weight:300;}.cls-19{letter-spacing:0em;}.cls-20{letter-spacing:0em;}.cls-21{letter-spacing:-0.02em;}.cls-22{letter-spacing:-0.01em;}.cls-23{letter-spacing:-0.01em;}.cls-24{letter-spacing:0em;}.cls-25{letter-spacing:0em;}.cls-26{letter-spacing:-0.01em;}.cls-27{letter-spacing:-0.01em;}.cls-28{letter-spacing:-0.01em;}.cls-29{letter-spacing:0em;}.cls-30{letter-spacing:-0.01em;}.cls-31{letter-spacing:-0.01em;}.cls-32{letter-spacing:-0.01em;}.cls-33{letter-spacing:-0.08em;}.cls-34{letter-spacing:-0.01em;}</style></defs><title>Prizes_1</title><g id="Layer_2" data-name="Layer 2"><g id="Layer_1-2" data-name="Layer 1"><path class="cls-1" d="M414.27,466.09q.08,28.68.13,57.37,0,38.91,0,77.83H82.57c-6.13,0-6.15,0-6.16-6q0-24,0-48c0-24.94,0-49.89.08-74.84a36.23,36.23,0,0,1,1.06-6.2c.83,0,1.66.06,2.49.06H409.78C411.28,466.29,412.78,466.16,414.27,466.09Z"/><path class="cls-1" d="M752.4,601.29q.06-50.6.13-101.18c2.33,0,4.66.11,7,.11h317.17c4.16,0,8.32,0,12.49-.07.41,1.89,1.16,3.77,1.17,5.66.11,14.83.08,29.65.09,44.47q0,22.5,0,45c0,6,0,6-6.16,6Z"/><path class="cls-2" d="M752.4,601.29h331.84c6.13,0,6.15,0,6.16-6q0-22.49,0-45c8.5,1.47,17.09,2.61,25.5,4.49a221.13,221.13,0,0,1,22.53,6.51,35,35,0,0,1,10.54,5.56c7.8,6.27,8,15.09-.2,20.93a58.19,58.19,0,0,1-18,8.27c-12.17,3.32-24.55,6-37,8.16-16.35,2.81-32.81,5-49.27,7.12-15.3,1.94-30.66,3.49-46,5-11.38,1.14-22.79,2-34.2,3q-20.1,1.61-40.21,3-15.64,1.09-31.3,2-19.65,1.1-39.3,2c-14.6.7-29.2,1.43-43.8,2q-30.4,1.14-60.8,2c-13.3.4-26.6.76-39.9,1q-36.69.62-73.39,1c-35.63.39-71.26.88-106.89.94-24,0-47.92-.55-71.89-1-14.46-.24-28.93-.62-43.39-1q-16.45-.42-32.9-1-25.9-.93-51.8-2c-13.61-.59-27.21-1.28-40.8-2-11.94-.63-23.88-1.27-35.81-2-14.57-.92-29.15-1.84-43.7-3-13.72-1.11-27.41-2.59-41.12-3.85-11.73-1.08-23.49-1.81-35.19-3.19-17-2-33.93-4.15-50.81-6.76-15.43-2.38-30.81-5.19-46.1-8.32-9.94-2-19.79-4.73-28.38-10.56-9-6.11-9.28-16.86.11-22.38a78.41,78.41,0,0,1,20.16-8.39c13.36-3.4,27-5.72,40.5-8.51,2.93-.6,5.83-1.33,8.75-2q0,24,0,48c0,6,0,6,6.16,6H752.4Z"/><path class="cls-3" d="M1089.18,500.15c-4.17,0-8.33.07-12.49.07H759.52c-2.33,0-4.66-.07-7-.11q0-16.86,0-33.72c2,0,4-.09,6-.09q120.71,0,241.43.1a33.88,33.88,0,0,1,12.06,2.32c24,9.38,48,19,71.93,28.64A52.73,52.73,0,0,1,1089.18,500.15Z"/><path class="cls-3" d="M414.27,466.09c-1.49.07-3,.2-4.49.2H80c-.83,0-1.66,0-2.49-.06,7.16-3.06,14.27-6.26,21.5-9.17q29.42-11.88,58.92-23.51a16.08,16.08,0,0,1,5.78-1.21q124-.08,248,0c.83,0,1.66.1,2.49.16Q414.22,449.28,414.27,466.09Z"/><path class="cls-3" d="M751.22,373.16c-1.83,0-3.66.14-5.49.14H421c-1.83,0-3.66-.06-5.49-.1,7.16-3.05,14.28-6.22,21.51-9.13q29.15-11.76,58.4-23.27a20.16,20.16,0,0,1,7.23-1.4q80.4-.12,160.79,0a20,20,0,0,1,7.28,1.28Q709.95,356.23,749,372A21.71,21.71,0,0,1,751.22,373.16Z"/><path class="cls-4" d="M414.16,432.48c.07-17.72.11-35.43.26-53.14a35.74,35.74,0,0,1,1.12-6.14c1.83,0,3.66.1,5.49.1h324.7c1.83,0,3.66-.1,5.49-.14.39,2,1.13,4.09,1.14,6.13q.17,43.56.16,87.1,0,16.86,0,33.72-.07,50.58-.13,101.18h-338q0-38.91,0-77.83,0-28.68-.13-57.37Q414.21,449.28,414.16,432.48ZM600.63,536.4q-4.49-8.62-9-17.25c-1.64-3.15-1.67-6,1.58-8.17a32.07,32.07,0,0,1,4.12-2.13c1.17-.54,3-.66,3.47-1.53,1.56-3.12,7.42-3.36,5.79-8.58-.06-.2.72-.61,1-1,2-2.44,3.83-4.93,5.84-7.32.92-1.08,1.92-2.46,3.15-2.84,8.79-2.67,14.21-8.92,18.21-16.72,4.23-8.26,6.3-17.16,7.46-26.28.68-5.34.87-10.75,1.28-16.13H528.53c-1.07,13.66,2.72,33.31,9.32,44.24a36.66,36.66,0,0,0,10.6,11.61c4.91,3.23,10.48,5.21,13,11.21.58,1.37,2.41,2.21,3.72,3.33-.1,3.43,3.74,9.36,7.56,9.6,4.71.3,6,4,9.23,6.53-3.1,6.26-6.15,12.34-9.11,18.46a5.48,5.48,0,0,1-5.92,3.46,87.42,87.42,0,0,0-10.49,0c-3.7.22-5.82,2.42-5.77,5.57s2.22,5.18,5.9,5.51c.83.08,1.66,0,2.5,0l26.49,0c9.92.09,19.85.26,29.78.18,1.46,0,3.55-.85,4.2-2a9.27,9.27,0,0,0,1.15-5.9c-.51-2.72-3-3.87-5.68-3.93C610.23,536.29,605.43,536.39,600.63,536.4Z"/><path class="cls-5" d="M528.53,428.47c-1.07,13.66,2.72,33.31,9.32,44.24a36.66,36.66,0,0,0,10.6,11.61c4.91,3.23,10.48,5.21,13,11.21.58,1.37,2.41,2.21,3.72,3.33-.1,3.43,3.74,9.36,7.56,9.6,4.71.3,6,4,9.23,6.53-3.1,6.26-6.15,12.34-9.11,18.46a5.48,5.48,0,0,1-5.92,3.46,87.42,87.42,0,0,0-10.49,0c-3.7.22-5.82,2.42-5.77,5.57s2.22,5.18,5.9,5.51c.83.08,1.66,0,2.5,0l26.49,0c9.92.09,19.85.26,29.78.18,1.46,0,3.55-.85,4.2-2a9.27,9.27,0,0,0,1.15-5.9c-.51-2.72-3-3.87-5.68-3.93-4.8-.11-9.6,0-14.41,0l-8.94-17.25c-1.64-3.15-1.67-6,1.58-8.17a32.07,32.07,0,0,1,4.12-2.13c1.17-.54,3-.66,3.47-1.53,1.56-3.12,7.42-3.36,5.79-8.58-.06-.2.72-.61,1-1,2-2.44,3.83-4.93,5.84-7.32.92-1.08,1.92-2.46,3.15-2.84,8.79-2.67,14.21-8.92,18.21-16.72,4.23-8.26,6.3-17.16,7.46-26.28.68-5.34.87-10.75,1.28-16.13Zm15.89,41.68c-6.11-10.64-8-22.4-9.1-35h14.56c1.25,14.76,2.5,29.38,3.75,44.11C549.34,477.59,546.65,474,544.42,470.15ZM618.07,479c1.16-14.43,2.33-28.93,3.53-43.85H636C636.09,453.39,628,476.65,618.07,479Z"/><path class="cls-4" d="M535.32,435.1h14.56c1.25,14.76,2.5,29.38,3.75,44.11-4.29-1.62-7-5.17-9.21-9.06C538.31,459.51,536.45,447.75,535.32,435.1Z"/><path class="cls-4" d="M636,435.17c.13,18.22-8,41.48-17.89,43.85,1.16-14.43,2.33-28.93,3.53-43.85Z"/><text class="cls-6" transform="translate(516.79 583.19)"><tspan class="cls-7">J</tspan><tspan x="15.36" y="0">ury </tspan><tspan class="cls-8" x="66.21" y="0">P</tspan><tspan class="cls-9" x="83.94" y="0">ri</tspan><tspan class="cls-10" x="101.73" y="0">z</tspan><tspan x="116.46" y="0">e</tspan></text><text class="cls-6" transform="translate(145.54 583.19)"><tspan class="cls-11">A</tspan><tspan x="18.51" y="0">udien</tspan><tspan class="cls-12" x="95.07" y="0">c</tspan><tspan x="110.85" y="0">e </tspan><tspan class="cls-12" x="134.7" y="0">P</tspan><tspan x="152.43" y="0">ri</tspan><tspan class="cls-13" x="170.22" y="0">z</tspan><tspan class="cls-9" x="184.95" y="0">e</tspan></text><text class="cls-6" transform="translate(792.94 583.19)">Challenge <tspan class="cls-14" x="145.68" y="0">W</tspan><tspan x="173.82" y="0">inne</tspan><tspan class="cls-15" x="232.74" y="0">r</tspan><tspan x="243.33" y="0">s</tspan></text></g><g id="Layer_3" data-name="Layer 3"><g id="_2nd" data-name="2nd"><polygon class="cls-16" points="301.72 380.02 250.61 338.05 199.51 380.02 199.51 234.54 301.72 234.54 301.72 380.02"/><polygon class="cls-16" points="301.72 453.02 250.61 411.05 199.51 453.02 199.51 307.54 301.72 307.54 301.72 453.02"/><polygon class="cls-16" points="301.72 291.02 250.61 249.05 199.51 291.02 199.51 145.54 301.72 145.54 301.72 291.02"/><path class="cls-17" d="M250.61,0a83.65,83.65,0,1,0,83.65,83.65A83.65,83.65,0,0,0,250.61,0Zm.3,143.3a59.5,59.5,0,1,1,59.5-59.5A59.5,59.5,0,0,1,250.91,143.3Z"/><polygon class="cls-17" points="263.23 66.25 250.61 27.33 238 66.25 196.9 66.25 230.17 90.39 217.34 129.54 250.61 105.4 283.89 129.54 271.06 90.39 304.33 66.25 263.23 66.25"/><path class="cls-17" d="M250.91,10.3a73.5,73.5,0,1,0,73.5,73.5A73.5,73.5,0,0,0,250.91,10.3Zm-.3,133.37a60,60,0,1,1,60-60A60,60,0,0,1,250.61,143.67Z"/></g><g id="_1st" data-name="1st"><polygon class="cls-16" points="636.72 380.02 585.61 338.05 534.51 380.02 534.51 234.54 636.72 234.54 636.72 380.02"/><polygon class="cls-16" points="636.72 418.02 585.61 376.05 534.51 418.02 534.51 272.54 636.72 272.54 636.72 418.02"/><polygon class="cls-16" points="636.72 291.02 585.61 249.05 534.51 291.02 534.51 145.54 636.72 145.54 636.72 291.02"/><path class="cls-17" d="M585.61,0a83.65,83.65,0,1,0,83.65,83.65A83.65,83.65,0,0,0,585.61,0Zm.3,143.3a59.5,59.5,0,1,1,59.5-59.5A59.5,59.5,0,0,1,585.91,143.3Z"/><polygon class="cls-17" points="598.23 66.25 585.61 27.33 573 66.25 531.9 66.25 565.17 90.39 552.34 129.54 585.61 105.4 618.89 129.54 606.05 90.39 639.33 66.25 598.23 66.25"/><path class="cls-17" d="M582.91,10.3a73.5,73.5,0,1,0,73.5,73.5A73.5,73.5,0,0,0,582.91,10.3Zm2.7,133.37a60,60,0,1,1,60-60A60,60,0,0,1,585.61,143.67Z"/></g><g id="_3rd" data-name="3rd"><polygon class="cls-16" points="971.72 380.02 920.61 338.05 869.51 380.02 869.51 234.54 971.72 234.54 971.72 380.02"/><polygon class="cls-16" points="971.72 291.02 920.61 249.05 869.51 291.02 869.51 145.54 971.72 145.54 971.72 291.02"/><polygon class="cls-16" points="971.72 483.02 920.61 441.05 869.51 483.02 869.51 337.54 971.72 337.54 971.72 483.02"/><path class="cls-17" d="M920.61,0a83.65,83.65,0,1,0,83.65,83.65A83.65,83.65,0,0,0,920.61,0Zm.3,143.3a59.5,59.5,0,1,1,59.5-59.5A59.5,59.5,0,0,1,920.91,143.3Z"/><polygon class="cls-17" points="933.23 66.25 920.61 27.33 908 66.25 866.9 66.25 900.17 90.39 887.34 129.54 920.61 105.4 953.89 129.54 941.05 90.39 974.33 66.25 933.23 66.25"/><path class="cls-17" d="M920.91,10.3a73.5,73.5,0,1,0,73.5,73.5A73.5,73.5,0,0,0,920.91,10.3Zm-.3,133.37a60,60,0,1,1,60-60A60,60,0,0,1,920.61,143.67Z"/></g><text class="cls-18" transform="translate(939.63 183.43) rotate(90)"><tspan class="cls-19">R</tspan><tspan x="9.08" y="0">aspberry </tspan><tspan class="cls-20" x="70" y="0">P</tspan><tspan x="78.78" y="0">i /</tspan><tspan x="0" y="20">Google Ch</tspan><tspan class="cls-21" x="73.27" y="20">r</tspan><tspan x="78.06" y="20">omecast</tspan><tspan x="0" y="50">(1 per pe</tspan><tspan class="cls-15" x="57" y="50">r</tspan><tspan x="62.02" y="50">son)</tspan></text><text class="cls-18" transform="translate(256.04 183.87) rotate(90)"><tspan class="cls-22">W</tspan><tspan x="13.84" y="0">ildca</tspan><tspan class="cls-23" x="45.17" y="0">r</tspan><tspan x="50.02" y="0">d i</tspan><tspan class="cls-24" x="65.83" y="0">n</tspan><tspan class="cls-19" x="74.52" y="0">t</tspan><tspan class="cls-25" x="79.26" y="0">erview with C</tspan><tspan class="cls-26" x="170.11" y="0">E</tspan><tspan x="178.23" y="0">O</tspan><tspan x="0" y="20">€100 </tspan><tspan class="cls-27" x="37.98" y="20">C</tspan><tspan x="48.51" y="20">oolblue Gif</tspan><tspan class="cls-28" x="122.74" y="20">t</tspan><tspan class="cls-29" x="127.47" y="20">ca</tspan><tspan class="cls-30" x="143.07" y="20">r</tspan><tspan x="147.93" y="20">d</tspan></text><text class="cls-18" transform="translate(604.6 183.05) rotate(90)"><tspan class="cls-31">I</tspan><tspan x="3.87" y="0">ncub</tspan><tspan class="cls-32" x="38.02" y="0">a</tspan><tspan x="45.55" y="0">tion p</tspan><tspan class="cls-21" x="84.15" y="0">r</tspan><tspan x="88.93" y="0">og</tspan><tspan class="cls-28" x="106.77" y="0">r</tspan><tspan x="111.76" y="0">am 3 mo</tspan><tspan class="cls-24" x="171.57" y="0">n</tspan><tspan x="180.25" y="0">ths </tspan><tspan class="cls-32" x="0" y="20">a</tspan><tspan x="7.53" y="20">t </tspan><tspan class="cls-33" x="16.08" y="20">T</tspan><tspan class="cls-29" x="23.61" y="20">obania (value €3.50</tspan><tspan class="cls-34" x="153.67" y="20">0</tspan><tspan x="162.81" y="20">)</tspan><tspan x="0" y="50">€1.500 cash</tspan></text><text class="cls-18" transform="translate(876.12 396.09)">6 best <tspan class="cls-19" x="44.41" y="0">t</tspan><tspan x="49.15" y="0">eams,</tspan><tspan x="4.76" y="20">1 f</tspan><tspan class="cls-21" x="19.79" y="20">r</tspan><tspan class="cls-29" x="24.58" y="20">om each</tspan><tspan x="22.48" y="40">theme</tspan></text></g></g></svg>