<svg xmlns="http://www.w3.org/2000/svg" viewBox="0 0 301.48 70.89"><defs><style>.cls-1{fill:#fff;}</style></defs><title>Advelox</title><g id="Layer_2" data-name="Layer 2"><g id="Layer_1-2" data-name="Layer 1"><path class="cls-1" d="M0,10.42a11.4,11.4,0,0,1,.76-3A13.09,13.09,0,0,1,6.28,1.13,8.5,8.5,0,0,1,10.57,0H61a8.39,8.39,0,0,1,6.4,2.93c.51.55,1.1,1,1.57,1.6a9.42,9.42,0,0,1,2.39,6.14c0,8.09,0,16.18-.06,24.27q0,12.39,0,24.76a9.29,9.29,0,0,1-1.87,5.81c-1.78,2.35-3.82,4.43-6.83,5.07a20.34,20.34,0,0,1-4.06.28c-11.12,0-22.23,0-33.35,0-5.22,0-10.45.08-15.67,0a7.33,7.33,0,0,1-3.22-1.2A12,12,0,0,1,.91,63.51,7.5,7.5,0,0,1,0,60.7Zm43.85,42.4a3.71,3.71,0,0,1-1.29.4c-3.23-.29-6.47.22-9.71-.27A18.1,18.1,0,0,1,23.77,49a29.21,29.21,0,0,1-2.42-2.43,15.92,15.92,0,0,1-4.24-9.5,17.13,17.13,0,0,1,4.23-13.54c4.12-4.66,9.18-6.89,15.44-6.3a16.7,16.7,0,0,1,9.43,3.92A17.67,17.67,0,0,1,53,35.76c0,2,0,4,0,6s0,2-2.09,2.32c-.1,0-.18.14-.35.29v2.54A1,1,0,0,0,51.57,48h5.18v-2.8c0-3.79.09-7.59,0-11.37a19.68,19.68,0,0,0-4.91-12.65c-2-2.31-4.22-4.48-7.2-5.6a27.91,27.91,0,0,0-7.31-2.12,13,13,0,0,0-5,.06c-1.61.45-3.22.88-4.85,1.26a16.24,16.24,0,0,0-6,3.09,21.08,21.08,0,0,0-5,5.5,22.13,22.13,0,0,0-3.47,11.46,20.79,20.79,0,0,0,1.81,8.93A19.83,19.83,0,0,0,20,51a31.45,31.45,0,0,0,4.45,3.3A15.36,15.36,0,0,0,32,56.87c5.08.15,10.17.21,15.25.29.15,0,.31-.15.61-.31V55.19c0-1.86,0-3.73,0-5.6,0-1.25.25-2.5.24-3.75,0-2.25-.18-4.49-.24-6.74,0-1.34,0-2.68,0-4a12.12,12.12,0,0,0-2.44-7.62,12.7,12.7,0,0,0-10.68-5.21c-1.28,0-1.8.46-1.87,1.75a8.89,8.89,0,0,0,.36,2c.7.11,1.15.23,1.61.25a8.58,8.58,0,0,1,6.68,3.11,8.67,8.67,0,0,1,2.33,6c0,3.61,0,7.23,0,10.85ZM40.17,44c-1.86,0-3.43,0-5,0a8.91,8.91,0,0,1-8.7-6.41c-.22-.7-.18-1.49-.33-2.21s0-1.88-1-2.23c-1.88-.68-2.93.3-3,1.8a12.14,12.14,0,0,0,2,7.09,11.91,11.91,0,0,0,5.47,4.89c3.37,1.43,6.91,1.11,10.52,1,0-.58.09-1,.1-1.49C40.18,45.67,40.17,44.92,40.17,44Z"/><path class="cls-1" d="M155.76,54.33h-9.07V50.56A31.37,31.37,0,0,1,143.63,53c-4.35,2.63-11.28,1.94-15.46-2.51a19.22,19.22,0,0,1-3.46-5.33,10.56,10.56,0,0,1-.78-3.66c-.16-3.17-.35-6.34.85-9.42a14.79,14.79,0,0,1,7.35-8.15,13,13,0,0,1,7.12-1.1,11.52,11.52,0,0,1,7.34,3.77V13c1.27-.48,6.1-.61,9.09-.26a8.24,8.24,0,0,1,.19,1.27q0,19.61,0,39.21C155.87,53.52,155.81,53.8,155.76,54.33Zm-16-7.77a7.36,7.36,0,0,0,5-2c2.84-3.21,3-8.84-.32-12a6.47,6.47,0,0,0-8.27-.55,8.71,8.71,0,0,0-1.74,11.52A6.92,6.92,0,0,0,139.71,46.56Z"/><path class="cls-1" d="M245.94,54.46a13.87,13.87,0,0,1-7.61-1.73c-4.61-2.67-7.64-6.51-8.35-11.85a14.43,14.43,0,0,1,1.55-9.3c2.33-4,5.56-7,10.29-8.19a17.16,17.16,0,0,1,12.44,1.17,15.33,15.33,0,0,1,8.18,10,14.64,14.64,0,0,1-1.51,11.88C257.67,51.86,252.82,54.67,245.94,54.46Zm7.77-15.38c0-.5,0-.8,0-1.09a7.11,7.11,0,0,0-3.26-6,7.83,7.83,0,0,0-6-.82,5.25,5.25,0,0,0-2.67,1.12A8.73,8.73,0,0,0,239,39.45c.53,5.35,5.66,8.84,11.23,6.17a4.75,4.75,0,0,0,1.95-1.68C253.13,42.41,254,40.79,253.71,39.08Z"/><path class="cls-1" d="M112.85,35.58c.13-2.15-.43-3.12-2.21-3.86a9.19,9.19,0,0,0-5.62-.54c-1.8.4-3.61.74-5.41,1.12a1.06,1.06,0,0,1-1.36-.77c-.57-1.7-1.15-3.4-1.64-5.13a1.21,1.21,0,0,1,1-1.46,53.31,53.31,0,0,1,6.14-1.71,34.81,34.81,0,0,1,4.91-.28,14.08,14.08,0,0,1,7.6,1.66,9.75,9.75,0,0,1,5,5.91,30.3,30.3,0,0,1,1,8.25c0,4.37,0,8.74,0,13.12,0,2.12-.09,2.2-2.13,2.21h-5.25c-1.74,0-1.83-.11-1.91-1.91,0-.17,0-.34,0-.52a25.79,25.79,0,0,1-3.34,1.88,12.57,12.57,0,0,1-10.43-.17c-3.83-1.91-5.64-4.59-5.29-9.16a8.75,8.75,0,0,1,.75-3.48,9.94,9.94,0,0,1,7.07-5.32,24.82,24.82,0,0,1,5-.38C108.73,35.09,110.73,35.38,112.85,35.58ZM109,40.74a9.27,9.27,0,0,0-4.75,1.16,3.23,3.23,0,0,0-1.34,3.31,2.69,2.69,0,0,0,1.92,2.25c2.29,1,4.43.43,6.47-.75,1.53-.87,1.95-2.35,2.06-4,0-.56-.06-1.07-.72-1.22Z"/><path class="cls-1" d="M195.55,41.85a5.17,5.17,0,0,0,4.33,4.87,9.9,9.9,0,0,0,8.63-2c1-.81,1-.74,1.91.18s1.82,1.61,2.72,2.43c.42.39.79.83,1.28,1.35a8.14,8.14,0,0,1-1.1,1.58,14.86,14.86,0,0,1-5.58,3.43,12.22,12.22,0,0,1-2.32.61c-3.54.28-7.16.54-10.44-1a15.4,15.4,0,0,1-6.71-5.89,15.87,15.87,0,0,1-2.41-9.87c.37-3.78,1.55-7.35,4.52-10a17.37,17.37,0,0,1,4.69-3.5,16,16,0,0,1,7.57-1.18,13.19,13.19,0,0,1,7.13,2.45,13.35,13.35,0,0,1,2.77,2.64,16,16,0,0,1,2.84,5.51,25.8,25.8,0,0,1,.7,6.48c0,1.82-.14,2-2,2h-18.5Zm-.17-6.2h11.48c-.63-3.4-2.59-5.17-5.84-5.18A5.56,5.56,0,0,0,195.38,35.65Z"/><path class="cls-1" d="M260.55,23.3c1-.06,1.64-.13,2.24-.12,2,0,4.07.1,6.1,0a2.63,2.63,0,0,1,2.46,1.54c1.4,2.25,2.84,4.48,4.42,7,1.49-2.29,3-4.28,4.14-6.44a3.48,3.48,0,0,1,3.52-2.2c1.69.07,3.39,0,5.08,0a16.08,16.08,0,0,1,2.29.41L280.67,38.22c3.23,5.1,7,10.05,10.54,15.49a9.72,9.72,0,0,1-1.67.37c-2.33,0-4.67,0-7,0a1.76,1.76,0,0,1-1.67-1c-1.65-2.65-3.37-5.26-5.19-8.09-.71,1-1.41,1.82-2,2.75-1.06,1.66-2,3.38-3.08,5a2.25,2.25,0,0,1-1.95,1.28c-2.33,0-4.66,0-7,0a6.66,6.66,0,0,1-1.34-.41c.68-1.08,1.23-2,1.84-2.89,2.32-3.39,4.66-6.77,7-10.15,1.47-2.13,1.49-2.15.08-4.25-2.38-3.55-4.8-7.08-7.19-10.64C261.58,25.09,261.2,24.39,260.55,23.3Z"/><path class="cls-1" d="M156.36,23.35c1.24-.09,2.24-.2,3.25-.22,1.63,0,3.26,0,4.9,0a2.19,2.19,0,0,1,2.19,1.62c.91,2.69,1.85,5.36,2.73,8.06s1.76,5.6,2.66,8.39a7,7,0,0,0,.52,1c2.17-6.34,4.31-12.56,6.47-18.86a46.58,46.58,0,0,1,8.51-.14c.75,0,.94.64.72,1.29-.33,1-.72,2-1.1,2.93-1.46,3.7-2.94,7.4-4.39,11.1q-2.85,7.29-5.65,14.59a1.75,1.75,0,0,1-1.86,1.21c-2.18,0-4.35,0-6.74,0-2.26-5-4.09-10.28-6.18-15.41S158.43,28.71,156.36,23.35Z"/><path class="cls-1" d="M218.35,12.7h9.13a14.54,14.54,0,0,1,.15,1.54q0,19,0,37.95c0,1.75-.16,1.89-1.91,1.9s-3.61,0-5.42,0-1.95-.15-1.95-2q0-9.09,0-18.18V12.7Z"/><path class="cls-1" d="M301.38,48.63c.43,1.66-.67,2.58-1.66,3.51a4.62,4.62,0,0,1-3.66,1.26c-2.48-.18-4.52-2.78-4.35-5.6.13-2.1,3-4.63,5.12-4.3a6.35,6.35,0,0,1,3.76,2A4.11,4.11,0,0,1,301.38,48.63Zm-8.27-.37a3.51,3.51,0,0,0,3.53,3.87c1.64.13,3.62-1.9,3.62-3.55a4.13,4.13,0,0,0-3.75-3.84A3.67,3.67,0,0,0,293.11,48.26Z"/><path class="cls-1" d="M296.78,51.31a2.73,2.73,0,0,1-2.54-1.67,2.49,2.49,0,0,1,.38-2.77,2.72,2.72,0,0,1,2.72-1.16c.35,0,.7.56.87.93.06.12-.46.53-.76.76-.11.09-.34.05-.51.05-.61,0-1,.28-1,.94a1.29,1.29,0,0,0,1,1.26c.15.05.35-.07.51,0s.68.15.69.26a1.21,1.21,0,0,1-.24.89A4.17,4.17,0,0,1,296.78,51.31Z"/></g></g></svg>