<svg xmlns="http://www.w3.org/2000/svg" viewBox="0 0 105.97 162.35"><defs><style>.cls-1{fill:#fff;}</style></defs><title>Atrias</title><g id="Layer_2" data-name="Layer 2"><g id="Layer_1-2" data-name="Layer 1"><path class="cls-1" d="M105.79,0V116H77.12V28.92H28.8v9.13c-1.31.45-26.53.58-28.8.18V0Z"/><path class="cls-1" d="M29.33,115.69H.49V57H62.26V85.73c-10.92.12-21.83,0-32.93.07Z"/><path class="cls-1" d="M55,161.73H50.25c-.86,0-1-.73-1.28-1.3-1.15-2.74-2.27-5.5-3.4-8.26-.53-1.3-.53-1.3-2.26-.92v10.49c-1.55,0-2.89,0-4.22,0-.92,0-1-.72-1-1.39,0-1.08.11-2.15.1-3.23,0-2.64-.09-5.27-.1-7.91,0-5.29,0-10.57,0-16a19.87,19.87,0,0,1,2.1-.23c2,0,4,.09,6,.08,5.34,0,8.9,3.41,8.81,8.84a8.69,8.69,0,0,1-2,5.86,10.12,10.12,0,0,1-1.72,1.47c-1,.72-1.08.81-.6,2l3.84,9.31C54.72,160.79,54.82,161.09,55,161.73ZM43.43,146.18c1.46-.14,2.69-.24,3.91-.38a2.62,2.62,0,0,0,2.34-2.35,9.16,9.16,0,0,0-.11-3,2.49,2.49,0,0,0-2.22-2.07c-1.25-.18-2.52-.18-3.92-.26Z"/><path class="cls-1" d="M19.78,161.87c-1.6,0-2.94,0-4.28,0a1.06,1.06,0,0,1-1.25-1c-.26-1.27-.67-2.51-.91-3.78-.17-.9-.56-1.32-1.51-1.29-1.67,0-3.34,0-5.14,0l-1.42,5.92H.11c.05-.38.07-.73.15-1.07q3-11.86,6-23.74c.26-1,.63-2,.86-3a1.12,1.12,0,0,1,1.27-1h4C14.87,142.63,17.3,152.14,19.78,161.87ZM9.94,141.6l-.21,0-1.86,9.26h4Z"/><path class="cls-1" d="M75.05,133.07c1.52,0,3-.07,4.41.06.35,0,.8.67.93,1.11.55,1.81,1,3.65,1.49,5.48Q84,147.89,86,156.07c.45,1.78.89,3.56,1.35,5.44-1.69.66-3.39.05-5.21.27-.37-1.61-.71-3.07-1.06-4.53s-.34-1.36-1.73-1.38c-1.62,0-3.24,0-5,0-.38,1.56-.72,3-1.09,4.47s-.35,1.38-1.72,1.41c-1.18,0-2.36,0-3.84,0,1.22-4.89,2.37-9.58,3.56-14.25S73.76,138.08,75.05,133.07Zm2.6,8.57-.19,0c-.61,3-1.22,6.07-1.85,9.15h4Z"/><path class="cls-1" d="M88.52,158l3.55-3.87c.93.77,1.72,1.5,2.58,2.13a4.58,4.58,0,0,0,2.88.93,2.76,2.76,0,0,0,2.82-1.52,3.08,3.08,0,0,0-.44-3.5,13.55,13.55,0,0,0-2.66-2.09c-1.4-.91-2.94-1.63-4.3-2.6a8.33,8.33,0,0,1-3.24-9,7,7,0,0,1,5.1-5.4,9,9,0,0,1,9.3,2.19,13,13,0,0,1,1.26,1.7l-3.32,3.24c-.51-.47-1-.85-1.36-1.25a4.58,4.58,0,0,0-2.93-1.25,2.63,2.63,0,0,0-2.22,4.5,19.09,19.09,0,0,0,3.11,2.3c1.32.86,2.72,1.57,4,2.44,4.59,3,4.69,12.45-1.67,14.76a9.8,9.8,0,0,1-10.21-1.72Z"/><path class="cls-1" d="M35.65,137.94H30c0,.77-.11,1.4-.11,2q0,9.84,0,19.67c0,.63-.05,1.27-.09,2h-5c-.28-3.88-.08-7.76-.12-11.63s0-7.79,0-11.77c-1.91-.66-3.86.14-5.78-.46v-4.71c5.58-.06,11.07,0,16.72,0Z"/><path class="cls-1" d="M65,133.2v28.42H59.9c-.14-9.47,0-18.87,0-28.34A12,12,0,0,1,65,133.2Z"/></g></g></svg>