<svg xmlns="http://www.w3.org/2000/svg" viewBox="0 0 224 224"><defs><style>.cls-1{fill:#fff;}</style></defs><title>Au-Flan-Breton</title><g id="Layer_2" data-name="Layer 2"><g id="Layer_1-2" data-name="Layer 1"><path class="cls-1" d="M100,0h23c4.37.82,8.78,1.5,13.12,2.47,26.32,5.87,47.8,19.59,64.43,40.69A107,107,0,0,1,221.3,86.94c.95,4.34,1.8,8.71,2.7,13.06v24a10.46,10.46,0,0,0-.81,2.27,104.53,104.53,0,0,1-11.6,37.4,111,111,0,0,1-42.26,44.73,106.42,106.42,0,0,1-37.14,13.89c-2.75.45-5.46,1.13-8.19,1.71H100a6.72,6.72,0,0,0-1.79-.74,109.86,109.86,0,0,1-65.84-32.33,110,110,0,0,1-30-55.3C1.43,131.45.77,127.21,0,123V100a11,11,0,0,0,.79-2.28A104.09,104.09,0,0,1,13.44,58.61C30.72,27.78,56.64,8.76,91.35,1.82,94.24,1.24,97.12.61,100,0Zm12,7.22C53.84,7.65,7.12,54.37,7.31,112.33a104.69,104.69,0,1,0,209.37-.91C216.39,53.55,169.54,7.65,112,7.22Z"/><path class="cls-1" d="M125,36c1.66.67,3.29,1.43,5,2,2.86.95,5.73,1.82,7.82,4.16a1.61,1.61,0,0,1,.4,1.34,1.47,1.47,0,0,1-1.24.55c-3.45-.34-6.68-.15-9,3-.12.16-1.16-.08-1.53-.41a37.75,37.75,0,0,0-3.52-3.42,19.18,19.18,0,0,0-4.11-1.69c-.32,1.89-.69,3.77-.92,5.67,0,.28.61.69,1,1,2.67,1.76,3.79,4.1,2.82,7.27a3.45,3.45,0,0,0,0,.91,3.62,3.62,0,0,0,1.3-.13c3.47-2,6.79-4.24,10.39-5.93,17-8,36.81-2.65,46.9,12.55a35,35,0,0,1,6,19.25c.13,9-1,17.59-5.55,25.52a56.82,56.82,0,0,1-9.63,12c-1.4,1.37-2.65,1.27-4.46.68a153.82,153.82,0,0,0-14.88-4.1c-3.23-.72-3.41-.36-4.71,2.69-2.26,5.32-6.68,6.47-11.16,2.86-.77-.62-1.33-1.53-2.14-2.08a1.66,1.66,0,0,0-1.62,0c-1.61,1.87-3.42,3.19-6,2.76a8.12,8.12,0,0,1-5.61-3.82c-.89-1.37-1.19-.81-2,.11-4,4.57-6.7,4.59-10.53.07-.9-1.07-1.4-1.82-2.42-.18a9,9,0,0,1-2,2.18c-2.67,2.13-6.3,2.24-8.55-.32-1.69-1.93-2.37-1.24-3.42.25a5.6,5.6,0,0,1-1.07,1.05c-4.23,3.41-8.66,2.39-11-2.53-1.53-3.27-1.54-3.32-5-2.53C69.33,118,64,118.66,59.6,122.1c-1.33,1.05-2.06.07-2.94-.7-9.93-8.7-16-19.25-17.1-32.71-1-12.2,2-22.84,10.8-31.4C61.12,46.82,74,44.11,88.16,48.77c5,1.64,9.49,4.71,14.23,7.11.71.36,1.49.6,2.23.9a14.2,14.2,0,0,1,.06-2.17c.28-1.6.11-3.83,1.09-4.62,2.27-1.83,2.28-3.87,2.08-6.34s0-2.35-2-1.53a6,6,0,0,0-1.8.85c-1.54,1.44-2.86,4-4.51,4.2S96.08,45,94.17,44.24c-1.14-.48-2.63-.11-4-.21a12.78,12.78,0,0,1-1.88-.44c.37-.71.57-1.64,1.14-2.09a15.7,15.7,0,0,1,3.82-2.31c1.68-.68,3.5-1,5.24-1.55a8.76,8.76,0,0,0,1.63-.91l-1-.95a38,38,0,0,1-3.2-3.14,4.7,4.7,0,0,1-.7-5.58A4.46,4.46,0,0,1,100,25a38.3,38.3,0,0,1,8,2.63c1.51.69,2,.51,2.31-1,.55-2.25,1.19-4.48,1.87-6.7.13-.41.61-.72.93-1.07a7.32,7.32,0,0,1,1.11,1.26,18.58,18.58,0,0,1,.66,1.86c.78,1.9,1.58,3.79,2.38,5.69a37.09,37.09,0,0,1,5.55-2.05,14.83,14.83,0,0,1,5.82-.15A3.35,3.35,0,0,1,131.34,30c-.88,3.14-2.59,5.67-6.28,6,1.26-1.44,2.58-2.82,3.75-4.32.76-1,1.68-2.12.08-3.24a6.78,6.78,0,0,0-1-.19c-4.38-.11-7.61,2-10,5.45-.76,1.12-.61,2.24,1.17,2.31,1,.12,2,.32,3.08.34A24.53,24.53,0,0,0,125,36ZM106.91,36c1.41-.1,2.43-.9,1.62-2.19a12.34,12.34,0,0,0-8.85-5.57c-1.38-.22-1.46,1-1.61,1.95l-1.43-1.35c0,.56-.26,1.24,0,1.65a12.25,12.25,0,0,0,9.07,6.18C106.05,36.7,106.5,36.2,106.91,36Zm37.79,77.61a32.37,32.37,0,0,0-2.8-5,4.29,4.29,0,0,0-5-1.3c-2,.7-2.64,2.4-2.77,4.34a8.78,8.78,0,0,0,2.19,6.44,5.2,5.2,0,0,0,5.8,1.73C143.72,119.07,144.79,117,144.7,113.58ZM81.92,115c.06,4.38,3,6.37,6.51,4.46,3-1.6,4.74-6.33,3.57-9.52-1-2.62-3-3.54-5.52-2.57C83.69,108.4,81.87,111.44,81.92,115Zm35.93-2.66c0-3.62-2.12-6.75-4.52-6.72s-4.76,3.16-4.87,6.57c-.12,3.81,2.13,6.94,4.91,6.81S117.87,116.17,117.85,112.32Zm-12.66.17c-.15-1.36-.2-2-.31-2.67a4,4,0,0,0-3-3.53,3.94,3.94,0,0,0-4,1.4,7.89,7.89,0,0,0-2.44,7.2c.35,1.81,1.1,3.54,3.23,4a4.24,4.24,0,0,0,4.71-2A27.35,27.35,0,0,0,105.19,112.49Zm25.6.45a7.54,7.54,0,0,0-3.25-5.81c-2.24-1.61-4.53-1.07-5.75,1.42a7.79,7.79,0,0,0,.2,7.14c1.27,2.55,3.32,3.73,5.5,3.23S130.84,116.44,130.79,112.94Zm-34-16.88c-.1-3-2.45-4.71-5-3.67s-4.19,5-3.22,7.56,3.45,3.32,5.57,1.7A6.39,6.39,0,0,0,96.79,96.06ZM138,97.87a10,10,0,0,0-.23-1.73c-.71-2.62-3.41-4.48-5.58-3.91-1.81.48-2.73,2.65-2.16,5.47a6.94,6.94,0,0,0,1.14,2.71c1,1.36,2.3,2.49,4.21,2.07C137,102.11,137.94,100.41,138,97.87Zm-11.88-.64a12.84,12.84,0,0,0-.21-1.68c-.58-2.43-2.53-3.91-4.65-3.58s-3.29,2.54-2.78,5.09a8.16,8.16,0,0,0,.9,2.31c1.09,1.95,2.9,2.84,4.5,2.23C125.71,100.9,126,99.28,126.07,97.23Zm-18.31-1.49c-.07-2.08-1.24-3.92-2.85-4.1-1.83-.21-3.06.87-4,2.37-1.24,2.1-1.22,5,.09,6.49a2.82,2.82,0,0,0,3.52.92A6.1,6.1,0,0,0,107.76,95.74Zm25.62-11.33A4.36,4.36,0,0,0,129.55,80a3.14,3.14,0,0,0-3.36,3.39c0,2.35,1.71,4.35,3.75,4.44A3.41,3.41,0,0,0,133.38,84.41Zm-33.4-1c0-2.09-1-3.32-2.83-3.39a3.92,3.92,0,0,0-4,4.1c0,2.2,1.24,3.7,3.13,3.7C98.39,87.78,100,85.87,100,83.38Zm16.18,13.69c-.12-1.06-.16-1.72-.28-2.37-.26-1.43-1-2.66-2.53-2.48a3.92,3.92,0,0,0-2.62,1.83,5.51,5.51,0,0,0,.32,5.64,2.4,2.4,0,0,0,4.1.22A12.39,12.39,0,0,0,116.16,97.07Zm7.56-13A4,4,0,0,0,120.14,80c-1.8-.06-2.94,1.15-3,3.2-.09,2.21,1.38,4.25,3.19,4.42C122,87.78,123.69,86,123.72,84.06ZM106.32,80a4,4,0,0,0-3.87,3.7c-.1,1.74,1.57,3.8,3.14,3.87S109,85.63,109,83.4C109.08,81.38,108.05,80.07,106.32,80Zm9.48-46.57c0-2.94-1.28-5-2.8-4.9-1.24.1-2.43,2.15-2.44,4.41a4.37,4.37,0,0,0,.52,2.34c.49.73,1.5,1.77,2,1.64a5.25,5.25,0,0,0,2.44-2C115.91,34.48,115.77,33.65,115.8,33.39Zm10.06,42.55a2.89,2.89,0,0,0,2.87-3.28A3.7,3.7,0,0,0,124.88,69a2.68,2.68,0,0,0-2.58,3A3.7,3.7,0,0,0,125.86,75.94Zm-24.44-7a3.33,3.33,0,0,0-3.51,3.37c-.14,2,.93,3.47,2.57,3.58a3.39,3.39,0,0,0,3.51-3.4C104.17,70.54,103.13,69.1,101.42,69Zm11.49-21.41a3.78,3.78,0,0,0,3.66-3.28,3.36,3.36,0,0,0-3.07-3.23A2.93,2.93,0,0,0,110,43.67,3.52,3.52,0,0,0,112.91,47.57Zm4.23,28.26c1.68,0,2.7-1.24,2.76-3.37s-1-3.43-2.68-3.38a3.38,3.38,0,0,0-2.92,3.38A3.16,3.16,0,0,0,117.14,75.83ZM105.78,59.25a3.62,3.62,0,0,0-3.49,3.57,2.67,2.67,0,0,0,2.65,2.9c1.75,0,3.08-1.69,3-3.79C107.87,60.47,107.29,59.4,105.78,59.25Zm6.3,13.34c.06-2.07-1-3.48-2.62-3.55a3.26,3.26,0,0,0-3.08,3.25,3.34,3.34,0,0,0,2.79,3.51C110.84,76,112,74.68,112.08,72.59Zm8.81-13.34a2.69,2.69,0,0,0-2.52,3,3.46,3.46,0,0,0,3.43,3.44c1.66-.16,2.12-1.35,2.17-2.79C124,60.74,122.73,59.21,120.89,59.25Zm-4.44,3.38a3.47,3.47,0,0,0-2.94-3.46,3.3,3.3,0,0,0-.37,6.57A3.42,3.42,0,0,0,116.45,62.63ZM109.7,50.06a3.11,3.11,0,0,0-3.34,2.9,2.49,2.49,0,0,0,2.46,2.94,3,3,0,0,0,3-3.15A2.33,2.33,0,0,0,109.7,50.06Zm10.22,3c-.12-2.05-1.46-3.27-3.25-3.05a2.32,2.32,0,0,0-2.2,2.3,3.41,3.41,0,0,0,3.38,3.52C119.55,55.65,119.92,54.43,119.92,53.09ZM110.19,83c1.06,1.54,1.61,2.95,2.65,3.65s2.63-1,2.84-2.64-1.21-3.93-2.5-3.6C112.17,80.68,111.42,81.89,110.19,83Zm-.39,20.12c-.45-.58-.68-1.18-1-1.29-.89-.27-3.17,2.22-2.73,3,.3.57,1.07.89,1.63,1.33Zm22.89,2.93a5.07,5.07,0,0,0-.64-1.32c-.8-.8-1.66-1.53-2.52-2.26-.51-.43-.93-1.72-1.74-.5-.23.34.23,1.39.66,1.87a19.52,19.52,0,0,0,2.88,2.56C131.53,106.56,132.1,106.23,132.69,106.06Zm-14.91-4.47c-.33.25-.73.4-.77.62-.11.56-.3,1.41,0,1.66.76.66,1,2.33,2.58,1.61a2.1,2.1,0,0,0,.84-1C119.58,103.44,118.66,102.52,117.78,101.59Zm-23.13,5c1.32-1.29,2.69-2.62,4-4a.48.48,0,0,0-.06-.46c-.23-.17-.66-.43-.76-.35q-2.1,1.7-4.1,3.51c-.09.08.12.54.25.8S94.27,106.31,94.65,106.59Zm33.59-15.23c.23-1.18-2.32-3.41-3.48-3-.13,0-.33.32-.33.33,1.08,1.18,2.17,2.34,3.27,3.51Zm-26.38-2.85a7.78,7.78,0,0,0-.55-.66c-1.21.84-2.39,1.73-3.58,2.61.29.38.53,1.05.87,1.1C99.73,91.72,101.83,89.66,101.86,88.51Z"/><path class="cls-1" d="M58.75,125.3a4.43,4.43,0,0,1,1.14.35c6.12,4.27,13.34,5,20.37,6a241.78,241.78,0,0,0,47.34,1.93c10.45-.5,20.93-1.18,31.17-3.75,3.73-.93,7.37-2,10.57-4.25a1.34,1.34,0,0,1,.88-.11c.13.42.37,1.07.17,1.28-1.1,1.19-2.13,2.69-3.53,3.31A58.47,58.47,0,0,1,156.11,134a20.17,20.17,0,0,0-7.67,3.34c-11.31,8.23-22.64,16.45-32.56,26.39-.35.35-.75.66-1.08,1-1.31,1.48-2.43,1.14-3.79-.1-4.67-4.25-9.3-8.58-14.22-12.54-6.34-5.12-13-9.88-19.43-14.86a28,28,0,0,0-9.27-4.7,36.92,36.92,0,0,1-7.22-3.28,7.72,7.72,0,0,1-2.16-2.65C58.52,126.32,58.72,125.78,58.75,125.3Z"/><path class="cls-1" d="M122.07,176.28a13.79,13.79,0,0,1,0-2.49c.28-1.56.21-3.89,1.16-4.47a7.54,7.54,0,0,1,7.16,0,3.24,3.24,0,0,1,1.65,4.25,4.68,4.68,0,0,0,.22,4.48c1.48,2.73,0,5.29-3,6a11.39,11.39,0,0,1-2.48.21c-4,0-4.61-.54-4.75-4.52C122,178.6,122.07,177.44,122.07,176.28Zm3.24,2.36c-.06,2-.06,3.54,1.87,3.2a3.6,3.6,0,0,0,2.33-2c.52-1.41-1-2.83-2.68-2.56C126.15,177.42,125.6,178.37,125.31,178.64Zm3.63-6.59c-.5-.36-1.27-1.35-2.12-1.43-1.56-.14-1.53,1.26-1.53,2.41s.38,1.86,1.66,1.83S128.94,174,128.94,172.05Z"/><path class="cls-1" d="M57.59,183.54c-.65.16-1.5.65-2,.41-.65-.31-1.07-1.17-1.52-1.85-1.74-2.58-3.79-2.58-5.6.07-.27.41-.31,1.07-.67,1.3A5.9,5.9,0,0,1,46,184c-.14-.57-.52-1.21-.37-1.68,1.24-4,2.5-7.93,4-11.82a3.09,3.09,0,0,1,2.1-1.52c.48-.08,1.44.79,1.67,1.43,1.41,3.9,2.68,7.86,4,11.8A9,9,0,0,1,57.59,183.54ZM52.73,177l-1.22-3.31a22.23,22.23,0,0,0-1.12,3.11c0,.23.77.8,1.27,1C51.89,177.85,52.32,177.33,52.73,177Z"/><path class="cls-1" d="M182.22,178.9a18,18,0,0,1-.06,3.45c-.13.63-.89,1.13-1.36,1.69-.55-.49-1.48-.92-1.58-1.49a29.75,29.75,0,0,1-.21-4.44,7.22,7.22,0,0,0-.18-2.44,2.85,2.85,0,0,0-1.66-1.31c-.25-.08-1.07.74-1.16,1.25a20.77,20.77,0,0,0-.18,3.45,17,17,0,0,1-.17,3.44c-.15.6-1,1-1.56,1.5-.45-.57-1.26-1.13-1.29-1.73a74.92,74.92,0,0,1-.05-7.93,2.91,2.91,0,0,1,1.13-2,5.44,5.44,0,0,1,8.37,4.12c.05.82,0,1.65,0,2.48Z"/><path class="cls-1" d="M103.91,178c0-.33,0-.66,0-1,.07-4.71,2.53-6.57,6.94-5,1.08.38,2.48,1.6,2.62,2.59a48.46,48.46,0,0,1,.15,8.35c0,.36-.95,1-1.45.95a1.74,1.74,0,0,1-1.27-1.11c-.2-1.63-.12-3.3-.24-4.94a8.48,8.48,0,0,0-.52-2.86,1.87,1.87,0,0,0-1.62-.76,1.76,1.76,0,0,0-1.21,1.2c-.17,2.13,0,4.3-.26,6.43-.09.75-1,1.42-1.46,2.13-.54-.68-1.4-1.3-1.56-2.06A20,20,0,0,1,104,178Z"/><path class="cls-1" d="M69,178.16c0,.33,0,.66,0,1-.11,4.63-2.77,6.51-7.09,4.82a3.88,3.88,0,0,1-2.26-2.36,58.22,58.22,0,0,1-.29-8.36c0-.43,1-1.27,1.28-1.17.63.26,1.46.89,1.54,1.47.23,1.63.09,3.3.17,5a5.88,5.88,0,0,0,.43,2.39,2,2,0,0,0,1.62.82,1.76,1.76,0,0,0,1.23-1.18c.18-2.14.14-4.3.21-6.45,0-1,.25-2.26,1.51-2,.66.14,1.38,1.29,1.54,2.09a21,21,0,0,1,.07,4Z"/><path class="cls-1" d="M101.82,178.84c0,.16,0,.33,0,.49-.11,4.53-3.64,6.65-7.61,4.37-1-.56-2.09-2.09-2-3.06a6.14,6.14,0,0,1,2.25-3.53,15.8,15.8,0,0,1,3.9-1.79c-1-2-3-.75-4.37-1.3-.27-.1-.67-.51-.62-.63.16-.44.4-1,.76-1.17,3.89-1.68,7.08.06,7.62,4.14a20.5,20.5,0,0,1,0,2.48Zm-2.61,1.25c-.73-.82-1.16-1.73-1.68-1.78-1.25-.12-2.37.61-2.18,2a2.43,2.43,0,0,0,1.78,1.61C97.74,181.9,98.36,180.87,99.21,180.09Z"/><path class="cls-1" d="M147.92,184.28c-4.34,0-6.31-2.11-6.3-6.29s2-6.33,5.42-6.21a4.23,4.23,0,0,1,4.16,2.92c.89,2.34.49,3.15-2.07,3.81-1.12.29-2.28.43-3.39.76-.34.1-.81.63-.78.92s.41,1.09.75,1.17c1.26.29,2.58.33,3.85.58.41.08.74.51,1.11.78-.39.46-.7,1.08-1.19,1.32A4.24,4.24,0,0,1,147.92,184.28Zm-2-6.75,2.49-2c-.61-.46-1.34-1.39-1.8-1.27-.79.19-1.41,1.06-2.11,1.64Z"/><path class="cls-1" d="M170.6,177.93c0,3.78-1.82,6.17-4.89,6.28-3.33.13-5.43-2.34-5.4-6.31,0-3.61,2.16-6.14,5.17-6.14S170.57,174.28,170.6,177.93Zm-2.95.29a5.8,5.8,0,0,0-.34-2,13.43,13.43,0,0,0-1.82-2c-.64.65-1.64,1.22-1.83,2a7.84,7.84,0,0,0,.08,3.82,3.22,3.22,0,0,0,2,1.65c.3.09,1.11-1,1.48-1.6A6.46,6.46,0,0,0,167.65,178.22Z"/><path class="cls-1" d="M77.07,176.19v-2c0-5.47,1-6.34,6.35-5.38.49.09.88.73,1.31,1.12A7.71,7.71,0,0,1,83.32,171c-.42.19-1.09-.05-1.44.2-.57.41-1.32,1-1.36,1.62a2.84,2.84,0,0,0,1,1.9c.44.39,1.35.24,1.8.62.3.25.15,1,.21,1.54-3.57.29-3.3,2.9-3.27,5.38,0,.16,0,.38-.08.48-.4.43-1,1.25-1.24,1.17-.65-.22-1.61-.82-1.65-1.33-.19-2.12-.08-4.28-.08-6.42Z"/><path class="cls-1" d="M157.94,184.14c-2.64-.07-3.51-1.39-3.8-3.16a46,46,0,0,1-1-7.71c0-1.32,1-2.67,1.76-3.93a1.46,1.46,0,0,1,1.33-.25c.7.83,1.07,2,1.85,2.69,1.29,1.15.37,1.58-.14,2.68-1.18,2.53-1.47,5.31.46,7.87C158.69,182.66,158.1,183.62,157.94,184.14Z"/><path class="cls-1" d="M90.08,176c0,2.16.11,4.33-.07,6.47,0,.57-1,1.07-1.46,1.6-.52-.54-1.48-1.07-1.49-1.62-.11-4.64-.09-9.3,0-13.94,0-.54,1-1.06,1.49-1.59.5.54,1.39,1,1.43,1.62.15,2.48.06,5,.06,7.46Z"/><path class="cls-1" d="M134.77,178.23c0-1,0-2,0-3,.16-2.77.54-3.21,3.2-3.38a9.82,9.82,0,0,1,2.35.44,18.48,18.48,0,0,0-1.11,1.85,11.07,11.07,0,0,0-1.07,3c-.21,1.81,0,3.67-.28,5.47-.08.52-1.06,1.08-1.73,1.26-.28.08-1.13-.72-1.18-1.18a41.78,41.78,0,0,1-.06-4.48Z"/><path class="cls-1" d="M109.8,103.13l-2.15,3.08c-.56-.44-1.33-.76-1.63-1.33-.44-.82,1.84-3.31,2.73-3C109.12,102,109.35,102.55,109.8,103.13Z"/><path class="cls-1" d="M132.69,106.06c-.59.17-1.16.5-1.36.35a19.52,19.52,0,0,1-2.88-2.56c-.43-.48-.89-1.53-.66-1.87.81-1.22,1.23.07,1.74.5.86.73,1.72,1.46,2.52,2.26A5.07,5.07,0,0,1,132.69,106.06Z"/><path class="cls-1" d="M117.78,101.59c.88.93,1.8,1.85,2.62,2.85a2.1,2.1,0,0,1-.84,1c-1.56.72-1.82-1-2.58-1.61-.27-.25-.08-1.1,0-1.66C117.05,102,117.45,101.84,117.78,101.59Z"/><path class="cls-1" d="M94.65,106.59c-.38-.28-.57-.35-.63-.48s-.34-.72-.25-.8q2-1.82,4.1-3.51c.1-.08.53.18.76.35a.48.48,0,0,1,.06.46C97.34,104,96,105.3,94.65,106.59Z"/><path class="cls-1" d="M128.24,91.36l-.54.8c-1.1-1.17-2.19-2.33-3.27-3.51,0,0,.2-.29.33-.33C125.92,88,128.47,90.18,128.24,91.36Z"/><path class="cls-1" d="M101.86,88.51c0,1.15-2.13,3.21-3.26,3-.34,0-.58-.72-.87-1.1,1.19-.88,2.37-1.77,3.58-2.61A7.78,7.78,0,0,1,101.86,88.51Z"/></g></g></svg>