<svg xmlns="http://www.w3.org/2000/svg" viewBox="0 0 180.42 147.84"><defs><style>.cls-1{fill:#fff;}</style></defs><title>Bilzen</title><g id="Layer_2" data-name="Layer 2"><g id="Layer_1-2" data-name="Layer 1"><path class="cls-1" d="M110.09,36.78A27.32,27.32,0,0,1,121,36a42.22,42.22,0,0,1,26.59,12.94,34.5,34.5,0,0,1,9.71,19.33,45.41,45.41,0,0,1,.24,4.71l-6.7,3.24a4.31,4.31,0,0,1-.3-1.2c.42-8.61-3.32-15.4-9.42-21.07a37.18,37.18,0,0,0-22.43-10.08c-12.61-1.12-22.5,3.78-29.62,14.24-.57.84-1.1,1.69-1.79,2.73l-1.56-2.18A27.79,27.79,0,0,0,79,51.82a20.45,20.45,0,0,0-17.59-3.18,25.73,25.73,0,0,0-11.88,6.72c-1.4,1.36-1.37,1.47-.48,3.2a13.19,13.19,0,0,1,1,11c-1.44-.14-.56,1.41-1.33,1.81-1.14.19-1.44-.54-1.55-1.49a.26.26,0,0,1,.07-.32c.7,0,1-.34.92-1-.26-2.06.74-4.31-.89-6.17.45-1.88-1.16-2.65-2-3.81a4.47,4.47,0,0,1-.79-1c-.82-2.27-3.56-2.42-4.7-4.32a1.16,1.16,0,0,0-.7-.48,3.26,3.26,0,0,0-.93,0,37.37,37.37,0,0,0-8.55-3.64A22.46,22.46,0,0,0,18,49.43a20.91,20.91,0,0,0-3.12,1.44,15.22,15.22,0,0,0-2.72.9c-1.79,1-3.67,1.89-4.9,3.65h0l-.49.47v0L5.14,57.4a.23.23,0,0,0-.18.26L2.28,60V50.84a37.65,37.65,0,0,1,10.45-7.4,27.64,27.64,0,0,1,9.43-2.54c.44,0,.87-.15,1.57-.27-.39-.79-.66-1.4-1-2-6.37-11.45-3.94-29,11.64-36.36,7.52-3.53,15-2.95,22.06,1.65a17.93,17.93,0,0,1,2.07,1.84,2.4,2.4,0,0,0,.92,2.41,8.59,8.59,0,0,1,2.89,4.6c.07.25.57.36.88.53a.23.23,0,0,1,0,.32L63.2,19c0,.47.14,1.16-.1,1.36-1.36,1.12-.71,2.56-.78,3.89a.26.26,0,0,1-.1.32c-1.77.41-1.91,1.76-1.86,3.22l0,0-.41.5h0c-1.14-.27-1.6.72-2.27,1.27-1.17.95-1.79.86-2.59-.49l.06,0c1.62.5,2-1.06,2.88-1.78a3.24,3.24,0,0,0,1.36-3.44.25.25,0,0,1,.08-.29c.52,0,.89-.16.93-.78s-.08-1.47.26-1.76c.82-.68.7-1.49.66-2.31,0-1,.3-2.05-.7-3-.69-.65.22-2.2-1.05-2.83-.26-1.75-1.53-2.63-2.93-3.39a37.94,37.94,0,0,0-3.2-2.34,15.44,15.44,0,0,0-14.37-.9C32.58,9,28.88,13.89,27.56,20.64a21.73,21.73,0,0,0,4.92,18.8c3.22,3.85,7.61,5.88,12.39,7.12.75.19,1.53.32,2.29.49a3.49,3.49,0,0,0,3-.73,27,27,0,0,1,13-4.88,29.07,29.07,0,0,1,20.48,4.79,2.31,2.31,0,0,0,2.6.06C92.72,43.1,94.49,34,90.78,29.22a4.61,4.61,0,0,1-.42-.83V26.67c-.42-.09-.89-.05-1.11-.26-1.26-1.22-2.87-1.66-4.42-2.33s-3-.37-4.43-.28c-.13,0-.22.51-.32.78l-.14.09h-.17c-1-.51-.73-1.18-.3-2,2.24,0,4.42,0,6.59,0a2.89,2.89,0,0,1,1.15.12,16.28,16.28,0,0,1,6.67,5.93A12,12,0,0,1,96,36.35c-.09.92.33,2.22-.15,2.73-1.26,1.34-.66,2.68-.69,4a2.83,2.83,0,0,0,3.42-.85,4.8,4.8,0,0,1,1.29-.79,24.11,24.11,0,0,1,5-2.22c1.56-.39,2.82-1.7,4.6-1.59C109.7,37.64,109.9,37.08,110.09,36.78Z"/><path class="cls-1" d="M7.84,57.31l3.74-2.81v22A4.71,4.71,0,0,0,15,76.07a15.47,15.47,0,0,1,15.74,2.12C37.11,82.84,39.53,89.36,38,97c-1.51,7.47-6.4,12.1-13.84,13.57-11.58,2.3-21.86-6.68-21.79-17.45q.09-13.59,0-27.19a5.73,5.73,0,0,1,1.23-3.42c.46-.7.82-1.48,1.22-2.22l.32-.38L7.3,57.83Zm3.74,36a9.3,9.3,0,0,0,9.21,9A9.49,9.49,0,0,0,30,93.05a9.38,9.38,0,0,0-9.3-9A9.18,9.18,0,0,0,11.58,93.34Z"/><path class="cls-1" d="M66.36,75h34.93a11.18,11.18,0,0,1,.24,1.52c0,2,0,3.91,0,5.86a3.2,3.2,0,0,1-1.27,2.81c-4.11,3.5-8.15,7.06-12.22,10.59-2,1.75-4,3.48-6,5.23a18,18,0,0,0-1.28,1.42H101.4v8.36H66.24a73.42,73.42,0,0,1,.08-7.85c.06-.69.94-1.38,1.56-1.92,5.64-4.94,11.31-9.84,17-14.76.63-.55,1.22-1.15,2.24-2.1H66.36Z"/><path class="cls-1" d="M141,97.45H114.88c1.54,3.19,4,4.22,6.82,4.76,3,.59,5.49-.69,7.94-2.57l5.64,6.37a22.09,22.09,0,0,1-2.46,2.13c-5.19,3.27-10.74,3.58-16.4,1.55A17.3,17.3,0,0,1,105,91.49a18.58,18.58,0,0,1,14.6-16.28c10.83-2.17,20.86,6,21.37,17.4C141,94.09,141,95.57,141,97.45Zm-10.37-9.23A8.34,8.34,0,0,0,123.31,84a9.58,9.58,0,0,0-8.4,4.19Z"/><path class="cls-1" d="M180.3,110.53h-9.24v-5.48c0-4,0-8,0-12a8.83,8.83,0,0,0-6.25-8.68A9.09,9.09,0,0,0,153.59,93c-.11,4.92,0,9.85,0,14.77v2.8c-3.06.23-6,0-9.06.12a8.18,8.18,0,0,1-.2-1.19c0-5.62-.1-11.25,0-16.87.26-11.63,12.75-21.48,24.91-16.39,6.82,2.86,10.5,8.39,11,15.63C180.62,98,180.3,104.18,180.3,110.53Z"/><path class="cls-1" d="M62.7,110.8H53.82c0-.76-.11-1.44-.11-2.11,0-15.15,0-30.31,0-45.46a4.23,4.23,0,0,1,1.67-3.6,18.24,18.24,0,0,1,7.12-3.88C63,57.58,63.15,105.28,62.7,110.8Z"/><path class="cls-1" d="M50.19,75.41V110.8H41.84V80.9A14.26,14.26,0,0,0,50.19,75.41Z"/><path class="cls-1" d="M55.07,29.11c.8,1.35,1.42,1.44,2.59.49.67-.55,1.13-1.54,2.27-1.27a18.35,18.35,0,0,1-1.42,1.5C53.76,33.82,42.22,33.34,40,24a8.27,8.27,0,0,1,3.11-8.27,7.27,7.27,0,0,1,8.34-.2,5.25,5.25,0,0,1,2.77,4.81,21.94,21.94,0,0,1-.5,3.2l-.54,1,.13,0-.12,0-.94.92.05.14-.07-.14a8.9,8.9,0,0,1-5,1l-.13-.07-.15,0-1.57-.89h0a5.48,5.48,0,0,1-1.09-5.83,3.61,3.61,0,0,0-.09-1.3c-3.65,3-2.42,9,2,10.59h0l.56.36h0a2.2,2.2,0,0,0,.53.39C50,30.6,52.53,30.1,55.07,29.11Zm-10.3-6.64a5.59,5.59,0,0,0,.64,1.29c.48.63,1,1.52,1.66,1.66,2,.46,3.78-.43,5.28-1.78a2.66,2.66,0,0,0,.53-.93c.29-.73.54-1.48.84-2.3a14.37,14.37,0,0,0-2.86-4.06c-1.44-1.31-3.27-1.6-5.5-.61.9.89,3-.41,3.09,1.85L45.6,19.37Z"/><path class="cls-1" d="M47.19,69.9c.11.95.41,1.68,1.55,1.49.77-.4-.11-2,1.33-1.81-1.48,8.14-9.42,11-15.86,8.12-4.23-1.93-5.94-5.93-4.76-10.91L31.37,64h0c.41-.21.83-.4,1.23-.62a6.59,6.59,0,0,1,6.66.08c3.06,1.67,3.69,5.25,1.47,8.08,0-1.4,0-2.8,0-4.19a3.12,3.12,0,0,0-.4-1.48c-.94-1.43-2.58-2-4-2.79-.23-.15-.78.21-1.18.34.13.33.24.66.39,1a3.27,3.27,0,0,0,.41.51l-2.75,3.57c-.41,1.66,1,2.66,2.07,3.8a8.29,8.29,0,0,1,.74,1c-4-.65-3.15-3.9-3.35-6.85A4.36,4.36,0,0,0,31,71.24c1,4.66,5.86,6.88,10.64,4.92h0a3.88,3.88,0,0,0,2.78-1.9Z"/><path class="cls-1" d="M4.29,124c.69-.17,1.26-.36,1.85-.45A4.84,4.84,0,0,1,11.86,128a27.42,27.42,0,0,1,0,4.44A4.86,4.86,0,0,1,7.08,137a4.7,4.7,0,0,1-4.92-4.6c-.17-4-.08-7.95-.09-11.93a1.16,1.16,0,0,1,.11-.68c.26-.33.7-.89.92-.82a1.61,1.61,0,0,1,1,1,15.58,15.58,0,0,1,.08,2.56C4.21,122.93,4.25,123.39,4.29,124Zm5.44,6.38h0c0-.7,0-1.4,0-2.1a2.72,2.72,0,0,0-5.42-.39,21.08,21.08,0,0,0,0,4.63,2.55,2.55,0,0,0,3,2.31,2.62,2.62,0,0,0,2.48-2.59C9.78,131.59,9.73,131,9.73,130.35Z"/><path class="cls-1" d="M73.06,124v-3.55c0-.73.07-1.51,1-1.56s1.14.66,1.14,1.42c0,4.05.1,8.11-.06,12.15a4.85,4.85,0,0,1-9.67.06,30.76,30.76,0,0,1-.09-4c.14-3.77,2.85-5.78,6.51-4.88Zm0,6.09h0A16.18,16.18,0,0,0,73,128a2.75,2.75,0,0,0-2.61-2.53,2.57,2.57,0,0,0-2.7,2.11,20.56,20.56,0,0,0-.06,5.08,2.46,2.46,0,0,0,2.88,2.11A2.64,2.64,0,0,0,73,132.46,16.46,16.46,0,0,0,73,130.13Z"/><path class="cls-1" d="M109.22,123.79c1-.13,1.64-.27,2.33-.31a4.67,4.67,0,0,1,5.09,4.36,34.51,34.51,0,0,1,0,4.66,4.76,4.76,0,0,1-4.79,4.49,4.88,4.88,0,0,1-4.91-4.63c-.09-1.63,0-3.27,0-4.9v-6.07A3.75,3.75,0,0,1,107,120a4.78,4.78,0,0,1,1-1.11c.36.35.92.64,1,1a9.63,9.63,0,0,1,.08,2.09C109.1,122.56,109.16,123.08,109.22,123.79Zm5.46,6.49h-.08c0-.62,0-1.25,0-1.87a2.82,2.82,0,0,0-.14-.69,2.79,2.79,0,0,0-2.68-2.2,2.73,2.73,0,0,0-2.66,2.51,26.33,26.33,0,0,0,0,4.44,2.56,2.56,0,0,0,2.5,2.35,2.62,2.62,0,0,0,2.85-2.21A18,18,0,0,0,114.68,130.28Z"/><path class="cls-1" d="M178.06,124c0-1.14,0-2.13,0-3.13a3.64,3.64,0,0,1,.16-1.37,1.19,1.19,0,0,1,.87-.59,1.17,1.17,0,0,1,.88.57,3.24,3.24,0,0,1,.21,1.36q0,5.49,0,11a6.43,6.43,0,0,1-.12,1.16,4.88,4.88,0,0,1-4.81,4,4.77,4.77,0,0,1-4.78-4.26,26.19,26.19,0,0,1-.06-4.43c.21-3.49,2.89-5.43,6.31-4.64C177.08,123.74,177.44,123.86,178.06,124Zm0,6.18h0a18.38,18.38,0,0,0,0-2.1,2.83,2.83,0,0,0-2.79-2.61,2.73,2.73,0,0,0-2.71,2.67,30.78,30.78,0,0,0,0,4,2.62,2.62,0,0,0,2.65,2.67,2.69,2.69,0,0,0,2.85-2.49A18.38,18.38,0,0,0,178,130.22Z"/><path class="cls-1" d="M132.63,131.27c-.29,1.81.35,2.78,1.62,3.34s2.24.19,3.25-1.07c.51-.63.92-1.46,1.81-.74s.34,1.42-.11,2.08a4.61,4.61,0,0,1-4.64,2.06,4.54,4.54,0,0,1-4-3.68,23.48,23.48,0,0,1,0-6c.34-2.48,2.57-3.93,5.13-3.74a4.74,4.74,0,0,1,4.41,4.36c0,.23,0,.47,0,.7.08,2.59-.05,2.72-2.71,2.73Zm5.14-2.2a2.65,2.65,0,0,0-1.47-3.29,2.68,2.68,0,0,0-3.63,3.29Z"/><path class="cls-1" d="M20.52,131.56a2.55,2.55,0,0,0,1.68,3.05c1.21.51,2.15.17,3.25-1.09.21-.23.32-.6.56-.72a1.4,1.4,0,0,1,1.07-.11c.27.14.6.7.51.92a6,6,0,0,1-1.25,2.15,4.5,4.5,0,0,1-4.78,1,4.6,4.6,0,0,1-3.25-3.93,25.13,25.13,0,0,1,0-5.13,4.67,4.67,0,0,1,5-4.19A4.77,4.77,0,0,1,28,127.85c0,.15,0,.31,0,.46.13,2.78,0,2.94-2.73,3-1.4,0-2.8,0-4.2,0C21,131.32,20.82,131.43,20.52,131.56Zm.09-2.52a14.55,14.55,0,0,0,5.14-.13c-.1-2.32-1-3.46-2.71-3.4S20.49,126.78,20.61,129Z"/><path class="cls-1" d="M149.06,131.59a2.64,2.64,0,0,0,1.74,3,2.59,2.59,0,0,0,3.25-1.12c.14-.18.25-.45.44-.53.39-.15,1-.41,1.19-.25a1.7,1.7,0,0,1,.45,1.34c-.48,1.76-2.84,3.13-4.84,2.91a4.78,4.78,0,0,1-4.37-4.19,24.34,24.34,0,0,1,0-5.12,4.85,4.85,0,0,1,9.66.45,1.76,1.76,0,0,1,0,.23c.11,2.82,0,2.91-2.73,2.93-1.4,0-2.8,0-4.2,0C149.51,131.32,149.37,131.44,149.06,131.59Zm5.39-2.52c-.2-2.48-1.28-3.76-2.94-3.52a3.39,3.39,0,0,0-1.79.92,2.16,2.16,0,0,0-.49,2.6Z"/><path class="cls-1" d="M79.72,131.26c-.19,1.82.37,2.87,1.7,3.37a2.59,2.59,0,0,0,3.26-1.12c.14-.19.24-.48.42-.55.39-.15,1.06-.4,1.2-.24a1.71,1.71,0,0,1,.45,1.37c-.5,1.83-3,3.19-5.12,2.85a4.68,4.68,0,0,1-4-4,21.93,21.93,0,0,1,0-5.37,4.68,4.68,0,0,1,5.13-4.11,4.77,4.77,0,0,1,4.48,4.81c0,.23,0,.46,0,.7,0,2.18-.09,2.27-2.21,2.28C83.26,131.27,81.56,131.26,79.72,131.26ZM85,129c.07-2.24-1-3.59-2.74-3.53s-2.54,1.32-2.42,3.53Z"/><path class="cls-1" d="M34.83,123.48a4.52,4.52,0,0,1,3.9,1.75c.42.54.58,1.25-.09,1.63a1.52,1.52,0,0,1-1.41-.21,3.25,3.25,0,0,0-3.42-.9,1.53,1.53,0,0,0-1.31,1.68,1.44,1.44,0,0,0,1.42,1.31c.85.12,1.72.15,2.55.34a3.81,3.81,0,0,1,3.28,3.72,4,4,0,0,1-3.25,4,5.53,5.53,0,0,1-6-2.12c-.35-.6-.8-1.28-.06-1.89s1.3-.07,1.74.51a3.36,3.36,0,0,0,3.23,1.48c1.3-.13,2-.7,2.15-1.73s-.5-1.74-1.84-2c-.54-.1-1.09-.06-1.64-.11-2.56-.24-3.75-1.38-3.77-3.58a3.8,3.8,0,0,1,3.82-3.91C34.36,123.46,34.6,123.48,34.83,123.48Z"/><path class="cls-1" d="M51.67,130.16c-.06.88-.06,1.74-.18,2.59A4.79,4.79,0,0,1,46.93,137,4.62,4.62,0,0,1,42,133.23a20.59,20.59,0,0,1,0-6,4.37,4.37,0,0,1,4.65-3.75,4.7,4.7,0,0,1,4.81,3.94A25.68,25.68,0,0,1,51.67,130.16Zm-2.12.11a17.83,17.83,0,0,0-.3-2.71,2.72,2.72,0,0,0-2.76-2A2.61,2.61,0,0,0,44,127.87a26.63,26.63,0,0,0,0,4.64,2.71,2.71,0,0,0,5.33.12A21.7,21.7,0,0,0,49.55,130.27Z"/><path class="cls-1" d="M118.34,130.25a25.61,25.61,0,0,1,.17-2.78,4.72,4.72,0,0,1,4.5-4c2.35-.11,4.51,1.19,4.87,3.46a22,22,0,0,1,0,6.48c-.3,2.21-2.58,3.68-4.81,3.59a4.82,4.82,0,0,1-4.58-4,17.17,17.17,0,0,1,0-2.78Zm7.7,0h0a18.19,18.19,0,0,0,0-2.09,2.81,2.81,0,0,0-2.77-2.63A2.69,2.69,0,0,0,120.6,128a23.2,23.2,0,0,0,.06,4.64,2.44,2.44,0,0,0,2.78,2.22,2.65,2.65,0,0,0,2.59-2.49A20.81,20.81,0,0,0,126,130.24Z"/><path class="cls-1" d="M53.85,131.42c0-1.17-.07-2.35,0-3.51a4.86,4.86,0,0,1,9.66-.3c.21,2.64.08,5.3.08,8,0,.71-.35,1.25-1.09,1.26s-1-.58-1.06-1.27c0-.54,0-1.09,0-1.63,0-1.8,0-3.6,0-5.39a2.8,2.8,0,0,0-2.69-2.95A2.68,2.68,0,0,0,56,128.47c-.07,1.95,0,3.9,0,5.86a4.85,4.85,0,0,1-.11,1.62c-.12.36-.67.9-.89.84a2.17,2.17,0,0,1-1.11-.95c-.17-.28-.06-.75-.06-1.14,0-1.1,0-2.19,0-3.28Z"/><path class="cls-1" d="M158.83,131.57c0-1.16-.06-2.34,0-3.5a4.7,4.7,0,0,1,4.66-4.6,4.63,4.63,0,0,1,5,4.21c.21,2.63.09,5.3.07,7.95,0,.69-.36,1.24-1.13,1.2s-1-.61-1-1.31c0-2.11,0-4.21,0-6.32,0-2.31-1-3.63-2.71-3.59-1.43,0-2.87.81-2.74,3.56.07,1.56,0,3.12,0,4.68,0,.47,0,.93,0,1.4,0,.77-.18,1.5-1.06,1.54s-1.08-.71-1.08-1.47v-3.75Z"/><path class="cls-1" d="M23.81,143.6A58.13,58.13,0,0,1,16.05,145a43.66,43.66,0,0,0-6.2,1.27c-2.06.41-4.12.85-6.18,1.25a7,7,0,0,1-2.29.25,1.83,1.83,0,0,1-1.35-1A2.26,2.26,0,0,1,.55,145a3.57,3.57,0,0,1,2.09-.9c2.85-.23,5.72-.23,8.57-.47,2.47-.2,4.93-.6,7.4-.91,1.39,0,2.77,0,4.16,0C23.41,142.71,23.82,142.88,23.81,143.6Z"/><path class="cls-1" d="M110.09,36.78c-.19.3-.39.86-.56.85-1.78-.11-3,1.2-4.6,1.59a24.11,24.11,0,0,0-5,2.22,4.8,4.8,0,0,0-1.29.79,2.83,2.83,0,0,1-3.42.85c0-1.32-.57-2.66.69-4,.48-.51.06-1.81.15-2.73a12,12,0,0,0-2.15-7.6,16.28,16.28,0,0,0-6.67-5.93,2.89,2.89,0,0,0-1.15-.12c-2.17,0-4.35,0-6.59,0-.43.79-.66,1.46.3,2l-4.41,3.17,0,0,.07-1.35h0c.68-.42,1.4-.81,2-1.29a4.55,4.55,0,0,0,.73-1l-1.33-.5-.13-.14c4.89-3.37,12.2-2.19,16.22,2.66a15.65,15.65,0,0,1,3.35,14c-.12.53-.27,1.06-.37,1.59,0,.13.06.29.15.65a9.08,9.08,0,0,0,1.33-.62A36.48,36.48,0,0,1,108.48,37,14.17,14.17,0,0,1,110.09,36.78Z"/><path class="cls-1" d="M89.49,130.25c0-1.71,0-3.42,0-5.13,0-1.36.36-1.5,1.73-1.33.57.07,1.17-.16,1.75-.14a26.16,26.16,0,0,1,3.64.31,1,1,0,0,1,.67,1.47c-.19.32-.85.43-1.32.51-.27,0-.59-.19-.89-.24a2.65,2.65,0,0,0-3.37,2.57c-.11,1.94,0,3.9-.06,5.84,0,1,.58,2.35-1,2.7-.86.2-1.16-.58-1.17-2.82v-3.74Z"/><path class="cls-1" d="M75,28.37c-.29.58-.83,1.18-.8,1.74s-.39,1.14-.45,1.62a4.41,4.41,0,0,0,.52,2.9c1.21,1.58,2.11,3.53,4.66,3.75a8.22,8.22,0,0,0,3.24-.66,6.86,6.86,0,0,0,1.49-.88c.54.8.08,1.25-.44,1.62A6.49,6.49,0,0,1,75,38.22C71,35,71.2,26.67,76.15,23.92l.18.19a2.93,2.93,0,0,0-.94,2.33h0c-1.88,1-2,1.13-1.39,3l.88-1.13Z"/><path class="cls-1" d="M84.4,31c-1.44,1.27.2,2-.09,2.92-.7.74-1.39,1.53-2.15,2.24A2.39,2.39,0,0,1,78.68,36a3.33,3.33,0,0,1,.42-5.17,9.12,9.12,0,0,0,.82-.86Z"/><path class="cls-1" d="M15.91,130.6c0,1.55,0,3.1,0,4.65a2,2,0,0,1-.22,1.07,1,1,0,0,1-1.81-.18,3.14,3.14,0,0,1-.19-1.14c0-3.19,0-6.38,0-9.57a4.1,4.1,0,0,1,0-.7c.1-.7.47-1.27,1.2-1.07a1.65,1.65,0,0,1,.9,1.11,9.68,9.68,0,0,1,0,2.09v3.74Z"/><path class="cls-1" d="M142.38,130.17c0-1.71,0-3.42,0-5.14,0-.64.06-1.31.89-1.4s1.22.61,1.23,1.34c0,3.5,0,7,0,10.51,0,.67-.26,1.32-1,1.32s-1.07-.72-1.07-1.49C142.39,133.6,142.38,131.89,142.38,130.17Z"/><path class="cls-1" d="M23.81,143.6c0-.72-.4-.89-1-.88-1.39,0-2.77,0-4.16,0,1.29-.2,2.58-.45,3.88-.6,3.17-.36,6.34-.74,9.53-1a15.68,15.68,0,0,1,4.32.47A116.18,116.18,0,0,1,23.81,143.6Z"/><path class="cls-1" d="M38.12,52.79a3.26,3.26,0,0,1,.93,0,1.16,1.16,0,0,1,.7.48c1.14,1.9,3.88,2.05,4.7,4.32a4.47,4.47,0,0,0,.79,1c.89,1.16,2.5,1.93,2,3.81,1.63,1.86.63,4.11.89,6.17.09.67-.22,1-.92,1,.39-3.15.47-6.29-1.47-9a38.82,38.82,0,0,0-3.88-4.34C40.71,55,39.39,53.94,38.12,52.79Z"/><path class="cls-1" d="M56.62,9.57c1.4.76,2.67,1.64,2.93,3.39,1.27.63.36,2.18,1.05,2.83,1,.94.65,2,.7,3,0,.82.16,1.63-.66,2.31-.34.29-.22,1.16-.26,1.76s-.41.77-.93.78c.14-.6.27-1.2.43-1.79A12,12,0,0,0,57.65,11.1C57.28,10.61,57,10.08,56.62,9.57Z"/><path class="cls-1" d="M80.08,24.58c.1-.27.19-.77.32-.78,1.48-.09,2.89-.38,4.43.28s3.16,1.11,4.42,2.33c.22.21.69.17,1.11.26v1.72c-.35-.29-.73-.56-1.07-.88A10.61,10.61,0,0,0,80.08,24.58Z"/><path class="cls-1" d="M62.32,24.25c.07-1.33-.58-2.77.78-3.89.24-.2.09-.89.1-1.36l.06-5.37A12.83,12.83,0,0,1,62.32,24.25Z"/><path class="cls-1" d="M63.21,13.31c-.31-.17-.81-.28-.88-.53a8.59,8.59,0,0,0-2.89-4.6,2.4,2.4,0,0,1-.92-2.41A12.2,12.2,0,0,1,63.21,13.31Z"/><path class="cls-1" d="M55.13,29.14l.55-.82c1.87-.93,2.46-2.93,3.69-4.4A3.24,3.24,0,0,1,58,27.36C57.15,28.08,56.75,29.64,55.13,29.14Z"/><path class="cls-1" d="M60.36,27.79c0-1.46.09-2.81,1.86-3.22Z"/><path class="cls-1" d="M76.15,23.92l.55-.39.13.14-.5.44Z"/><path class="cls-1" d="M59.92,28.33l.41-.5Z"/><path class="cls-1" d="M75.36,27.83l-.38.54-.1-.08.44-.5Z"/><path class="cls-1" d="M46.77,29.28l-.56-.36Z"/><path class="cls-1" d="M6.82,55.88l.49-.47Z"/><path class="cls-1" d="M44.77,22.47l.83-3.1,2.85-1.78c-.11-2.26-2.19-1-3.09-1.85,2.23-1,4.06-.7,5.5.61a14.37,14.37,0,0,1,2.86,4.06c-.3.82-.55,1.57-.84,2.3a2.66,2.66,0,0,1-.53.93c-1.5,1.35-3.24,2.24-5.28,1.78-.65-.14-1.18-1-1.66-1.66A5.59,5.59,0,0,1,44.77,22.47Z"/><path class="cls-1" d="M40.73,71.56c-1.15,1.72-2.81,2.07-4.73,1.75a8.29,8.29,0,0,0-.74-1c-1.11-1.14-2.48-2.14-2.07-3.8l2.75-3.57a3.27,3.27,0,0,1-.41-.51c-.15-.31-.26-.64-.39-1,.4-.13,1-.49,1.18-.34,1.38.84,3,1.36,4,2.79a3.12,3.12,0,0,1,.4,1.48C40.74,68.76,40.72,70.16,40.73,71.56Z"/><path class="cls-1" d="M76.33,24.11l.5-.44,1.33.5a4.55,4.55,0,0,1-.73,1c-.64.48-1.36.87-2,1.29A2.93,2.93,0,0,1,76.33,24.11Z"/><path class="cls-1" d="M75.32,27.79l-.44.5L74,29.42c-.56-1.85-.49-2,1.39-3Z"/></g></g></svg>