<svg xmlns="http://www.w3.org/2000/svg" viewBox="0 0 165.01 165.09"><defs><style>.cls-1{fill:#fff;}</style></defs><title>BMW</title><g id="Layer_2" data-name="Layer 2"><g id="Layer_1-2" data-name="Layer 1"><g id="BMW"><path class="cls-1" d="M0,77.37c.31-2.26.57-4.54.94-6.79C5.38,43.5,19.68,23.28,43.57,9.93A77.56,77.56,0,0,1,78.07.27,15.2,15.2,0,0,0,79.69,0H86.3c2.6.31,5.2.6,7.79,1A82.47,82.47,0,1,1,2.14,101.1C1.22,97.09.9,93,.29,88.87.22,88.45.1,88,0,87.63Zm82.39,84.82c43.72,0,79.42-35.54,79.76-78.75C162.49,39.52,127.2,3.38,83.33,3a79.62,79.62,0,1,0-.94,159.23Z"/><path class="cls-1" d="M82.51,158.88C39.87,159,5.43,123.75,6.17,81.19A76.34,76.34,0,1,1,158.81,84.3C157.94,125.11,124.45,159,82.51,158.88Zm1-125.1C56.61,33.37,34.2,54.69,33.73,81.17c-.49,27.35,20.83,49.79,47.65,50.16,27.19.37,49.54-21,49.89-47.59C131.63,56.47,110.35,34.19,83.54,33.78Zm40.95,5.77-.2-.24c2.45-3.22,4.91-6.44,7.37-9.69l-3.17-3.9c-3.53,4.53-7,9-10.41,13.39-2.26,2.9-2.18,2.83,0,5.72,1.09,1.45,2,1.69,3.66.91,3-1.42,6.13-2.56,9.58-4-.52.85-.8,1.31-1.1,1.76-1.8,2.64-3.63,5.25-5.38,7.92a1.72,1.72,0,0,0,0,1.53c.94,1.34,2,2.58,3.13,3.92l18.54-9L143.29,44l-11,5.2-.18-.22,7.09-10.08-3.36-4.17Zm-88.34,17c3.79-4.58,7.47-9,11.13-13.46a4.71,4.71,0,0,0,.64-1.14,5.11,5.11,0,0,0-4.28-7.25,17.55,17.55,0,0,0-3.09.3,2.86,2.86,0,0,1,0-.43A5.89,5.89,0,0,0,37,29c-2.15-.89-3.87,0-5.34,1.51-1.24,1.25-2.36,2.6-3.5,3.94-2.51,3-5,6-7.55,9ZM82.85,24.6c-1.72-4.51-3.3-8.73-5-12.91-.2-.51-.79-1.17-1.24-1.21-1.68-.14-3.38-.06-5.16-.06v20h4V17.63A120.25,120.25,0,0,1,80,29c.53,1.59,1.48,1.62,2.74,1.58s2.46.2,3-1.62C87,25.14,88.56,21.42,90,17.64l.32.06V30.48h4V10.42c-1.46,0-2.78.1-4.09,0s-2.12.4-2.61,1.78C86.13,16.25,84.51,20.27,82.85,24.6Z"/><path class="cls-1" d="M82.53,128.06V82.69H37.16C35.65,60.62,55.75,36.55,82.5,37.1V82.57h45.4C129.05,105.91,108,128.82,82.53,128.06Z"/><path class="cls-1" d="M32.94,47C35.05,44.46,37,42.09,39,39.77A2.55,2.55,0,0,1,43,43c-2,2.43-4,4.8-6.08,7.27Z"/><path class="cls-1" d="M30.42,44.84,26.7,41.73c2-2.38,3.85-4.68,5.8-6.91a2.33,2.33,0,0,1,3.4-.09A2.16,2.16,0,0,1,36.18,38C34.35,40.22,32.45,42.43,30.42,44.84Z"/></g></g></g></svg>