<svg xmlns="http://www.w3.org/2000/svg" viewBox="0 0 185.31 100.74"><defs><style>.cls-1{fill:#fff;}</style></defs><title>Bpost</title><g id="Layer_2" data-name="Layer 2"><g id="Layer_1-2" data-name="Layer 1"><g id="Bpost"><path class="cls-1" d="M0,69.29A75.11,75.11,0,0,1,8,38.73a4.18,4.18,0,0,1,2-2c2.8-1.06,5.67-2,8.56-2.74,1.64-.45,2.08.07,1.56,1.76-1.19,3.94-2.89,7.78-3.59,11.79a41.73,41.73,0,0,0-.38,11.91c.77,6.49,6.41,10.76,13.69,10.86,6.79.09,13-2.2,19-5.15,14.27-7,25.77-17.46,36.17-29.25a105.81,105.81,0,0,0,16.94-25,5.31,5.31,0,0,1,3.59-3c8.74-2.55,17.46-5.19,26.2-7.76a7.19,7.19,0,0,1,1.8,0,6.32,6.32,0,0,1-.19,2,169.87,169.87,0,0,1-14.83,24.71,204.12,204.12,0,0,1-31,34.47C74.33,73.1,60,83.2,43.3,89.64,36.62,92.22,29.77,94,22.51,93.87,8.79,93.61.19,85,0,71.17Z"/><path class="cls-1" d="M23.27,41.28c.07-.51.18-1.63.39-2.72.85-4.43,2.72-7.37,7.76-8.65,11.21-2.83,22.22-6.49,33.33-9.76A13.58,13.58,0,0,1,67.89,20a20.45,20.45,0,0,1-1.09,2.69A65.74,65.74,0,0,1,43.07,47a34,34,0,0,1-9.33,3.7C27.1,52.25,23.06,48.67,23.27,41.28Z"/><path class="cls-1" d="M91.38,80c0-3.37,0-6.73,0-10.1,0-1.27,0-2.45,1.69-2,1.34.34,3.51-1,3.81,1.71.18,1.69-.07,3.86.88,4.89.81.87,3.06.3,4.65.55a8.18,8.18,0,0,1,7.32,7.74c.44,5.6-1.4,8.74-6,10.26-3.71,1.23-7.39.62-11.06-.22-1.29-.3-1.28-1.26-1.26-2.33,0-3.49,0-7,0-10.47Zm5.5,4.11v2.6c0,.25,0,.5,0,.75.18,2,.83,2.56,2.86,2.36,2.39-.23,4.08-2,4.45-4.74.39-2.87-.85-5.33-3.09-6.14-2.81-1-4.14-.1-4.22,2.93C96.86,82.62,96.88,83.36,96.88,84.11Z"/><path class="cls-1" d="M113.21,87.94c0-3.12.09-6.25,0-9.37-.07-2,.81-3.06,2.71-3.31,3.72-.5,7.46-1,11,.74a8.77,8.77,0,0,1,4.89,9c-.41,3.91-2.14,6.91-6.18,8a17.56,17.56,0,0,1-3.29.64c-3.49.3-3.49.27-3.64,3.86-.13,3.17-.56,3.46-3.49,3.13-1.72-.19-2-1.21-2-2.57V87.94Zm5.48-3.71h0c0,1,0,2,0,3,.16,2.29,1.18,3,3.42,2.55A5,5,0,0,0,126,85.29c.36-2.76-.63-5.24-2.47-6.18-2.79-1.42-4.77-.24-4.84,2.88C118.68,82.74,118.69,83.48,118.69,84.23Z"/><path class="cls-1" d="M134.28,84.22c0-5.85,3.74-9.41,9.78-9.38s9.74,3.57,9.77,9.45c0,5.54-4.09,9.49-9.86,9.47S134.26,90,134.28,84.22Zm13.7.09a16.72,16.72,0,0,0-.29-2.56c-.44-1.66-1.33-2.93-3.27-3a3.6,3.6,0,0,0-4,2.52,8,8,0,0,0,.05,6.15,3.62,3.62,0,0,0,3.79,2.38,3.52,3.52,0,0,0,3.44-2.87A21.57,21.57,0,0,0,148,84.31Z"/><path class="cls-1" d="M163.85,74.58a35,35,0,0,1,4.84,1c.6.2,1,1.12,1.45,1.71-.71.57-1.35,1.43-2.15,1.63s-2-.37-2.94-.22-2.43.56-2.73,1.26c-.54,1.29.79,1.88,1.87,2.29,1.28.49,2.6.88,3.87,1.4a4.51,4.51,0,0,1,3.13,4.61A4.9,4.9,0,0,1,167.63,93a15.79,15.79,0,0,1-9.94.13C157,92.9,156,92,156,91.61c.27-1.16.78-2.48,2.42-2.33.74.07,1.45.41,2.19.46a8.56,8.56,0,0,0,2.95-.11,2.43,2.43,0,0,0,1.33-1.53c.11-.41-.39-1.21-.84-1.49a24.69,24.69,0,0,0-2.74-1.15,15.83,15.83,0,0,1-3.62-1.85,4.4,4.4,0,0,1,.83-7.49C160.23,75.2,162.3,75,163.85,74.58Z"/><path class="cls-1" d="M175.56,84.18c0-2.25.88-4.84-2-6.13-.2-.09-.22-.68-.25-1-.06-.68,3.55-6,4.22-6.29,2.76-1.07,3.46-.71,4,2.38.21,1.18.68,1.81,1.88,1.89s1.9.51,1.91,1.81-.5,1.92-1.74,1.95c-1.67,0-2.08,1.05-2,2.48s0,2.75,0,4.13c0,1.92-.15,3.82,2.62,4.07.44,0,1.18,1.37,1.06,2a3.16,3.16,0,0,1-1.61,2.1A5.76,5.76,0,0,1,176,89,43.09,43.09,0,0,1,175.56,84.18Z"/></g></g></g></svg>