<svg xmlns="http://www.w3.org/2000/svg" viewBox="0 0 122.88 128.6"><defs><style>.cls-1{fill:#fff;}</style></defs><title>Business-Markers</title><g id="Layer_2" data-name="Layer 2"><g id="Layer_1-2" data-name="Layer 1"><g id="wLInBY.tif"><path class="cls-1" d="M0,111.48a5.88,5.88,0,0,1,1.65-1.22c1.31-.4,2.1,0,2.86,1.23,1.27,2,2.5,4.05,3.75,6.07.21.34.45.65.76,1.1.37-.54.66-1,.93-1.38,1.25-2,2.48-4.06,3.76-6.07a2.38,2.38,0,0,1,2.86-1A2,2,0,0,1,18,112.4c0,4.51,0,9,0,13.54a3.13,3.13,0,0,1-.13.91,2,2,0,0,1-2.13,1.44A1.9,1.9,0,0,1,14,126.41c0-.72,0-1.45,0-2.18V117.6l-1.38,2.09c-.68,1-1.31,2.11-2,3.11a1.84,1.84,0,0,1-3.22,0c-.88-1.22-1.65-2.51-2.48-3.76-.21-.33-.46-.63-.88-1.22v8.55a1.86,1.86,0,0,1-1.26,1.79,1.88,1.88,0,0,1-2.13-.46c-.22-.21-.41-.43-.61-.65Z"/><path class="cls-1" d="M0,90.31A2.73,2.73,0,0,1,2.58,89c2.06.09,4.14,0,6.2,0a8,8,0,0,1,2.7.53,4.33,4.33,0,0,1,1.45,7.24,4.94,4.94,0,0,1-.95.56l1.1.65a4.24,4.24,0,0,1,2.17,4.3,4.09,4.09,0,0,1-2.73,3.79,10,10,0,0,1-3.15.67c-2.37.1-4.76,0-7.13.07-1,0-1.54-.59-2.24-1Zm4.05,13.06c1.78,0,3.48.07,5.17,0,1.35-.07,2-.82,2-1.89s-.74-1.76-2.09-1.82c-1.68-.07-3.37,0-5.11,0Zm0-7.08c1.68-.08,3.22-.05,4.74-.25a1.53,1.53,0,0,0,1.5-1.67,1.58,1.58,0,0,0-1.5-1.68A27.73,27.73,0,0,0,4,92.55Z"/><path class="cls-1" d="M114.85,128.6c-.54-.2-1.11-.38-1.64-.62a29.24,29.24,0,0,1-3.5-1.62,1.82,1.82,0,0,1-.61-2.68,2,2,0,0,1,2.64-.46,17.85,17.85,0,0,0,3.37,1.47,5.61,5.61,0,0,0,2.72-.19,1.68,1.68,0,0,0,.94-1.24,1.76,1.76,0,0,0-.8-1.33,16.79,16.79,0,0,0-2.76-1c-.83-.27-1.7-.45-2.52-.77a4.67,4.67,0,0,1-3.39-4.83,5.12,5.12,0,0,1,3.66-4.88,9.69,9.69,0,0,1,8.2,1A1.9,1.9,0,0,1,122,114a2,2,0,0,1-2.57.77,15.55,15.55,0,0,0-2-.87,10.52,10.52,0,0,0-2.74-.24,1.4,1.4,0,0,0-1.37,1.26,1.37,1.37,0,0,0,1,1.54c.93.33,1.87.6,2.8.91s2,.63,2.91,1a4.37,4.37,0,0,1,2.74,4.31,4.91,4.91,0,0,1-2.67,4.73,16.49,16.49,0,0,1-2.64.81c-.27.08-.52.2-.78.3Z"/><path class="cls-1" d="M74.41,19.19A20.55,20.55,0,0,0,40.79,30.33a19.79,19.79,0,0,0,3.14,15.83C49.36,54,54.86,61.79,60.33,69.59a6.65,6.65,0,0,0,.56.65c9-12.86,18-25.65,27.1-38.69a24.45,24.45,0,0,1-1.33,12.16,29.65,29.65,0,0,1-3.13,6.21C76.21,60.53,68.77,71.07,61.37,81.63c-.14.21-.31.41-.56.72-1.05-1.48-2.06-2.91-3.06-4.34Q48.12,64.27,38.5,50.51a27.32,27.32,0,0,1,9.21-39.9c9.93-5.33,19.82-4.53,29.21,1.8.51.35,1,.73,1.5,1.09Z"/><path class="cls-1" d="M74.41,19.19l4-5.69C81.21,9.58,84,5.67,86.76,1.72A3.49,3.49,0,0,1,89.54,0a3.24,3.24,0,0,1,3.17,1.56,3.24,3.24,0,0,1,0,3.67c-1.08,1.64-2.23,3.24-3.35,4.85l-25.24,36-3.29,4.7c-.65-.9-1.25-1.72-1.83-2.55q-5-7.07-9.9-14.13a3.55,3.55,0,0,1-.67-3.21,3.33,3.33,0,0,1,2.73-2.47,3.25,3.25,0,0,1,3.39,1.43c1.36,1.89,2.67,3.82,4,5.72.71,1,1.44,2,2.25,3.14,1.09-1.53,2.1-3,3.1-4.38Q68.93,27.19,74,20A9,9,0,0,0,74.41,19.19Z"/><path class="cls-1" d="M63.05,96.31c0,2.54,0,5.07,0,7.61a8,8,0,0,1-.15,1.69A1.84,1.84,0,0,1,61,107.07a1.91,1.91,0,0,1-1.87-1.74,6.74,6.74,0,0,1,0-.78c0-4.35,0-8.71,0-13.06,0-1.56.32-2.12,1.37-2.46a2.66,2.66,0,0,1,3,1c2.06,2.66,4.09,5.34,6.13,8,.37.49.75,1,1.32,1.71,0-.62.07-1,.07-1.35,0-2.28,0-4.56,0-6.84a7.35,7.35,0,0,1,0-.94,1.94,1.94,0,0,1,2-1.73A1.9,1.9,0,0,1,75,90.62a16.67,16.67,0,0,1,0,1.87q0,6,0,12c0,1.47-.37,2.14-1.41,2.47a2.35,2.35,0,0,1-2.72-1l-6.71-8.77-.73-1Z"/><path class="cls-1" d="M103.39,121.69l2.41,3c1,1.28,1.09,2.41.2,3.17s-2.25.58-3.26-.61a46,46,0,0,1-2.89-3.66,2.31,2.31,0,0,0-2.46-1.15,12.55,12.55,0,0,1-1.52,0c0,1.29,0,2.47,0,3.65,0,1.38-.7,2.15-1.87,2.21a2,2,0,0,1-2.12-2.15q0-6.84,0-13.69a2,2,0,0,1,2.23-2.21c2.17,0,4.35,0,6.53,0l.15,0c3.14.21,5.3,1.69,5.84,4.23C107.24,117.4,106.63,120,103.39,121.69ZM96,118.9c1.13,0,2.11,0,3.08,0a9,9,0,0,0,2.14-.25,2.16,2.16,0,0,0,1.57-2.52,2.13,2.13,0,0,0-1.92-2.1c-1.62-.12-3.26,0-4.95,0v4.16C95.88,118.34,95.91,118.54,96,118.9Z"/><path class="cls-1" d="M46.9,122.5H43.84c0,1.3,0,2.53,0,3.76a2,2,0,0,1-3.07,1.68,2.49,2.49,0,0,1-.88-1.67c-.07-4.67-.06-9.33,0-14a1.77,1.77,0,0,1,1.75-2,68.22,68.22,0,0,1,8.22.19A5.12,5.12,0,0,1,54.69,115a5.81,5.81,0,0,1-2.77,6.38c-.17.1-.33.22-.57.38l1.78,2.22c.23.28.48.54.7.83.91,1.18,1,2.32.11,3a2.13,2.13,0,0,1-3.14-.48C49.45,125.76,48.19,124.12,46.9,122.5Zm-3-3.79a1.94,1.94,0,0,0,.3.17c.92,0,1.85,0,2.78,0a8.79,8.79,0,0,0,2.12-.25,2.28,2.28,0,0,0,1.63-2.5A2.22,2.22,0,0,0,48.65,114c-1.57-.11-3.15,0-4.76,0Z"/><path class="cls-1" d="M79.38,120.87v3.68h6.7a10.87,10.87,0,0,1,1.4,0,1.73,1.73,0,0,1,1.58,1.79,1.65,1.65,0,0,1-1.47,1.72,5.61,5.61,0,0,1-1.09.06H78.1c-2.23,0-2.78-.54-2.78-2.71V112.68c0-1.79.63-2.43,2.42-2.44q4.52,0,9,0c1.19,0,1.82.4,2.11,1.23A1.8,1.8,0,0,1,87,113.82c-1.86.05-3.73,0-5.6,0H79.43v3.5h5.31a10.86,10.86,0,0,1,1.4,0,1.69,1.69,0,0,1,1.64,1.87,1.58,1.58,0,0,1-1.71,1.61c-1.92,0-3.84,0-5.76,0Z"/><path class="cls-1" d="M61.89,117.89c2.48-2.44,4.69-4.62,6.92-6.78a4.13,4.13,0,0,1,1.24-.88,1.76,1.76,0,0,1,2.19.67,1.8,1.8,0,0,1-.07,2.17,10.63,10.63,0,0,1-1.2,1.22l-4.08,3.82,5,6.28a6.34,6.34,0,0,1,.71,1,1.91,1.91,0,0,1-.52,2.5,2,2,0,0,1-2.57-.13,10.26,10.26,0,0,1-1-1.2l-4.44-5.81a24.36,24.36,0,0,0-1.85,1.74,2,2,0,0,0-.32,1.13c0,.82,0,1.66,0,2.49a2,2,0,0,1-2.09,2.17,1.9,1.9,0,0,1-1.9-2.18q0-6.92,0-13.85a2,2,0,0,1,1.93-2.17,2,2,0,0,1,2.06,2.22C61.92,114.07,61.89,115.83,61.89,117.89Z"/><path class="cls-1" d="M82.51,92.55v3.62h5.3c.42,0,.83,0,1.25,0,1.2,0,1.9.72,1.87,1.79a1.71,1.71,0,0,1-1.84,1.68c-1.81,0-3.63,0-5.44,0H82.52v3.73h3.4c1.5,0,3,0,4.5,0a1.63,1.63,0,0,1,1.76,1.73,1.55,1.55,0,0,1-1.6,1.72q-5.2.06-10.41,0c-1.13,0-1.72-.8-1.73-2.13,0-4.5,0-9,0-13.51,0-1.45.66-2.11,2.07-2.12q4.81,0,9.63,0a1.72,1.72,0,0,1,1.94,1.74c0,1-.7,1.72-1.92,1.73-2,0-4,0-6.06,0Z"/><path class="cls-1" d="M17.38,95.65c0-1.51,0-3,0-4.51s.68-2.24,1.95-2.25,2,.8,2,2.27c0,2.48,0,5,0,7.46a10.35,10.35,0,0,0,.15,2,3.27,3.27,0,0,0,3.4,2.8c2.15.06,3.33-.73,3.8-2.64a9.08,9.08,0,0,0,.23-2.15q0-3.81,0-7.62a1.89,1.89,0,0,1,1.19-2,2,2,0,0,1,2.77,1.6c0,3.57.07,7.16-.25,10.71-.27,3-2.22,4.93-5.22,5.6a10.66,10.66,0,0,1-5.38-.17,6.49,6.49,0,0,1-4.62-6.16c-.1-1.65,0-3.31,0-5Z"/><path class="cls-1" d="M32.75,124.25H25l-1.18,2.69A2,2,0,0,1,22,128.29a1.82,1.82,0,0,1-1.95-2.18,4.85,4.85,0,0,1,.31-.88q2.94-6.65,5.88-13.31A2.81,2.81,0,0,1,28.49,110c1.41-.19,2.3.37,3,1.9q2.81,6.3,5.59,12.6c.15.33.32.66.44,1a1.93,1.93,0,0,1-.86,2.66A2,2,0,0,1,34,127C33.52,126.14,33.17,125.22,32.75,124.25Zm-3.91-9.32-2.31,5.56h4.66Z"/><path class="cls-1" d="M116.38,107.17a11.44,11.44,0,0,1-6.29-1.77c-1.25-.81-1.63-1.85-1-2.84s1.75-1.12,3-.39a2.42,2.42,0,0,0,.4.25,21.54,21.54,0,0,0,3.18,1.14,4.26,4.26,0,0,0,2.25-.27,1.39,1.39,0,0,0,.14-2.58,16.13,16.13,0,0,0-2.75-1c-.88-.29-1.8-.49-2.66-.83a4.44,4.44,0,0,1-3.2-4.62,5,5,0,0,1,3.32-4.93,9,9,0,0,1,6.24,0,10.9,10.9,0,0,1,2.37,1.11,1.84,1.84,0,0,1,.67,2.45,1.9,1.9,0,0,1-2.42.81,17.28,17.28,0,0,0-2-.89,11.9,11.9,0,0,0-2.73-.3,1.44,1.44,0,0,0-1.5,1.31,1.41,1.41,0,0,0,1.07,1.53c.91.34,1.86.6,2.79.91s2,.62,2.92,1a4.43,4.43,0,0,1,2.73,4.33,5.06,5.06,0,0,1-2.58,4.65A7.72,7.72,0,0,1,116.38,107.17Z"/><path class="cls-1" d="M42.23,107.41a14.62,14.62,0,0,1-5.69-1.8,5.4,5.4,0,0,1-1.13-.81,1.77,1.77,0,0,1-.28-2.15,1.73,1.73,0,0,1,2.1-.89,8.91,8.91,0,0,1,1.5.78,6.32,6.32,0,0,0,4.75.94c.76-.18,1.36-.53,1.45-1.39s-.48-1.33-1.21-1.6-1.66-.55-2.49-.83-1.88-.57-2.8-.92a4.29,4.29,0,0,1-2.94-4,4.89,4.89,0,0,1,2.36-4.9,8.07,8.07,0,0,1,2.9-1A10,10,0,0,1,47,90.1a2,2,0,0,1,1.06,2.71c-.54,1-1.55,1.18-2.84.63a17.48,17.48,0,0,0-3.06-1,3.24,3.24,0,0,0-1.81.21,1.34,1.34,0,0,0-.24,2.45,10.64,10.64,0,0,0,2.16.84c1.22.41,2.48.72,3.67,1.22a4.36,4.36,0,0,1,3,4.16c.06,2.21-.66,4-2.73,5A26.24,26.24,0,0,1,42.23,107.41Z"/><path class="cls-1" d="M100.4,107.16a10.8,10.8,0,0,1-6.15-2.08,1.75,1.75,0,0,1-.65-2.32,1.73,1.73,0,0,1,2-1,10.89,10.89,0,0,1,1.25.59,29.93,29.93,0,0,0,3.31,1.24,4.4,4.4,0,0,0,1.83-.1,1.49,1.49,0,0,0,1.42-1.41,1.43,1.43,0,0,0-1.11-1.51c-.87-.32-1.76-.59-2.64-.88s-1.87-.59-2.79-.93c-4-1.49-3.62-7-.76-8.74a9.33,9.33,0,0,1,3.32-1.16,9.62,9.62,0,0,1,6,1.22c1.29.7,1.71,1.77,1.14,2.79s-1.56,1.15-2.85.58a17.74,17.74,0,0,0-2.76-1,4.2,4.2,0,0,0-1.69,0A1.43,1.43,0,0,0,99,95.25c1,.36,2,.62,2.94,1s2.14.74,3.17,1.21c3.35,1.55,2.88,6.76.42,8.42A8.44,8.44,0,0,1,100.4,107.16Z"/><path class="cls-1" d="M55.58,98.1c0,2,0,4,0,6.06a6.15,6.15,0,0,1-.15,1.54,2,2,0,0,1-3.73.06,5.63,5.63,0,0,1-.19-1.53q0-6.23,0-12.44a6.39,6.39,0,0,1,.13-1.38,1.9,1.9,0,0,1,2-1.52,1.87,1.87,0,0,1,1.82,1.6,6.41,6.41,0,0,1,.08,1.24C55.59,93.85,55.58,96,55.58,98.1Z"/></g></g></g></svg>