<svg xmlns="http://www.w3.org/2000/svg" viewBox="0 0 198.34 52.86"><defs><style>.cls-1{fill:#fff;}</style></defs><title>Carglass</title><g id="Layer_2" data-name="Layer 2"><g id="Layer_1-2" data-name="Layer 1"><g id="Carglass"><path class="cls-1" d="M198.34,30.82a3.2,3.2,0,0,1-2.51,1.24,2.79,2.79,0,0,1-2.4-1.87,2.67,2.67,0,0,1,1.21-3,2.52,2.52,0,0,1,3,.26c.25.22.46.48.69.72ZM196,27.2a2.23,2.23,0,0,0-2.37,2.21,2.3,2.3,0,0,0,2.27,2.35,2.27,2.27,0,0,0,2.31-2.21A2.18,2.18,0,0,0,196,27.2Z"/><path class="cls-1" d="M86.87,0h18.85V21.31H86.87Z"/><path class="cls-1" d="M125.4,21.34H106.54V0H125.4Z"/><path class="cls-1" d="M126.21,21.34V0h32.73C148,7.18,137.14,14.21,126.21,21.34Z"/><path class="cls-1" d="M68.9,43.73c2,.55,2.68,2.18,3.61,3.55.71,1,1.39,2.11,2.15,3.12.54.71,1.18,1.34,1.78,2H68c.92-.92.52-1.84.06-2.71a16.76,16.76,0,0,0-1.29-2.11c-2-2.67-4.42-3.6-8.09-3.13,0,.74,0,1.51,0,2.27s0,1.6,0,2.4c.06,1.6.33,2.13,1.72,3.32h-8.3c.42-.77.87-1.53,1.25-2.33a2.7,2.7,0,0,0,.13-1.07q0-6.73,0-13.48a3.47,3.47,0,0,0-1.74-3.36,4.51,4.51,0,0,1,.47-.08c4.9,0,9.81,0,14.72.12a18.36,18.36,0,0,1,3.52.46,5.12,5.12,0,0,1,4.23,4.54,5.19,5.19,0,0,1-3.3,5.64C70.66,43.19,69.91,43.39,68.9,43.73ZM58.67,41c2.57,0,5,0,7.51,0a3.7,3.7,0,0,0,1-.19,2.62,2.62,0,0,0-.39-5.21c-2.65-.13-5.3-.1-7.95-.13,0,0-.08.05-.15.1Z"/><path class="cls-1" d="M95.43,43.75c-2.57.26-5.09-.43-7.68.62.43-1.21.78-2.37,1.27-3.46.12-.26.71-.43,1.08-.43,3.53,0,7.07,0,10.46,0-.07.93-.18,1.85-.19,2.76,0,2.53,0,5.06,0,7.59v.92c-2.63-.66-5,.58-7.42.86a21.3,21.3,0,0,1-8.67-.39c-4.53-1.34-7.26-4.63-7.45-9a10.14,10.14,0,0,1,6.62-10.32,16.4,16.4,0,0,1,7-1.15c3,.18,6,.48,9.08.74l-1.45,4.65a15.34,15.34,0,0,0-9.2-1.83,6.76,6.76,0,0,0-6.44,6.92,11.37,11.37,0,0,0,.22,2.61,5.42,5.42,0,0,0,5.07,4.39,16.47,16.47,0,0,0,4.38-.1c2.21-.34,3.21-1.58,3.34-3.8C95.45,44.85,95.43,44.38,95.43,43.75Z"/><path class="cls-1" d="M30.25,52.41H22.64C26.32,45.82,29.48,39,33,32.17h7.48a10.66,10.66,0,0,0,.4,1.31c2.4,5.11,4.79,10.23,7.23,15.32.59,1.22,1.35,2.36,2.07,3.59H42.72c1.09-1.22.69-2.44,0-3.63a1,1,0,0,0-.68-.43c-3.8,0-7.59,0-11.39,0a1,1,0,0,0-.71.42A2.76,2.76,0,0,0,30.25,52.41ZM32,44.48h8.86l-4.3-9.63Z"/><path class="cls-1" d="M131.7,52.34h-7.46c1.69-3.32,3.42-6.66,5.11-10s3.41-6.66,5.08-10.18H142a7.66,7.66,0,0,0,.32,1.21c2.41,5.16,4.82,10.32,7.28,15.46.57,1.2,1.34,2.3,2,3.5H144.2c1.1-1.19.7-2.39,0-3.55a1,1,0,0,0-.75-.47c-3.77,0-7.53,0-11.3,0a1.12,1.12,0,0,0-.81.51A2.81,2.81,0,0,0,131.7,52.34Zm10.64-7.89L138,34.79c-1.57,3.32-3.05,6.45-4.56,9.66Z"/><path class="cls-1" d="M152.43,46.94l1.86.86a16.67,16.67,0,0,0,9.52,1.32,5.23,5.23,0,0,0,1.53-.52,2.1,2.1,0,0,0,1.14-2.12,1.9,1.9,0,0,0-1.42-1.84c-1.11-.31-2.27-.44-3.4-.66-1.74-.36-3.51-.61-5.2-1.13a4.82,4.82,0,0,1-3.68-3.71,5.32,5.32,0,0,1,2.69-5.83,12.9,12.9,0,0,1,7.32-1.57c2.11.09,4.21.36,6.32.53.5,0,1,0,1.59,0l-1.13,4.59a17.58,17.58,0,0,0-8-1.56,9.19,9.19,0,0,0-2.27.42,1.83,1.83,0,0,0-1.51,1.74c0,.77.53,1.36,1.63,1.59s2.5.37,3.74.62a46.37,46.37,0,0,1,4.66,1.1,5.27,5.27,0,0,1,4,4.72A5.68,5.68,0,0,1,169,51.06a12.33,12.33,0,0,1-7.4,1.79c-2.09-.07-4.18-.25-6.26-.36-.49,0-1,0-1.59.08Z"/><path class="cls-1" d="M174.58,52.49c-.39-1.72-.8-3.55-1.24-5.54l1.9.88a16.66,16.66,0,0,0,9.52,1.28,4.8,4.8,0,0,0,1.58-.59,2.06,2.06,0,0,0,1-2.18,1.85,1.85,0,0,0-1.38-1.7c-1.12-.3-2.28-.44-3.41-.67-1.74-.35-3.51-.59-5.2-1.11a4.77,4.77,0,0,1-3.77-4.4,5.32,5.32,0,0,1,3-5.27,13,13,0,0,1,7.11-1.45c2.09.09,4.16.35,6.25.52.52,0,1.06,0,1.68,0-.38,1.52-.75,3.06-1.14,4.61a17.17,17.17,0,0,0-8.11-1.56,10.1,10.1,0,0,0-2.69.62,1.52,1.52,0,0,0-1,1.57,1.43,1.43,0,0,0,1.16,1.38c1.38.32,2.79.49,4.17.78,1.56.33,3.14.63,4.66,1.1a5.26,5.26,0,0,1,4,4.75A5.63,5.63,0,0,1,190,51a12.26,12.26,0,0,1-7.53,1.86c-2.06-.07-4.12-.24-6.18-.36C175.75,52.47,175.24,52.49,174.58,52.49Z"/><path class="cls-1" d="M19.94,37.38a10.9,10.9,0,0,0-8.72-1.78,6.67,6.67,0,0,0-5.6,7.66C6,46.89,8.15,48.9,11.8,49.14A15.91,15.91,0,0,0,20,47.45l.87-.4v5.26c-2.16-.43-4.27.1-6.4.27A17.71,17.71,0,0,1,5.7,51.47a9.3,9.3,0,0,1-5.62-10c.57-5,3.86-8.23,9.2-9.2a29.27,29.27,0,0,1,9,.08c1.12.14,2.24.25,3.42.39Z"/><path class="cls-1" d="M103.47,32.17h8.31c-1.62,1-1.71,2.49-1.72,4,0,4.06,0,8.11,0,12.17,0,.2,0,.4.06.63a4.14,4.14,0,0,0,.55.07H117a10.74,10.74,0,0,0,6-1.64c-.18,1.77-1.39,3.23-1.11,5H103.45c1.59-.94,1.72-2.39,1.73-3.85q0-6.24,0-12.47C105.18,34.64,105,33.23,103.47,32.17Z"/><path class="cls-1" d="M66.36,21.35H33.87l-.08-.13L66.36,0Zm-.74-20L36,20.63H65.62Z"/><path class="cls-1" d="M86.05,21.32H67.14V0H86.05ZM67.86,10.67c0,3,0,6,0,9,0,.73.17,1,.93,1,5.22,0,10.44,0,15.65,0,.68,0,.94-.14.93-.89q0-9.06,0-18.13c0-.66-.15-.9-.85-.9Q76.6.75,68.7.7c-.71,0-.86.25-.85.9C67.88,4.62,67.86,7.65,67.86,10.67Z"/><path class="cls-1" d="M196.6,29.55l.78,1.24c-1-.12-.93-1.51-2-1.14l-.11,1.07-.14,0a1,1,0,0,1-.18-.39A9.21,9.21,0,0,1,195,29c0-.34.18-1,.27-1a3.18,3.18,0,0,1,1.74.3C197.58,28.73,197.08,29.2,196.6,29.55Zm-1.2-.19c.54-.17.95-.29,1.35-.44,0,0,0-.37,0-.39-.41-.12-.83-.2-1.31-.31Z"/></g></g></g></svg>