<svg xmlns="http://www.w3.org/2000/svg" viewBox="0 0 125.89 146.47"><defs><style>.cls-1{fill:#fff;}</style></defs><title>CM</title><g id="Layer_2" data-name="Layer 2"><g id="Layer_1-2" data-name="Layer 1"><path class="cls-1" d="M41.89,0h3.88c.83.17,1.67.36,2.51.5A33.17,33.17,0,0,1,64.69,8c.31.27.81.55.84.86.11,1.12,1.33.85,1.77,1.54.09.14.69.09.94-.06a5.43,5.43,0,0,0,1-.95,32.46,32.46,0,0,1,20.64-9A32.06,32.06,0,0,1,102.05,2a30.85,30.85,0,0,1,10.6,5.73A35.07,35.07,0,0,1,120.53,17a29.52,29.52,0,0,1,4.3,15c.13,20.36.06,40.72,0,61.08,0,.51-.08,1-.12,1.53H100.82c0-.7-.08-1.27-.08-1.85q0-13.11,0-26.22c0-11,0-22.06,0-33.09a12.24,12.24,0,0,0-4-9.39,13,13,0,0,0-11.09-3.23,8.67,8.67,0,0,0-2.66.6c-1.07.53-2,1.38-3,2S78.47,25.51,77.16,26c-.1,0-.15.27-.2.43-.21.59-.45,1.17-.61,1.78a21.77,21.77,0,0,0-1,4.42c-.14,4-.06,8,0,12A9.26,9.26,0,0,0,75.51,46h15.9V69.92h-16c-.07.81-.19,1.54-.19,2.27,0,6.81,0,13.61,0,20.42v1.83c-2.25.43-22.85.32-24.14-.13V82.05c0-3.4,0-6.8,0-10.21,0-1.66-.18-1.83-1.8-1.85s-3.17,0-4.75,0c-3.17,0-6.35.14-9.58-.19V46.13c.9-.09,1.7-.23,2.5-.23,3.87,0,7.74,0,11.62,0,.61,0,1.23-.1,1.85-.15a11.14,11.14,0,0,0,.15-1.23c0-4,0-8,0-12a10.21,10.21,0,0,0-.34-2.25,12.58,12.58,0,0,0-13.48-9.63,12.31,12.31,0,0,0-8.16,4c-1.22,1.34-2.5,2.8-2.76,4.76a44.62,44.62,0,0,0-.65,5.74c-.05,18.89,0,37.78,0,56.67,0,.92-.11,1.83-.17,2.72-3.59.33-22.59.18-23.84-.17C1.33,91.91,1.45,4.22,1.79,3c2.37-.3,21.32-.21,22.71.14l.18,4A28.16,28.16,0,0,1,37.7,1C39.12.81,40.5.35,41.89,0Z"/><path class="cls-1" d="M0,110.89c.24-.59.47-1.18.72-1.77a8.07,8.07,0,0,1,10-4.82c.91.3,1.4.74,1.29,1.76-.07.74,0,1.5,0,2.46l-1.4-.79a4.42,4.42,0,0,0-6.14,1.5,6.23,6.23,0,0,0-.34,6.51,4.51,4.51,0,0,0,6.54,2c.35-.19.69-.41,1.17-.71a10.78,10.78,0,0,1,.09,3.43,7.67,7.67,0,0,1-10.83-3.13c-.45-.81-.76-1.7-1.13-2.55Z"/><path class="cls-1" d="M13.79,128.81h2.36c1,5.63,1.67,11.29,2.56,17.09H15.38l-1.25-9.36-.31-.09c-.22.54-.46,1.07-.66,1.62-.85,2.37-1.72,4.73-2.54,7.11-.23.68-.49,1.2-1.57,1l-3.44-9.72H5.29l-1.42,9.5H.59c.81-5.75,1.86-11.35,2.73-17l1.15-.17a1.41,1.41,0,0,1,1.68,1.13c1,2.75,2,5.48,3.09,8.22.12.32.29.62.58,1.25A39.35,39.35,0,0,0,11.89,134C12.55,132.33,13.14,130.62,13.79,128.81Z"/><path class="cls-1" d="M17.49,110.82h6v-6.35h3.26V121H23.62c-.3-2.3,0-4.69-.21-7.14-1.9-.37-3.74-.08-5.73-.2-.34,2.5,0,4.9-.25,7.37h-3c-.36-1.2-.47-14.17-.12-16.56h3.17Z"/><path class="cls-1" d="M109.54,112.15l6.57,8.91a33.44,33.44,0,0,1-3.73,0c-.42,0-.87-.54-1.16-.94-1.3-1.74-2.54-3.51-3.81-5.27-.16-.22-.36-.41-.82-.94V121h-3.1c-.35-1.25-.45-14.24-.11-16.59h3.19V111a12.27,12.27,0,0,0,1-1c1.08-1.45,2.2-2.89,3.2-4.41a2.43,2.43,0,0,1,2.48-1.26c.68.07,1.37,0,2.48,0C113.68,107.23,111.44,109.51,109.54,112.15Z"/><path class="cls-1" d="M45.33,129.29h3.09c0,.62.09,1.19.09,1.75,0,2.93,0,5.87.08,8.8a6.53,6.53,0,0,0,.57,2.36,2.59,2.59,0,0,0,4.64-.13,10.22,10.22,0,0,0,.51-2.91c.06-2.7,0-5.4,0-8.09,0-.57.06-1.14.09-1.75h3.18c0,.54.11,1,.11,1.44,0,2.82,0,5.63,0,8.45a11.08,11.08,0,0,1,0,1.41c-.57,4.6-3.36,6.3-7.58,5.74a5,5,0,0,1-4.39-3.78,11.32,11.32,0,0,1-.5-2.93c-.07-3.17,0-6.34,0-9.5A6.51,6.51,0,0,1,45.33,129.29Z"/><path class="cls-1" d="M20.27,129.29h3.1c0,.54.12,1,.12,1.54,0,2.7,0,5.39,0,8.08a10.78,10.78,0,0,0,.45,2.93,2.37,2.37,0,0,0,2.38,1.73,2.39,2.39,0,0,0,2.54-1.76,9.46,9.46,0,0,0,.43-2.75c.06-2.63,0-5.27,0-7.9v-1.83h3.2a6.59,6.59,0,0,1,.18,1.11c0,2.93.05,5.86,0,8.79a13.5,13.5,0,0,1-.55,3.45,5.17,5.17,0,0,1-5,3.76,11.89,11.89,0,0,1-1.58,0,5.28,5.28,0,0,1-4.88-3.67,5.85,5.85,0,0,1-.43-1.87C20.25,137.09,20.27,133.3,20.27,129.29Z"/><path class="cls-1" d="M29.33,104.35c2.23,0,4.43-.29,6.61.29a4.17,4.17,0,0,1,3.29,3.88,5,5,0,0,1-1.9,5c-.37.27-.8.46-1.3.75l4.55,6.88a28.83,28.83,0,0,1-3.41,0,2,2,0,0,1-1.15-.9c-.9-1.36-1.71-2.79-2.56-4.19a2.39,2.39,0,0,0-1-.91V121H29.33Zm3.23,7.57c1.31.17,2.36,0,3.06-1a2.81,2.81,0,0,0-.17-3,2.92,2.92,0,0,0-2.89-.77Z"/><path class="cls-1" d="M74.22,146H70.69l-1.33-3.37H63.62L62.2,146H58.76c2.08-5.76,4.29-11.33,6.48-17.1l2.59-.12C69.93,134.39,72,140,74.22,146Zm-9.61-6.32h3.75a22.68,22.68,0,0,0-2.16-5.28Z"/><path class="cls-1" d="M77.73,104.34v2.88H72.56v3.61h4.85v2.91H72.52v4.5h5.12V121H69.3c-.33-1.25-.41-14.31-.08-16.64C72,104.25,74.74,104.32,77.73,104.34Z"/><path class="cls-1" d="M100.46,129.33H109V132h-5.15v3.7c.79,0,1.58.06,2.38.07s1.61,0,2.52,0v2.83h-4.92v4.52H109v2.79h-8.5Z"/><path class="cls-1" d="M46.75,118.41l1.78-2.06A19.29,19.29,0,0,0,50,117.94a2.26,2.26,0,0,0,3.52-.26,2.3,2.3,0,0,0-.94-3.42c-.82-.45-1.73-.74-2.56-1.17a4.57,4.57,0,0,1-2.41-6,4.86,4.86,0,0,1,5.83-3,6,6,0,0,1,3.34,1.74l-1.38,2.13c-.44-.29-.8-.54-1.17-.77a2.29,2.29,0,0,0-2.17-.3,1.82,1.82,0,0,0-1.29,1.53,1.54,1.54,0,0,0,.89,1.58c1,.55,2.1,1,3.14,1.57a4.34,4.34,0,0,1,2.39,2.87,5.7,5.7,0,0,1-3,6.76C51.31,122.36,48.5,121.32,46.75,118.41Z"/><path class="cls-1" d="M125.48,113.78h-5v4.48h5.15V121h-8.48V104.43h8.49v2.86h-5.18v3.51h5Z"/><path class="cls-1" d="M119.38,132.17l-3.32-.18v-2.67h9.83V132l-3.17.23v13.7h-3.34Z"/><path class="cls-1" d="M92.34,145.91V132.19l-3.21-.2v-2.67H99V132l-3.25.24v13.71Z"/><path class="cls-1" d="M67.8,104.44v2.72l-3.24.25V121H61.27V107.44l-3.34-.27v-2.73Z"/><path class="cls-1" d="M37.34,132.19,34,132v-2.64h9.87v2.6l-3.24.27v13.73H37.34Z"/><path class="cls-1" d="M101,104.29v3.77c0,2.46,0,4.91,0,7.37a13.27,13.27,0,0,1-.23,2.44,4.35,4.35,0,0,1-3.07,3.51c-1.69.54-3.12.13-4.75-1.41l1.71-2c.22,0,.35,0,.43,0,1.62,1,2.45.61,2.5-1.35.07-3.11,0-6.21,0-9.31v-2.85Z"/><path class="cls-1" d="M80.07,104.41h3.05c.28,4.55,0,9.08.18,13.81h4.51V121H80.23C79.87,119.8,79.74,107.68,80.07,104.41Z"/><path class="cls-1" d="M75.4,129.31h3.16v13.75l4.54.21V146H75.4Z"/><path class="cls-1" d="M114.63,146h-3.28c0-5.55,0-11,0-16.62h3.3Z"/><path class="cls-1" d="M45,121.13c-1,0-1.67,0-2.37,0a6.28,6.28,0,0,1-.92-.14v-16.5H45C45,110,45,115.41,45,121.13Z"/><path class="cls-1" d="M84.53,129.31h3.06v16.62H84.53Z"/><path class="cls-1" d="M89.11,104.4h2.83c.35,1.28.46,13.74.14,16.59H89.23C88.88,119.77,88.76,107.1,89.11,104.4Z"/></g></g></svg>