<?xml version="1.0" encoding="utf-8"?>
<!-- Generator: Adobe Illustrator 23.0.2, SVG Export Plug-In . SVG Version: 6.00 Build 0)  -->
<svg version="1.1" id="Layer_1" xmlns="http://www.w3.org/2000/svg" xmlns:xlink="http://www.w3.org/1999/xlink" x="0px" y="0px"
	 viewBox="0 0 146.7 146.6" style="enable-background:new 0 0 146.7 146.6;" xml:space="preserve">
<style type="text/css">
	.st0{fill:#FFFFFF;}
	.st1{opacity:0;fill:#FFFFFF;enable-background:new    ;}
</style>
<title>CoolBlue</title>
<g>
	<g id="Layer_1-2">
		<g id="Coolblue">
			<path class="st0" d="M71.6,0h3.5c0.1,0,0.3,0.1,0.4,0.1c1.6,0.1,3.2,0.1,4.9,0.3c2.6,0.3,5.2,0.7,7.8,1.2c6.1,1.2,12,3.2,17.6,6
				c9.5,4.7,17.9,11.4,24.5,19.7c4.3,5.3,7.8,11.1,10.4,17.3c2.9,6.6,4.7,13.6,5.4,20.7c0.3,2.7,0.4,5.4,0.5,8.2
				c0,1.3,0,2.6-0.1,3.8c-0.2,2.2-0.4,4.4-0.6,6.7c-0.5,3.6-1.2,7.1-2.3,10.6c-8.8,29.3-34.9,50-65.3,52c-2.1,0.1-4.2,0.1-6.2,0.1
				c-1.7,0-3.4-0.1-5.1-0.3c-2.3-0.2-4.7-0.5-7-0.9c-6.1-1.1-12.1-3-17.7-5.6c-17.8-8.4-31.5-23.5-38.1-42c-1.8-4.9-3-10-3.6-15.2
				c-0.3-2.3-0.4-4.6-0.5-7c0-0.2,0-0.3,0-0.5v-3.5c0-0.1,0.1-0.2,0.1-0.3c0.1-1.8,0.2-3.6,0.4-5.4c0.3-2.6,0.7-5.1,1.2-7.7
				c1.3-6.4,3.5-12.7,6.6-18.5C20.4,16,44.5,0.8,71.1,0.1C71.3,0.1,71.5,0,71.6,0z M36.4,104.6l0.4,0.1c1,0.3,2,0.6,3.1,0.8
				c1.7,0.3,3.4,0.4,5.2,0.3c1.7-0.1,3.4-0.4,5-0.9c3.2-1,5.7-3.6,6.3-6.9c0.6-2.7,0.6-5.4,0.1-8.1c-0.6-3.4-3-6.2-6.4-7.3
				c-1.7-0.6-3.5-0.9-5.3-1c-2-0.1-4,0-6,0.3c-0.8,0.2-1.6,0.4-2.4,0.6v-0.4c0-2.3,0-4.5,0-6.8c0.1-0.6-0.4-1.2-1-1.3
				c-0.1,0-0.2,0-0.3,0h-4.8c-0.6-0.1-1.2,0.3-1.4,0.9c0,0.2,0,0.4,0,0.5v29c0,0.8,0.4,1.3,1.1,1.3c1.7,0,3.4,0,5.1-0.1
				C36.3,105.7,36.3,105.6,36.4,104.6z M112.6,91.3h-6.7c-0.8,0-1,0.2-1,1v2.8c0,0.7,0.2,0.9,0.9,0.9h13c0.3,0,0.4-0.1,0.4-0.4
				c0-1.3,0-2.7-0.1-4c-0.1-1.2-0.2-2.4-0.5-3.6c-0.6-2.7-2.6-4.9-5.2-5.7c-1.5-0.5-3.1-0.7-4.7-0.8c-1.3,0-2.5,0.1-3.8,0.1
				c-1.4,0.1-2.7,0.4-4,0.9c-2.6,0.9-4.6,2.8-5.6,5.4c-0.6,1.7-0.9,3.6-0.9,5.4c0,1.6,0.1,3.2,0.5,4.7c0.5,2.8,2.4,5.2,5,6.3
				c2,0.9,4.1,1.4,6.2,1.4c1.5,0.1,3,0,4.5-0.1c1.9-0.1,3.8-0.6,5.5-1.5c0.8-0.4,1.5-0.9,2.2-1.5c0.5-0.4,0.5-0.9,0.1-1.4
				c-0.7-0.8-1.3-1.7-1.9-2.6c-0.4-0.5-1.1-0.7-1.6-0.4c0,0-0.1,0-0.1,0.1c-0.7,0.5-1.5,0.9-2.2,1.3c-2.4,0.9-5,1-7.5,0.4
				c-1.7-0.3-3-1.6-3.3-3.2c-0.2-0.7-0.3-1.4-0.3-2.2c0-1.3,0-2.5,0.2-3.8c0.1-1.8,1.4-3.4,3.1-3.8c1.5-0.5,3.2-0.5,4.8-0.2
				C111.7,87.4,112.6,88.8,112.6,91.3z M95.1,71.3l3-0.2c1.5-0.1,2.9-0.4,4.3-1c2.6-1,4.5-3.2,5.2-5.8c0.5-1.8,0.7-3.6,0.6-5.4
				c-0.1-1.1-0.2-2.2-0.4-3.3c-0.5-2.7-2.4-5-4.9-6.1c-1.9-0.9-4-1.4-6.1-1.4c-1,0-1.9,0-2.8,0c-1.6,0-3.1,0.2-4.6,0.7
				c-2.3,0.6-4.4,2-5.7,4c-1,1.7-1.5,3.5-1.6,5.5c-0.1,1.7,0,3.4,0.3,5.1c0.5,3.2,2.8,5.9,5.8,7C90.5,71,92.8,71.3,95.1,71.3z
				 M65.9,71.2c2.2,0.1,4.4-0.1,6.6-0.7c3.6-1,6-3.1,7-6.8c0.6-2.6,0.6-5.2,0.1-7.8c-0.3-1.6-1-3.1-2-4.3c-1.6-1.7-3.7-2.9-6-3.3
				c-2-0.4-4-0.5-6-0.4c-1.8,0-3.6,0.3-5.3,0.9c-3,0.9-5.3,3.4-6,6.5c-0.6,2.5-0.7,5-0.3,7.5c0.5,3.6,3,6.5,6.5,7.5
				C62.2,70.9,64.1,71.2,65.9,71.2L65.9,71.2z M92.5,89.3L92.5,89.3v-6.4c0.1-0.6-0.3-1.2-1-1.3c-0.1,0-0.2,0-0.3,0h-3.8
				c-1,0-1.4,0.4-1.4,1.4c0,4.5,0,8.9-0.1,13.4c0.1,1.6-1,2.9-2.6,3.2c-1.3,0.3-2.6,0.3-3.8,0.1c-1.5-0.1-2.7-1.3-2.9-2.8
				c-0.1-0.6-0.1-1.1-0.1-1.7c0-4.1,0-8.2,0-12.3c0.1-0.6-0.4-1.2-1-1.3c-0.1,0-0.2,0-0.3,0H71c-0.6-0.1-1.2,0.4-1.3,1
				c0,0.1,0,0.2,0,0.2c0,3.9,0,7.7,0,11.6c0,1.5,0.2,3,0.4,4.5c0.3,3,2.5,5.5,5.5,6.1c1.4,0.3,2.8,0.5,4.2,0.6
				c2.2,0.1,4.4,0,6.6-0.5c2.8-0.5,5-2.7,5.5-5.6c0.3-1.4,0.5-2.8,0.5-4.2C92.5,93.4,92.5,91.3,92.5,89.3z M42.1,47.9
				c-1.9-0.1-3.9,0.1-5.8,0.6c-2.9,0.7-5.4,2.4-7.1,4.8c-1.4,2.2-2,4.8-1.7,7.4c0.2,3,1.7,5.8,4.1,7.7c2.3,1.8,5.2,2.8,8.2,2.8
				c1.7,0.1,3.3,0,5-0.1c1.7-0.1,3.3-0.5,4.8-1.2c0.9-0.5,1.8-1,2.7-1.7c0.6-0.4,0.6-0.9,0.1-1.5l-1.9-2.4c-0.6-0.8-1.1-0.9-1.9-0.3
				c-0.9,0.7-1.9,1.2-3,1.4c-0.8,0.2-1.6,0.3-2.4,0.4c-1.8,0.2-3.5,0-5.2-0.7c-2.9-1.1-4.5-4.2-3.6-7.2c0.6-1.9,2.1-3.4,4.1-4
				c2.4-0.9,5.1-0.9,7.5,0c0.9,0.3,1.8,0.8,2.6,1.3c0.8,0.5,1.2,0.4,1.8-0.3l2-2.6c0.4-0.4,0.4-0.9,0-1.3c0,0,0,0,0,0
				c-0.1-0.2-0.3-0.3-0.5-0.5c-1.2-0.9-2.6-1.5-4-2C46,48.1,44,47.9,42.1,47.9z M58.9,89.8v9c0,1.8,0,3.7,0,5.5
				c-0.1,0.7,0.4,1.3,1.1,1.4c0.1,0,0.1,0,0.2,0c2.2,0,4.4,0,6.6,0c0.6,0,1.2-0.4,1.2-1c0,0,0-0.1,0-0.1c0-1.4,0-2.8,0-4.2
				c0-0.3-0.1-0.7-0.4-0.9c-0.3-0.2-0.7-0.3-1-0.3c-0.3,0-0.4-0.1-0.3-0.4c0-0.5,0-0.9,0-1.4V75.4c0-1-0.4-1.4-1.4-1.4h-4.4
				c-1.2,0-1.5,0.4-1.5,1.5L58.9,89.8z M110.3,56v13.7c0,1,0.4,1.5,1.5,1.5h5.9c0.6,0.1,1.2-0.4,1.3-1c0-0.1,0-0.2,0-0.3v-3.8
				c0-0.5-0.3-1-0.8-1.1c-0.2-0.1-0.3-0.1-0.5-0.1c-0.4,0-0.4-0.2-0.4-0.5s0-0.9,0-1.3V42.1c0.1-0.6-0.3-1.2-1-1.3
				c-0.1,0-0.2,0-0.3,0h-4.3c-1,0-1.4,0.4-1.4,1.4L110.3,56z"/>
			<path class="st1" d="M36.4,104.6c-0.1,1-0.1,1.1-1.2,1.1c-1.7,0.1-3.4,0.1-5.1,0.1c-0.7,0-1.1-0.5-1.1-1.3v-29
				c-0.1-0.6,0.3-1.2,1-1.3c0.1,0,0.2,0,0.3,0h4.8c0.6-0.1,1.2,0.4,1.3,1c0,0.1,0,0.2,0,0.3c0,2.3,0,4.5,0,6.8v0.4
				c0.8-0.2,1.6-0.4,2.4-0.6c2-0.4,4-0.5,6-0.3c1.8,0.1,3.6,0.4,5.3,1c3.3,1,5.8,3.9,6.4,7.3c0.6,2.6,0.6,5.4,0,8
				c-0.7,3.3-3.1,5.9-6.3,6.9c-1.6,0.5-3.3,0.8-5,0.9c-1.7,0.1-3.5,0-5.2-0.3c-1-0.2-2.1-0.6-3.1-0.8L36.4,104.6z M43.1,100.4
				c0.8-0.1,1.5-0.1,2.2-0.2c2-0.2,3.6-1.8,4-3.8c0.4-1.6,0.4-3.3,0-4.9c-0.3-1.9-1.8-3.4-3.7-3.8c-1.5-0.4-3-0.4-4.5,0
				c-1.9,0.3-3.4,1.8-3.8,3.7c-0.4,1.6-0.4,3.3-0.1,5c0.3,1.8,1.6,3.3,3.4,3.7C41.5,100.2,42.3,100.3,43.1,100.4z"/>
			<path class="st1" d="M112.6,91.3c0-2.4-0.9-3.9-3.2-4.3c-1.6-0.3-3.2-0.2-4.8,0.2c-1.8,0.5-3,2-3.1,3.8c-0.1,1.2-0.2,2.5-0.2,3.8
				c0,0.7,0.1,1.5,0.3,2.2c0.4,1.6,1.7,2.8,3.3,3.2c2.5,0.6,5.1,0.5,7.5-0.4c0.8-0.3,1.5-0.8,2.2-1.3c0.5-0.4,1.3-0.3,1.7,0.2
				c0,0,0,0.1,0.1,0.1c0.6,0.9,1.3,1.7,1.9,2.6c0.4,0.5,0.4,1-0.1,1.4c-0.7,0.6-1.4,1-2.2,1.5c-1.7,0.9-3.5,1.4-5.5,1.5
				c-1.5,0.1-3,0.1-4.5,0.1c-2.2,0-4.3-0.5-6.2-1.4c-2.6-1.2-4.5-3.5-5-6.3c-0.4-1.5-0.5-3.1-0.5-4.7c0-1.8,0.3-3.7,0.9-5.4
				c1-2.5,3-4.5,5.6-5.3c1.3-0.5,2.6-0.8,4-0.9c1.3-0.1,2.5-0.2,3.8-0.1c1.6,0,3.1,0.3,4.7,0.8c2.6,0.8,4.7,3,5.2,5.7
				c0.3,1.2,0.4,2.4,0.5,3.6c0.1,1.3,0,2.7,0.1,4c0,0.3-0.1,0.4-0.4,0.4h-13c-0.7,0-0.9-0.2-0.9-0.9v-2.9c0-0.8,0.2-1,1-1
				L112.6,91.3L112.6,91.3z"/>
			<path class="st1" d="M95.1,71.3c-2.3,0-4.7-0.3-6.9-1.1c-3.1-1.1-5.3-3.8-5.8-7c-0.3-1.7-0.4-3.4-0.3-5.1c0-1.9,0.6-3.8,1.6-5.5
				c1.3-2,3.3-3.4,5.7-4c1.5-0.4,3.1-0.6,4.7-0.6c1,0,1.9,0,2.8,0c2.1,0,4.2,0.5,6.1,1.4c2.5,1.1,4.3,3.4,4.9,6.1
				c0.2,1.1,0.4,2.2,0.4,3.3c0.1,1.8,0,3.6-0.6,5.4c-0.7,2.7-2.7,4.8-5.3,5.8c-1.4,0.6-2.8,0.9-4.3,1L95.1,71.3z M101.2,59.9
				c-0.1-0.8-0.1-1.6-0.2-2.3c-0.2-1.8-1.5-3.3-3.2-3.8c-1.6-0.5-3.3-0.5-4.9-0.1c-1.8,0.4-3.1,1.8-3.4,3.6c-0.3,1.5-0.3,3-0.1,4.4
				c0.2,2.1,1.8,3.8,3.9,4.1c1.3,0.3,2.7,0.3,4,0c1.8-0.3,3.3-1.7,3.6-3.5C101,61.5,101.1,60.7,101.2,59.9z"/>
			<path class="st1" d="M65.9,71.2c-1.8,0-3.7-0.3-5.4-0.9c-3.5-1-6-3.9-6.5-7.5c-0.5-2.5-0.4-5,0.2-7.5c0.7-3.1,3-5.5,6-6.5
				c1.7-0.6,3.5-0.9,5.3-0.9c2-0.1,4,0,6,0.4c2.3,0.4,4.4,1.5,6,3.3c1,1.3,1.7,2.8,2,4.3c0.5,2.6,0.5,5.2-0.1,7.8
				c-0.9,3.7-3.4,5.8-7,6.8C70.3,71.1,68.1,71.3,65.9,71.2z M72.9,60c-0.1-0.8-0.1-1.4-0.2-2c-0.1-2.1-1.7-3.9-3.8-4.3
				c-1.4-0.3-2.9-0.3-4.3,0c-1.8,0.3-3.3,1.7-3.6,3.5c-0.3,1.5-0.4,3.1-0.1,4.6c0.2,2,1.6,3.6,3.6,4c1.5,0.4,3.2,0.4,4.7-0.1
				c1.7-0.4,3-1.8,3.3-3.5C72.7,61.5,72.8,60.6,72.9,60L72.9,60z"/>
			<path class="st1" d="M92.5,89.3c0,2,0.1,4,0,6c-0.1,1.4-0.2,2.8-0.5,4.2c-0.5,2.8-2.7,5-5.5,5.6c-2.2,0.5-4.4,0.7-6.6,0.5
				c-1.4,0-2.8-0.2-4.2-0.6c-2.9-0.7-5.1-3.1-5.5-6.1c-0.3-1.5-0.4-3-0.4-4.5c0-3.9,0-7.7,0-11.6c-0.1-0.6,0.4-1.2,1-1.3
				c0.1,0,0.2,0,0.3,0h4.2c0.6-0.1,1.2,0.4,1.3,1c0,0.1,0,0.2,0,0.3c0,4.1,0,8.2,0,12.3c0,0.6,0,1.1,0.1,1.7
				c0.1,1.5,1.4,2.7,2.9,2.8c1.3,0.2,2.6,0.2,3.8-0.1c1.5-0.3,2.6-1.7,2.6-3.2c0-4.5,0.1-8.9,0.1-13.4c0-1,0.4-1.4,1.4-1.4h3.8
				c0.6-0.1,1.2,0.3,1.3,1c0,0.1,0,0.2,0,0.3C92.5,82.9,92.5,89.3,92.5,89.3z"/>
			<path class="st1" d="M42.1,47.9c2-0.1,4,0.2,5.9,0.7c1.4,0.5,2.8,1.1,4,2c0.2,0.1,0.4,0.3,0.5,0.5c0.4,0.4,0.4,0.9,0,1.3
				c0,0,0,0,0,0l-2,2.6c-0.5,0.7-1,0.8-1.8,0.3c-0.8-0.5-1.7-1-2.6-1.3c-2.4-0.9-5.1-0.9-7.5,0c-1.9,0.6-3.5,2.1-4.1,4
				c-0.9,3,0.6,6.1,3.5,7.2c1.6,0.7,3.4,0.9,5.2,0.7c0.8-0.1,1.6-0.2,2.4-0.4c1.1-0.3,2.1-0.7,3-1.4c0.8-0.6,1.3-0.5,1.9,0.3
				l1.9,2.4c0.5,0.6,0.5,1.1-0.1,1.5c-0.8,0.6-1.7,1.2-2.7,1.7c-1.5,0.8-3.2,1.2-4.8,1.2c-1.7,0.1-3.3,0.1-5,0.1c-3,0-5.8-1-8.2-2.8
				c-2.4-1.9-3.8-4.7-4.1-7.7c-0.3-2.6,0.3-5.2,1.7-7.4c1.7-2.4,4.2-4.2,7.1-4.8C38.2,48.1,40.1,47.9,42.1,47.9z"/>
			<path class="st1" d="M58.9,89.8V75.4c0-1.1,0.4-1.5,1.5-1.5h4.4c1,0,1.4,0.4,1.4,1.4v22.1c0,0.5,0,0.9,0,1.4
				c0,0.3,0.1,0.3,0.3,0.4c0.3,0.1,0.7,0.2,1,0.3c0.3,0.2,0.5,0.5,0.4,0.9c0,1.4,0,2.8,0,4.2c0,0.6-0.4,1.2-1.1,1.2c0,0-0.1,0-0.1,0
				c-2.2,0-4.4,0-6.5,0c-0.7,0-1.3-0.5-1.3-1.2c0-0.1,0-0.1,0-0.2c0-1.8,0-3.7,0-5.5L58.9,89.8z"/>
			<path class="st1" d="M110.3,56V42.2c0-1,0.4-1.4,1.4-1.4h4.3c0.6-0.1,1.2,0.3,1.3,1c0,0.1,0,0.2,0,0.3v21.1c0,0.4,0,0.9,0,1.3
				s0.1,0.5,0.4,0.5c0.2,0,0.3,0,0.5,0.1c0.5,0.1,0.8,0.6,0.8,1.1v3.8c0.1,0.6-0.3,1.2-1,1.3c-0.1,0-0.2,0-0.3,0h-5.9
				c-1,0-1.5-0.5-1.5-1.5L110.3,56z"/>
			<path class="st0" d="M43.1,100.4c-0.8-0.1-1.6-0.2-2.4-0.4c-1.8-0.4-3.2-1.9-3.5-3.7c-0.3-1.7-0.3-3.4,0.1-5
				c0.4-1.9,1.9-3.4,3.8-3.7c1.5-0.4,3-0.4,4.5,0c1.9,0.4,3.4,1.9,3.7,3.8c0.4,1.6,0.4,3.3,0,4.9c-0.3,2-1.9,3.6-4,3.8
				C44.7,100.3,44,100.3,43.1,100.4z"/>
			<path class="st0" d="M101.2,59.9c-0.1,0.8-0.2,1.7-0.4,2.5c-0.4,1.8-1.8,3.2-3.6,3.5c-1.3,0.3-2.7,0.3-4,0
				c-2.1-0.3-3.7-2-3.9-4.1c-0.2-1.5-0.2-3,0.1-4.4c0.3-1.8,1.6-3.2,3.4-3.6c1.6-0.4,3.3-0.4,4.9,0.1c1.8,0.5,3.1,2,3.3,3.8
				C101.1,58.3,101.1,59,101.2,59.9z"/>
			<path class="st0" d="M72.9,60c-0.1,0.7-0.2,1.5-0.3,2.3c-0.3,1.7-1.6,3.1-3.3,3.5c-1.5,0.4-3.2,0.5-4.7,0.1c-1.9-0.4-3.4-2-3.6-4
				c-0.3-1.5-0.2-3.1,0.1-4.6c0.3-1.8,1.8-3.2,3.6-3.5c1.4-0.3,2.9-0.3,4.3,0c2.1,0.4,3.6,2.2,3.7,4.3C72.8,58.5,72.8,59.2,72.9,60z
				"/>
		</g>
	</g>
</g>
</svg>
