<svg xmlns="http://www.w3.org/2000/svg" viewBox="0 0 146.69 146.64"><defs><style>.cls-1,.cls-2{fill:#fff;}.cls-2{opacity:0.5;}</style></defs><title>CoolBlue</title><g id="Layer_2" data-name="Layer 2"><g id="Layer_1-2" data-name="Layer 1"><g id="Coolblue"><path class="cls-1" d="M71.61,0h3.5a3,3,0,0,0,.43.08c1.62.1,3.25.1,4.86.3,2.63.32,5.25.69,7.85,1.2a68.66,68.66,0,0,1,17.6,6,73,73,0,0,1,24.53,19.66,71.94,71.94,0,0,1,10.43,17.31,69.93,69.93,0,0,1,5.39,20.73c.27,2.72.37,5.45.47,8.18a30.49,30.49,0,0,1-.14,3.82c-.18,2.22-.37,4.45-.65,6.66a63.81,63.81,0,0,1-2.32,10.56,73.27,73.27,0,0,1-65.35,52c-2.07.14-4.15.14-6.22.11-1.69,0-3.38-.09-5.06-.26-2.33-.24-4.66-.5-7-.92a71,71,0,0,1-17.68-5.65,73.57,73.57,0,0,1-38.07-42,70.5,70.5,0,0,1-3.6-15.2c-.28-2.31-.36-4.64-.54-7A4.85,4.85,0,0,0,0,75.11v-3.5a2.21,2.21,0,0,0,.08-.35c.12-1.79.15-3.6.36-5.38.32-2.56.66-5.13,1.17-7.65A70.9,70.9,0,0,1,8.19,39.71,73.2,73.2,0,0,1,71.14.08,2.57,2.57,0,0,0,71.61,0ZM36.44,104.61l.37.12c1,.28,2,.62,3.09.83a19.54,19.54,0,0,0,5.18.27,19.21,19.21,0,0,0,5.05-.91A9.06,9.06,0,0,0,56.44,98a18.59,18.59,0,0,0,.07-8.13,9.29,9.29,0,0,0-6.36-7.29,19,19,0,0,0-5.28-1,23.87,23.87,0,0,0-6,.34c-.8.15-1.59.38-2.43.58v-.43c0-2.27,0-4.53,0-6.8a1.13,1.13,0,0,0-1.26-1.25h-4.8A1.16,1.16,0,0,0,29,75.43v29c0,.8.39,1.32,1.11,1.33,1.7,0,3.41,0,5.12-.06C36.3,105.7,36.3,105.63,36.44,104.61Zm76.13-13.32h-6.69c-.77,0-1,.22-1,1v2.85c0,.69.21.91.89.91h13c.34,0,.45-.12.44-.45,0-1.33,0-2.66-.08-4a22.31,22.31,0,0,0-.5-3.55,7.51,7.51,0,0,0-5.21-5.68,16,16,0,0,0-4.65-.76c-1.27,0-2.54.06-3.81.14a13.42,13.42,0,0,0-4,.89A9,9,0,0,0,95.38,88a16.08,16.08,0,0,0-.91,5.4,19.12,19.12,0,0,0,.47,4.71,8.79,8.79,0,0,0,5,6.33,15.48,15.48,0,0,0,6.23,1.41c1.49.06,3,0,4.47-.07a12.14,12.14,0,0,0,5.46-1.47,15.07,15.07,0,0,0,2.23-1.47c.52-.41.49-.89.08-1.42-.65-.85-1.35-1.67-1.95-2.55a1.18,1.18,0,0,0-1.73-.28,11.91,11.91,0,0,1-2.25,1.27,12.75,12.75,0,0,1-7.46.39A4.21,4.21,0,0,1,101.71,97a8.56,8.56,0,0,1-.35-2.19,31.53,31.53,0,0,1,.16-3.76,4.18,4.18,0,0,1,3.12-3.84,10.26,10.26,0,0,1,4.77-.23C111.67,87.42,112.57,88.84,112.57,91.29Zm-17.44-20,3-.22a14,14,0,0,0,4.31-1,8.61,8.61,0,0,0,5.23-5.82,14.94,14.94,0,0,0,.55-5.4,24.49,24.49,0,0,0-.42-3.32,8.55,8.55,0,0,0-4.89-6.11A15.54,15.54,0,0,0,96.79,48c-1-.05-1.89,0-2.84,0a16.87,16.87,0,0,0-4.63.66,9.31,9.31,0,0,0-5.66,4,11.38,11.38,0,0,0-1.56,5.47,19.78,19.78,0,0,0,.29,5.09,8.92,8.92,0,0,0,5.85,7A20.19,20.19,0,0,0,95.13,71.29Zm-29.22-.06a23.49,23.49,0,0,0,6.56-.66c3.56-1,6-3.1,7-6.78A17.87,17.87,0,0,0,79.56,56a9.4,9.4,0,0,0-2-4.35,10.29,10.29,0,0,0-6-3.27,23.64,23.64,0,0,0-6-.42,17.66,17.66,0,0,0-5.3.91,8.83,8.83,0,0,0-6,6.46A18,18,0,0,0,54,62.84a9,9,0,0,0,6.46,7.52A18.71,18.71,0,0,0,65.91,71.23ZM92.47,89.35h0V82.92a1.16,1.16,0,0,0-1.32-1.32H87.33c-1,0-1.42.41-1.42,1.43,0,4.46,0,8.92-.09,13.38a3.17,3.17,0,0,1-2.56,3.23,9.73,9.73,0,0,1-3.84.06,3.1,3.1,0,0,1-2.87-2.81,10.71,10.71,0,0,1-.1-1.7q0-6.15,0-12.29a1.18,1.18,0,0,0-1.3-1.3H71a1.17,1.17,0,0,0-1.28,1.29c0,3.87,0,7.73,0,11.59A29.15,29.15,0,0,0,70.14,99a7.08,7.08,0,0,0,5.47,6.12,20,20,0,0,0,4.21.59,22.58,22.58,0,0,0,6.61-.53,6.88,6.88,0,0,0,5.5-5.55,26.16,26.16,0,0,0,.52-4.22C92.53,93.36,92.47,91.35,92.47,89.35ZM42.06,47.91a23,23,0,0,0-5.77.58,11.68,11.68,0,0,0-7.06,4.81,10.88,10.88,0,0,0-1.68,7.36,11.06,11.06,0,0,0,4.09,7.72,13.14,13.14,0,0,0,8.17,2.83c1.66.07,3.33,0,5-.07a11.64,11.64,0,0,0,4.84-1.23,19.9,19.9,0,0,0,2.67-1.67c.6-.45.57-.93.11-1.53l-1.89-2.44c-.63-.82-1.09-.89-1.92-.27a7.84,7.84,0,0,1-3,1.43,20,20,0,0,1-2.44.4A10.17,10.17,0,0,1,38,65.15a5.84,5.84,0,0,1-3.57-7.21,6.11,6.11,0,0,1,4.09-4,11.19,11.19,0,0,1,7.53,0,13.82,13.82,0,0,1,2.63,1.33c.79.47,1.22.44,1.77-.28l2-2.6a.91.91,0,0,0,0-1.29,2.52,2.52,0,0,0-.51-.47,14.39,14.39,0,0,0-4-2A20.55,20.55,0,0,0,42.06,47.91ZM58.92,89.76v9c0,1.83,0,3.67,0,5.5a1.28,1.28,0,0,0,1.32,1.43q3.27,0,6.55,0A1.13,1.13,0,0,0,68,104.53c0-1.38,0-2.76,0-4.15a.91.91,0,0,0-.42-.87,3.28,3.28,0,0,0-1-.32c-.26,0-.36-.09-.35-.36,0-.46,0-.92,0-1.38V75.36c0-1-.4-1.42-1.39-1.42H60.43c-1.15,0-1.51.37-1.51,1.5ZM110.35,56V69.73c0,1,.45,1.46,1.46,1.47h5.94A1.12,1.12,0,0,0,119,69.93V66.1a1.07,1.07,0,0,0-.81-1.08,1.33,1.33,0,0,0-.48-.07c-.36,0-.43-.15-.42-.46s0-.87,0-1.3V42.12a1.14,1.14,0,0,0-1.29-1.3h-4.27c-1,0-1.37.39-1.37,1.38Z"/><path class="cls-2" d="M36.44,104.61c-.14,1-.14,1.09-1.18,1.13-1.71.07-3.42.07-5.12.06-.72,0-1.12-.53-1.11-1.33v-29a1.16,1.16,0,0,1,1.31-1.33h4.8a1.13,1.13,0,0,1,1.26,1.25c0,2.27,0,4.53,0,6.8v.43c.84-.2,1.63-.43,2.43-.58a23.87,23.87,0,0,1,6-.34,19,19,0,0,1,5.28,1,9.29,9.29,0,0,1,6.36,7.29A18.59,18.59,0,0,1,56.44,98a9.06,9.06,0,0,1-6.31,6.88,19.21,19.21,0,0,1-5.05.91,19.54,19.54,0,0,1-5.18-.27c-1-.21-2.06-.55-3.09-.83Zm6.68-4.22c.83-.09,1.54-.13,2.23-.25a4.53,4.53,0,0,0,3.95-3.82,11.64,11.64,0,0,0,0-4.95,4.63,4.63,0,0,0-3.72-3.76,9.77,9.77,0,0,0-4.5,0,4.65,4.65,0,0,0-3.77,3.71,11.85,11.85,0,0,0-.06,5A4.44,4.44,0,0,0,40.68,100,23.77,23.77,0,0,0,43.12,100.39Z"/><path class="cls-2" d="M112.57,91.29c0-2.45-.9-3.87-3.16-4.27a10.26,10.26,0,0,0-4.77.23,4.18,4.18,0,0,0-3.12,3.84,31.53,31.53,0,0,0-.16,3.76,8.56,8.56,0,0,0,.35,2.19A4.21,4.21,0,0,0,105,100.2a12.75,12.75,0,0,0,7.46-.39,11.91,11.91,0,0,0,2.25-1.27,1.18,1.18,0,0,1,1.73.28c.6.88,1.3,1.7,1.95,2.55.41.53.44,1-.08,1.42a15.07,15.07,0,0,1-2.23,1.47,12.14,12.14,0,0,1-5.46,1.47c-1.49.06-3,.13-4.47.07a15.48,15.48,0,0,1-6.23-1.41,8.79,8.79,0,0,1-5-6.33,19.12,19.12,0,0,1-.47-4.71,16.08,16.08,0,0,1,.91-5.4,9,9,0,0,1,5.55-5.3,13.42,13.42,0,0,1,4-.89c1.27-.08,2.54-.17,3.81-.14a16,16,0,0,1,4.65.76,7.51,7.51,0,0,1,5.21,5.68,22.31,22.31,0,0,1,.5,3.55c.09,1.32,0,2.65.08,4,0,.33-.1.45-.44.45h-13c-.68,0-.89-.22-.89-.91V92.27c0-.76.23-1,1-1h6.69Z"/><path class="cls-2" d="M95.13,71.29a20.19,20.19,0,0,1-6.89-1.12,8.92,8.92,0,0,1-5.85-7,19.78,19.78,0,0,1-.29-5.09,11.38,11.38,0,0,1,1.56-5.47,9.31,9.31,0,0,1,5.66-4A16.87,16.87,0,0,1,94,48c1,0,1.89,0,2.84,0a15.54,15.54,0,0,1,6.07,1.38,8.55,8.55,0,0,1,4.89,6.11,24.49,24.49,0,0,1,.42,3.32,14.94,14.94,0,0,1-.55,5.4A8.61,8.61,0,0,1,102.39,70a14,14,0,0,1-4.31,1Zm6.07-11.4c-.09-.85-.13-1.56-.24-2.27a4.39,4.39,0,0,0-3.25-3.81,9.14,9.14,0,0,0-4.92-.07,4.35,4.35,0,0,0-3.41,3.57,13,13,0,0,0-.08,4.44,4.65,4.65,0,0,0,3.87,4.14,9.56,9.56,0,0,0,4,0,4.43,4.43,0,0,0,3.64-3.46C101,61.55,101.09,60.65,101.2,59.89Z"/><path class="cls-2" d="M65.91,71.23a18.71,18.71,0,0,1-5.43-.87A9,9,0,0,1,54,62.84a18,18,0,0,1,.22-7.49,8.83,8.83,0,0,1,6-6.46,17.66,17.66,0,0,1,5.3-.91,23.64,23.64,0,0,1,6,.42,10.29,10.29,0,0,1,6,3.27,9.4,9.4,0,0,1,2,4.35,17.87,17.87,0,0,1-.14,7.77c-.91,3.68-3.39,5.8-7,6.78A23.49,23.49,0,0,1,65.91,71.23Zm7-11.27c-.06-.81-.09-1.42-.16-2A4.62,4.62,0,0,0,69,53.67a9.8,9.8,0,0,0-4.31,0,4.42,4.42,0,0,0-3.6,3.54A12.28,12.28,0,0,0,61,61.85a4.54,4.54,0,0,0,3.59,4,9,9,0,0,0,4.7-.07,4.38,4.38,0,0,0,3.27-3.48C72.73,61.46,72.8,60.61,72.88,60Z"/><path class="cls-2" d="M92.47,89.35c0,2,.06,4,0,6a26.16,26.16,0,0,1-.52,4.22,6.88,6.88,0,0,1-5.5,5.55,22.58,22.58,0,0,1-6.61.53,20,20,0,0,1-4.21-.59A7.08,7.08,0,0,1,70.14,99a29.15,29.15,0,0,1-.41-4.48c0-3.86,0-7.72,0-11.59A1.17,1.17,0,0,1,71,81.6h4.15a1.18,1.18,0,0,1,1.3,1.3q0,6.15,0,12.29a10.71,10.71,0,0,0,.1,1.7,3.1,3.1,0,0,0,2.87,2.81,9.73,9.73,0,0,0,3.84-.06,3.17,3.17,0,0,0,2.56-3.23c0-4.46.06-8.92.09-13.38,0-1,.4-1.43,1.42-1.43h3.82a1.16,1.16,0,0,1,1.32,1.32v6.43Z"/><path class="cls-2" d="M42.06,47.91a20.55,20.55,0,0,1,5.94.72,14.39,14.39,0,0,1,4,2,2.52,2.52,0,0,1,.51.47.91.91,0,0,1,0,1.29l-2,2.6c-.55.72-1,.75-1.77.28a13.82,13.82,0,0,0-2.63-1.33,11.19,11.19,0,0,0-7.53,0,6.11,6.11,0,0,0-4.09,4A5.84,5.84,0,0,0,38,65.15a10.17,10.17,0,0,0,5.17.68,20,20,0,0,0,2.44-.4,7.84,7.84,0,0,0,3-1.43c.83-.62,1.29-.55,1.92.27l1.89,2.44c.46.6.49,1.08-.11,1.53a19.9,19.9,0,0,1-2.67,1.67,11.64,11.64,0,0,1-4.84,1.23c-1.67.08-3.34.14-5,.07a13.14,13.14,0,0,1-8.17-2.83,11.06,11.06,0,0,1-4.09-7.72,10.88,10.88,0,0,1,1.68-7.36,11.68,11.68,0,0,1,7.06-4.81A23,23,0,0,1,42.06,47.91Z"/><path class="cls-2" d="M58.92,89.76V75.44c0-1.13.36-1.5,1.51-1.5h4.36c1,0,1.39.4,1.39,1.42V97.45c0,.46,0,.92,0,1.38,0,.27.09.33.35.36a3.28,3.28,0,0,1,1,.32.91.91,0,0,1,.42.87c0,1.39,0,2.77,0,4.15a1.13,1.13,0,0,1-1.17,1.19q-3.29,0-6.55,0a1.28,1.28,0,0,1-1.32-1.43c0-1.83,0-3.67,0-5.5Z"/><path class="cls-2" d="M110.35,56V42.2c0-1,.38-1.37,1.37-1.38H116a1.14,1.14,0,0,1,1.29,1.3V63.19c0,.43,0,.86,0,1.3s.06.49.42.46a1.33,1.33,0,0,1,.48.07A1.07,1.07,0,0,1,119,66.1v3.83a1.12,1.12,0,0,1-1.24,1.27h-5.94c-1,0-1.46-.46-1.46-1.47Z"/><path class="cls-1" d="M43.12,100.39a23.77,23.77,0,0,1-2.44-.37,4.44,4.44,0,0,1-3.46-3.69,11.85,11.85,0,0,1,.06-5,4.65,4.65,0,0,1,3.77-3.71,9.77,9.77,0,0,1,4.5,0,4.63,4.63,0,0,1,3.72,3.76,11.64,11.64,0,0,1,0,4.95,4.53,4.53,0,0,1-3.95,3.82C44.66,100.26,44,100.3,43.12,100.39Z"/><path class="cls-1" d="M101.2,59.89c-.11.76-.16,1.66-.37,2.52a4.43,4.43,0,0,1-3.64,3.46,9.56,9.56,0,0,1-4,0,4.65,4.65,0,0,1-3.87-4.14,13,13,0,0,1,.08-4.44,4.35,4.35,0,0,1,3.41-3.57,9.14,9.14,0,0,1,4.92.07A4.39,4.39,0,0,1,101,57.62C101.07,58.33,101.11,59,101.2,59.89Z"/><path class="cls-1" d="M72.88,60c-.08.65-.15,1.5-.32,2.33a4.38,4.38,0,0,1-3.27,3.48,9,9,0,0,1-4.7.07,4.54,4.54,0,0,1-3.59-4,12.28,12.28,0,0,1,.08-4.64,4.42,4.42,0,0,1,3.6-3.54,9.8,9.8,0,0,1,4.31,0,4.62,4.62,0,0,1,3.73,4.27C72.79,58.54,72.82,59.15,72.88,60Z"/></g></g></g></svg>