<svg xmlns="http://www.w3.org/2000/svg" viewBox="0 0 113.58 110.38"><defs><style>.cls-1{fill:#fff;}</style></defs><title>De-Lijn</title><g id="Layer_2" data-name="Layer 2"><g id="Layer_1-2" data-name="Layer 1"><path class="cls-1" d="M113.58,0H40.17c-.23,0-.47,0-.71,0a.55.55,0,0,0-.66.54c-.12.68-.26,1.36-.38,2L37,10.69c-.39,2.17-.79,4.33-1.17,6.5-.48,2.71-.93,5.41-1.43,8.11-.09.51,0,.75.54.7.23,0,.47,0,.71,0h70.83c.62,0,1.25,0,1.88,0,.44,0,.66-.11.72-.6.15-1,.36-2,.55-3.06.4-2.25.81-4.51,1.21-6.76q1-5.61,2-11.23C113.08,3,113.31,1.55,113.58,0Zm-71,55.11a3,3,0,0,0,.5.08h8.37a.55.55,0,0,0,.64-.54c.37-2.18.76-4.35,1.15-6.52,0-.25.1-.51.16-.76a1.56,1.56,0,0,1,.42.65c.85,2.18,1.7,4.36,2.52,6.54a.82.82,0,0,0,.9.64q4.3,0,8.63,0c.49,0,.67-.17.76-.65,1-5.66,2-11.33,3-17,.13-.74.11-.78-.64-.78-2.81,0-5.62,0-8.44,0-.54,0-.75.18-.84.71-.37,2.24-.78,4.47-1.18,6.71,0,.16-.09.32-.19.65L58,44.07c-.84-2.2-1.69-4.4-2.5-6.62a.88.88,0,0,0-1-.68c-2.64,0-5.28,0-7.92,0-.64,0-.84.21-1,.81-.78,4.57-1.6,9.12-2.4,13.68C43,52.53,42.81,53.8,42.59,55.11ZM13.39,36.84c-.33,0-.56-.06-.79-.06-2.88,0-5.76,0-8.63,0-.61,0-.81.22-.91.79C2.23,42.4,1.37,47.23.52,52.07c-.18,1-.34,2-.52,3.08a3.63,3.63,0,0,0,.46.06H15.39a.52.52,0,0,0,.6-.51c.19-1.17.41-2.34.61-3.51a5,5,0,0,0,0-.55h-.76c-1.41,0-2.82,0-4.22,0-.52,0-.63-.18-.54-.67.58-3.23,1.15-6.47,1.72-9.7C13,39.16,13.19,38,13.39,36.84ZM26.27,55.13a2.08,2.08,0,0,0,.33.08c2.55,0,5.11,0,7.66-.05a5.57,5.57,0,0,0,4.55-2.37,9.85,9.85,0,0,0,1.56-4c.68-3.74,1.33-7.49,2-11.24.14-.78.13-.81-.67-.81H33.77c-1.68,0-1.33-.17-1.61,1.39-.67,3.68-1.3,7.37-1.95,11-.2,1.08-.58,1.42-1.58,1.42-1.57,0-1.58,0-1.86,1.55C26.59,53.16,26.44,54.14,26.27,55.13Zm-9.38-5.48h.78c2.92,0,5.83,0,8.75,0,.63,0,.86-.19,1-.8q.95-5.65,2-11.3c.11-.62,0-.79-.64-.79-3,0-5.93,0-8.89,0-.53,0-.75.16-.84.71-.56,3.32-1.17,6.64-1.76,10C17.13,48.13,17,48.83,16.89,49.65ZM56.56,29.13l-.86,0H46c-3.83,0-7.66,0-11.49,0-.45,0-.79,0-.87.6-.16,1.06-.37,2.12-.54,3.19-.14.88-.12.88.76.88H52.57c.85,0,1.69,0,2.54,0,.45,0,.71-.11.77-.63.08-.77.26-1.53.39-2.3C56.37,30.3,56.46,29.75,56.56,29.13Zm14.57,0H62.76c-1.62,0-3.24,0-4.86,0-.57,0-.81.18-.89.74-.16,1.07-.38,2.13-.56,3.19a5.47,5.47,0,0,0,0,.75H63c2.21,0,4.41,0,6.62,0,.25,0,.67-.18.71-.34C70.64,32,70.87,30.63,71.13,29.09Zm4,4.67c1.17,0,2.34,0,3.51,0,.48,0,.68-.18.75-.66.17-1.11.36-2.22.58-3.32.11-.53,0-.7-.57-.7-2.33,0-4.67,0-7,0-.5,0-.69.19-.76.66-.16,1.11-.37,2.22-.59,3.32-.11.52,0,.71.58.7C72.77,33.75,73.94,33.76,75.1,33.76ZM85.64,29.1c-1.53,0-2.9,0-4.28,0-.51,0-.68.22-.76.67-.17,1.12-.34,2.26-.57,3.37-.12.53,0,.65.53.65,1.21,0,2.41,0,3.62,0,.51,0,.74-.16.79-.69s.23-1.23.33-1.84S85.51,29.89,85.64,29.1ZM29.76,31a1,1,0,0,1-.3-.09,2.85,2.85,0,0,1-.36-.34,1.6,1.6,0,0,1,.38-.26,1,1,0,0,1,.38,0c.85,0,1-.17.81-1.15-1.08,0-2.18,0-3.28,0-.14,0-.36.34-.4.55-.23,1.12-.39,2.26-.62,3.38-.11.52.08.66.56.65.73,0,1.47,0,2.2,0,1,0,1.09-.17,1-1.21a5.21,5.21,0,0,1-.88-.06c-.14,0-.26-.21-.38-.32.11-.11.22-.31.33-.3C29.78,31.85,29.78,31.45,29.76,31Zm55.89,2.77c.89,0,1.7,0,2.51,0,.42,0,.58-.19.65-.56l.63-3.56c.07-.35,0-.55-.41-.55-.71,0-1.43,0-2.14,0a.62.62,0,0,0-.46.38C86.15,30.87,85.92,32.24,85.65,33.76Zm6.7-4.65a13.22,13.22,0,0,0-1.56,0,.61.61,0,0,0-.41.39q-.37,1.86-.66,3.75a.57.57,0,0,0,.33.46c1.18.26,1.45.06,1.68-1.1a.14.14,0,0,0,0-.06C91.94,31.45,92.13,30.34,92.35,29.11Zm2.18.12c-.94-.28-1.08-.18-1.23.67-.18,1.06-.37,2.12-.55,3.18-.06.28-.22.62.28.67s.75,0,.81-.48c0-.26.09-.51.13-.76C94.16,31.41,94.34,30.32,94.53,29.23Zm2.22,0L96.59,29c-.26.13-.7.22-.74.39-.28,1.29-.5,2.58-.7,3.88,0,.13.18.41.26.41s.51-.13.54-.26C96.24,32.06,96.49,30.64,96.75,29.22Zm1.89,0-.19-.12c-.14.13-.36.24-.39.39-.26,1.29-.48,2.58-.69,3.88,0,.11.11.24.17.36.12-.09.32-.16.35-.27a12.13,12.13,0,0,0,.24-1.2Zm.94,4.47.2.09a1.84,1.84,0,0,0,.31-.49c.23-1.22.44-2.45.64-3.69,0-.13-.1-.28-.15-.42-.09.12-.24.22-.27.35-.18.93-.34,1.86-.51,2.79C99.72,32.76,99.65,33.21,99.58,33.67ZM103,29.19l-.35-.06c-.26,1.51-.53,3-.79,4.52l.34.06A38.16,38.16,0,0,0,103,29.19Zm2.54,0-.32-.06-.78,4.48.3,0C105,32.19,105.28,30.7,105.55,29.21Zm1.88,4.38.26,0c.26-1.45.51-2.9.76-4.36l-.26,0C107.94,30.68,107.69,32.13,107.43,33.59Z"/><path class="cls-1" d="M19.46,110.38c.3-1.77.59-3.53.9-5.3.48-2.81,1-5.62,1.46-8.43.37-2.12.77-4.25,1.14-6.38.58-3.25,1.14-6.51,1.71-9.76s1.16-6.38,1.72-9.57,1.1-6.43,1.66-9.65c.15-.85.3-1.7.51-2.54,0-.18.3-.36.5-.43a2.09,2.09,0,0,1,.71,0h72.39c1.14,0,1.14,0,1,1.09q-1.17,6.54-2.32,13.08L98.18,87.27c-.6,3.45-1.22,6.9-1.82,10.34q-1.1,6.26-2.18,12.52a2.27,2.27,0,0,1-.06.25Z"/><path class="cls-1" d="M113.58,0c-.27,1.55-.5,3-.74,4.36q-1,5.61-2,11.23c-.4,2.25-.81,4.51-1.21,6.76-.19,1-.4,2-.55,3.06-.06.49-.28.61-.72.6-.63,0-1.26,0-1.88,0H35.66c-.24,0-.48,0-.71,0-.57.05-.63-.19-.54-.7.5-2.7,1-5.4,1.43-8.11.38-2.17.78-4.33,1.17-6.5l1.41-8.11c.12-.68.26-1.36.38-2A.55.55,0,0,1,39.46,0c.24,0,.48,0,.71,0h73.41Z"/><path class="cls-1" d="M42.59,55.11c.22-1.31.44-2.58.67-3.85.8-4.56,1.62-9.11,2.4-13.68.11-.6.31-.82,1-.81,2.64,0,5.28,0,7.92,0a.88.88,0,0,1,1,.68c.81,2.22,1.66,4.42,2.5,6.62l.32.77c.1-.33.16-.49.19-.65.4-2.24.81-4.47,1.18-6.71.09-.53.3-.71.84-.71,2.82,0,5.63,0,8.44,0,.75,0,.77,0,.64.78-1,5.66-2,11.33-3,17-.09.48-.27.66-.76.65q-4.32,0-8.63,0a.82.82,0,0,1-.9-.64c-.82-2.18-1.67-4.36-2.52-6.54a1.56,1.56,0,0,0-.42-.65c-.06.25-.12.51-.16.76-.39,2.17-.78,4.34-1.15,6.52a.55.55,0,0,1-.64.54H43.09A3,3,0,0,1,42.59,55.11Z"/><path class="cls-1" d="M13.39,36.84c-.2,1.19-.39,2.32-.59,3.44-.57,3.23-1.14,6.47-1.72,9.7-.09.49,0,.68.54.67,1.4,0,2.81,0,4.22,0h.76a5,5,0,0,1,0,.55c-.2,1.17-.42,2.34-.61,3.51a.52.52,0,0,1-.6.51H.46A3.63,3.63,0,0,1,0,55.15c.18-1,.34-2.07.52-3.08.85-4.84,1.71-9.67,2.54-14.51.1-.57.3-.8.91-.79,2.87,0,5.75,0,8.63,0C12.83,36.78,13.06,36.82,13.39,36.84Z"/><path class="cls-1" d="M26.27,55.13c.17-1,.32-2,.5-2.94.28-1.53.29-1.53,1.86-1.55,1,0,1.38-.34,1.58-1.42.65-3.68,1.28-7.37,1.95-11,.28-1.56-.07-1.38,1.61-1.39h7.92c.8,0,.81,0,.67.81-.66,3.75-1.31,7.5-2,11.24a9.85,9.85,0,0,1-1.56,4,5.57,5.57,0,0,1-4.55,2.37c-2.55.1-5.11,0-7.66.05A2.08,2.08,0,0,1,26.27,55.13Z"/><path class="cls-1" d="M16.89,49.65c.13-.82.24-1.52.36-2.21.59-3.32,1.2-6.64,1.76-10,.09-.55.31-.71.84-.71,3,0,5.93,0,8.89,0,.62,0,.75.17.64.79q-1,5.64-2,11.3c-.11.61-.34.81-1,.8-2.92,0-5.83,0-8.75,0Z"/><path class="cls-1" d="M56.56,29.13c-.1.62-.19,1.17-.29,1.71-.13.77-.31,1.53-.39,2.3-.06.52-.32.64-.77.63-.85,0-1.69,0-2.54,0H33.82c-.88,0-.9,0-.76-.88.17-1.07.38-2.13.54-3.19.08-.56.42-.6.87-.6,3.83,0,7.66,0,11.49,0H55.7Z"/><path class="cls-1" d="M71.13,29.09c-.26,1.54-.49,2.94-.78,4.32,0,.16-.46.34-.71.34-2.21,0-4.41,0-6.62,0H56.41a5.47,5.47,0,0,1,0-.75c.18-1.06.4-2.12.56-3.19.08-.56.32-.75.89-.74,1.62,0,3.24,0,4.86,0h8.37Z"/><path class="cls-1" d="M75.1,33.76c-1.16,0-2.33,0-3.5,0-.53,0-.69-.18-.58-.7.22-1.1.43-2.21.59-3.32.07-.47.26-.67.76-.66,2.33,0,4.67,0,7,0,.53,0,.68.17.57.7-.22,1.1-.41,2.21-.58,3.32-.07.48-.27.67-.75.66C77.44,33.75,76.27,33.76,75.1,33.76Z"/><path class="cls-1" d="M22.09,33.74c-.61,0-1.21,0-1.82,0-.37,0-.57-.1-.49-.54.23-1.19.41-2.39.66-3.57a.73.73,0,0,1,.52-.48c1.32,0,2.64,0,4,0a1.32,1.32,0,0,1,1.35,1.3,2.65,2.65,0,0,1-2.69,3.25Zm.15-1.4c1.05.41,1.78-.38,1.62-1.44-.07-.47-.43-.58-.85-.6s-.49.25-.53.58C22.41,31.36,22.32,31.84,22.24,32.34Z"/><path class="cls-1" d="M85.64,29.1c-.13.79-.22,1.46-.34,2.14S85,32.46,85,33.08s-.28.7-.79.69c-1.21,0-2.41,0-3.62,0-.48,0-.65-.12-.53-.65.23-1.11.4-2.25.57-3.37.08-.45.25-.68.76-.67C82.74,29.12,84.11,29.1,85.64,29.1Z"/><path class="cls-1" d="M29.76,31c0,.46,0,.86-.6.86-.11,0-.22.19-.33.3.12.11.24.29.38.32a5.21,5.21,0,0,0,.88.06c.13,1,0,1.21-1,1.21-.73,0-1.47,0-2.2,0-.48,0-.67-.13-.56-.65.23-1.12.39-2.26.62-3.38,0-.21.26-.54.4-.55,1.1,0,2.2,0,3.28,0,.16,1,0,1.14-.81,1.15a1,1,0,0,0-.38,0,1.6,1.6,0,0,0-.38.26,2.85,2.85,0,0,0,.36.34A1,1,0,0,0,29.76,31Z"/><path class="cls-1" d="M85.65,33.76c.27-1.52.5-2.89.78-4.26a.62.62,0,0,1,.46-.38c.71,0,1.43,0,2.14,0,.39,0,.48.2.41.55l-.63,3.56c-.07.37-.23.57-.65.56C87.35,33.75,86.54,33.76,85.65,33.76Z"/><path class="cls-1" d="M92.35,29.11c-.22,1.23-.41,2.34-.6,3.46a.14.14,0,0,1,0,.06c-.23,1.16-.5,1.36-1.68,1.1a.57.57,0,0,1-.33-.46q.28-1.89.66-3.75a.61.61,0,0,1,.41-.39A13.22,13.22,0,0,1,92.35,29.11Z"/><path class="cls-1" d="M94.53,29.23c-.19,1.09-.37,2.18-.56,3.28,0,.25-.11.5-.13.76-.06.53-.43.52-.81.48s-.34-.39-.28-.67c.18-1.06.37-2.12.55-3.18C93.45,29.05,93.59,29,94.53,29.23Z"/><path class="cls-1" d="M96.75,29.22c-.26,1.42-.51,2.84-.8,4.24,0,.13-.35.24-.54.26s-.28-.28-.26-.41c.2-1.3.42-2.59.7-3.88,0-.17.48-.26.74-.39Z"/><path class="cls-1" d="M98.64,29.2l-.51,3a12.13,12.13,0,0,1-.24,1.2c0,.11-.23.18-.35.27-.06-.12-.19-.25-.17-.36.21-1.3.43-2.59.69-3.88,0-.15.25-.26.39-.39Z"/><path class="cls-1" d="M99.58,33.67c.07-.46.14-.91.22-1.37.17-.93.33-1.86.51-2.79,0-.13.18-.23.27-.35,0,.14.17.29.15.42-.2,1.24-.41,2.47-.64,3.69a1.84,1.84,0,0,1-.31.49Z"/><path class="cls-1" d="M103,29.19a38.16,38.16,0,0,1-.8,4.52l-.34-.06c.26-1.51.53-3,.79-4.52Z"/><path class="cls-1" d="M105.55,29.21c-.27,1.49-.53,3-.8,4.47l-.3,0,.78-4.48Z"/><path class="cls-1" d="M107.43,33.59c.26-1.46.51-2.91.76-4.37l.26,0c-.25,1.46-.5,2.91-.76,4.36Z"/></g></g></svg>