<svg xmlns="http://www.w3.org/2000/svg" viewBox="0 0 105.87 118.72"><defs><style>.cls-1{fill:#fff;}</style></defs><title>De-Mensen</title><g id="Layer_2" data-name="Layer 2"><g id="Layer_1-2" data-name="Layer 1"><g id="White"><g id="DeMensen"><path class="cls-1" d="M20.65,0H0V35.29H19.52S29.85,34,31,25.9V11.83S32.29,2.06,20.65,0Zm2.44,12.2V25c-1.13,3.57-5.45,3.57-5.45,3.57H7.7V6.38H19.33C24.21,8.26,23.09,12.2,23.09,12.2Z"/><polygon class="cls-1" points="0 76.77 0 41.48 6.01 41.48 15.45 61.03 25.15 41.48 31.02 41.48 31.02 76.77 23.2 76.77 23.2 61.03 18.39 69.83 12.95 69.83 7.7 60.07 7.7 76.77 0 76.77"/><path class="cls-1" d="M8.92,107.65s.13,5.07,6.59,5.07,8.14-1.79,8.14-3.94-.89-3.1-8.14-5.07S1.13,99.2,1.13,92.73,6.85,82.5,16.89,82.5s14.55,4.6,14.55,10.6H23.56s-.19-4.31-7.28-4.31-6.52,3.66-6.52,3.84-1.31,3,11.36,6,10.32,9.76,10.32,10.61.19,9.47-14.08,9.47S1.13,112.34,1.13,107.65Z"/><polygon class="cls-1" points="74.99 76.77 74.99 41.48 81.84 41.48 98.45 63.82 98.45 41.48 105.87 41.48 105.87 76.77 98.92 76.77 82.31 54.15 82.31 76.77 74.99 76.77"/><polygon class="cls-1" points="74.99 118.72 74.99 83.44 81.84 83.44 98.45 105.77 98.45 83.44 105.87 83.44 105.87 118.72 98.92 118.72 82.31 96.11 82.31 118.72 74.99 118.72"/><g id="Lines"><rect class="cls-1" x="37.45" width="31.44" height="7.7" rx="1"/><rect class="cls-1" x="37.45" y="13.8" width="31.44" height="7.7" rx="1"/><rect class="cls-1" x="37.45" y="27.59" width="31.44" height="7.7" rx="1"/><rect class="cls-1" x="37.45" y="41.39" width="31.44" height="7.7" rx="1"/><rect class="cls-1" x="37.45" y="55.28" width="31.44" height="7.7" rx="1"/><rect class="cls-1" x="37.45" y="69.17" width="31.44" height="7.7" rx="1"/><rect class="cls-1" x="37.45" y="83.06" width="31.44" height="7.7" rx="1"/><rect class="cls-1" x="37.45" y="96.76" width="31.44" height="7.7" rx="1"/><rect class="cls-1" x="37.45" y="110.47" width="31.44" height="7.7" rx="1"/></g></g></g></g></g></svg>