<svg xmlns="http://www.w3.org/2000/svg" viewBox="0 0 215.31 121.54"><defs><style>.cls-1{fill:#fff;}</style></defs><title>De-Persgroep</title><g id="Layer_2" data-name="Layer 2"><g id="Layer_1-2" data-name="Layer 1"><path class="cls-1" d="M57.63,19.47c0-.4,0-.74,0-1.07,0-4.84,0-9.69,0-14.53a1,1,0,0,1,.86-1.16C67.53-.1,76.7-.95,86,1.23c12.1,2.85,21.12,9.66,26.18,21.22a37.29,37.29,0,0,1,2.7,19.85C113,57.09,105.7,68.89,94.64,78.52A61.74,61.74,0,0,1,65.52,92.87c-2.32.45-4.68.63-7,.94l-.84.08v1c0,4.79,0,9.58,0,14.36a1.19,1.19,0,0,1-1,1.38,52.43,52.43,0,0,1-24.1,2.09C19,110.55,8.68,103.69,3,90.79A37,37,0,0,1,.32,71.11C2,57,8.85,45.53,19.17,36a62.88,62.88,0,0,1,25.2-14.27,54.81,54.81,0,0,1,11.85-2.14C56.66,19.59,57.1,19.53,57.63,19.47ZM34.44,93.79C42.17,69,49.82,44.42,57.53,19.67c-1.21.4-2.2.69-3.17,1.06a58.93,58.93,0,0,0-32,28.36c-3.83,7.29-5.79,15.07-4.74,23.38,1,7.93,4.69,14.25,11.5,18.58C30.77,92.09,32.59,92.85,34.44,93.79Zm46.3-74.12c-7.68,24.62-15.33,49.18-23,73.9.52-.15.82-.23,1.11-.33A58.62,58.62,0,0,0,92.94,64c3.79-7.24,5.67-15,4.63-23.23A24.83,24.83,0,0,0,80.74,19.67Z"/><path class="cls-1" d="M135.72,94.92c1.65.13,3.47.15,5.24.45a3,3,0,0,1,2.76,2.85,3.4,3.4,0,0,1-2.39,3.73l-.79.31c1.63,2,3.1,3.91,4.77,5.67a5,5,0,0,0,4.17,1.47,3.06,3.06,0,0,0,2.45-5,12.69,12.69,0,0,0-2.14-2.13c-.82-.73-1.73-1.36-2.51-2.13a2.9,2.9,0,0,1-.58-3.56,3.26,3.26,0,0,1,3.32-1.7l.49.08c1.87.35,1.87.35,1.59,2.4-.24-.36-.41-.65-.62-.92a2.49,2.49,0,0,0-3.4-.47,2.09,2.09,0,0,0,0,3.14,11.24,11.24,0,0,0,1.28,1.1c.77.62,1.59,1.17,2.32,1.82a4.89,4.89,0,0,1,1.79,3.94,4.05,4.05,0,0,1-3.08,3.86A6.45,6.45,0,0,1,143.8,108a38.07,38.07,0,0,1-3.45-4.37,2.48,2.48,0,0,0-3.06-1.09c.2,2.33-.38,4.74.46,7.15h-2c.08-1.15.23-2.3.24-3.45q.06-4.09,0-8.19C136,97.08,135.84,96.1,135.72,94.92Zm1.64.65v6.37a25.77,25.77,0,0,0,3.41-.66,2.61,2.61,0,0,0,1.71-2.73,2.55,2.55,0,0,0-1.9-2.51A24,24,0,0,0,137.36,95.57Z"/><path class="cls-1" d="M86.61,95a17.9,17.9,0,0,1,6.88.83,7.49,7.49,0,0,1,3.88,10.38,6.09,6.09,0,0,1-4.82,3.19,46.8,46.8,0,0,1-6.2.32c.93-.89.76-2,.76-3,0-3.07,0-6.14,0-9.2A15.35,15.35,0,0,0,86.61,95Zm1.81.66V103c0,1.51,0,3,0,4.55,0,1,.4,1.45,1.28,1.56,4.13.47,7.09-2.25,6.94-6.39-.09-2.43-.84-4.53-3.09-5.82A10.16,10.16,0,0,0,88.42,95.7Z"/><path class="cls-1" d="M181.52,109.31a1.9,1.9,0,0,1-2.2.26,7.91,7.91,0,0,1-2.35-1.73c-1.17-1.32-2.2-2.77-3.26-4.19s-1.11-1.42-3-1.11c.22,2.36-.4,4.78.45,7.16h-2c.1-.88.28-1.73.29-2.57q0-4.77,0-9.54a24.56,24.56,0,0,0-.3-2.54,18.21,18.21,0,0,1,5.65.4,3,3,0,0,1,2.39,2.83,3.39,3.39,0,0,1-2,3.49c-.3.15-.62.26-1,.43,1.64,2.25,3.06,4.62,5.27,6.32A7.53,7.53,0,0,0,181.52,109.31ZM170.8,102a25.09,25.09,0,0,0,3.44-.72,2.55,2.55,0,0,0,1.61-2.78,2.41,2.41,0,0,0-1.78-2.4,23.9,23.9,0,0,0-3.34-.5v5.62C170.73,101.35,170.76,101.51,170.8,102Z"/><path class="cls-1" d="M194.61,102.86a7.46,7.46,0,0,1-3.45,6.1A6.81,6.81,0,0,1,181,105.78a8.09,8.09,0,0,1,1.31-8.56,7,7,0,0,1,7.88-2C192.92,96.22,194.67,99,194.61,102.86Zm-1.12-.15a8,8,0,0,0-1.36-4.55c-2.48-3.58-7.9-3.44-9.76.33a7.75,7.75,0,0,0,.53,8.18,5.53,5.53,0,0,0,6,2.43,5.26,5.26,0,0,0,4.37-4.47C193.37,104,193.41,103.35,193.49,102.71Z"/><path class="cls-1" d="M166.66,95.49,165.91,98a3.23,3.23,0,0,0-3.24-2.59,5.6,5.6,0,0,0-4.8,2,8.57,8.57,0,0,0,.37,10.47,5.55,5.55,0,0,0,7.38.35.86.86,0,0,0,.31-.55c-.05-1-.15-1.92-.25-2.93h1.7c-.06,1.06-.08,2.14-.19,3.21a1.06,1.06,0,0,1-.46.73,19.5,19.5,0,0,1-2.1.9,7.19,7.19,0,0,1-9.77-6.06c-.42-4.18,1.77-7.64,5.54-8.5a11.71,11.71,0,0,1,3.5-.07A19.69,19.69,0,0,1,166.66,95.49Z"/><path class="cls-1" d="M125.17,109.76a12.6,12.6,0,0,0,.49-2.31c0-3.37,0-6.75,0-10.12a10.81,10.81,0,0,0-.5-2.23h7.12v1.76a2.52,2.52,0,0,0-2.44-1.16H127v5.58c1.71-.16,3.45.36,5.14-.45v1.26l-5.09-.23c0,2.12,0,4.1,0,6.08,0,.78.66,1.06,1.37,1.12a5.52,5.52,0,0,0,4.93-1.6,4.31,4.31,0,0,1,.44-.32c-.32.9-.54,1.62-.83,2.31a.7.7,0,0,1-.52.3Z"/><path class="cls-1" d="M198.1,95.65v5.64c1.73-.17,3.44.34,5.13-.45v1.49c-1.69-.75-3.39-.25-5.11-.42,0,2.08,0,4,0,6,0,.76.63,1.08,1.35,1.14a6,6,0,0,0,5.37-1.8c-.27.76-.53,1.53-.82,2.28a.52.52,0,0,1-.4.22h-7.89c1.15-.88,1-1.92,1-2.92,0-3.15,0-6.3,0-9.45a11.23,11.23,0,0,0-.51-2.29h7.09v1.59C201.85,95.05,199.93,95.94,198.1,95.65Z"/><path class="cls-1" d="M106.89,102.41a9.68,9.68,0,0,0-5.08-.38c0,2,0,4,0,6,0,.71.64,1,1.32,1.07a5.54,5.54,0,0,0,5.12-1.73c0-.06.13-.08.31-.19-.29.82-.51,1.53-.8,2.22a.73.73,0,0,1-.53.39c-2.5,0-5,0-7.77,0,1.14-1,1-2.08,1-3.16,0-3.09,0-6.19,0-9.28a10.15,10.15,0,0,0-.51-2.22H107v1.63c-1.5-1.68-3.41-.77-5.2-1.09v5.64c1.68-.15,3.39.33,5.08-.43Z"/><path class="cls-1" d="M117.56,102.33a.74.74,0,0,1,.3,0,3,3,0,0,0,4.07-1.44,3.41,3.41,0,0,0-1.24-4.5,7.3,7.3,0,0,0-3.88-.68c0,.31-.06.56-.06.81,0,3.6,0,7.2,0,10.8a20,20,0,0,0,.32,2.38h-1.91c.09-1,.26-1.94.27-2.89q.06-4.74,0-9.46A18.88,18.88,0,0,0,115.1,95a20.18,20.18,0,0,1,2.05,0,21.09,21.09,0,0,1,4,.56,3.72,3.72,0,0,1,2.21,5,4.21,4.21,0,0,1-4.92,2.43,6.4,6.4,0,0,1-.94-.55Z"/><path class="cls-1" d="M209.08,102.46a10.33,10.33,0,0,0,2.37.17,3.24,3.24,0,0,0,2.54-3,3.1,3.1,0,0,0-2.12-3.45,27.46,27.46,0,0,0-3.36-.63c0,.44-.07.68-.07.93,0,3.63,0,7.26,0,10.89a18.13,18.13,0,0,0,.33,2.33H206.9c.09-1.12.24-2.24.26-3.37,0-2.78,0-5.57,0-8.36,0-1-.2-1.91-.33-3.08a46.13,46.13,0,0,1,5.59.58c2.31.5,3.35,2.61,2.7,4.91a4.17,4.17,0,0,1-4.83,2.72A6.28,6.28,0,0,1,209.08,102.46Z"/><path class="cls-1" d="M187.74,121.51c-.88-2-1.68-3.84-2.48-5.68l-.17,0c-.12,1.8-.23,3.6-.36,5.48l-.36,0c0-2.48.9-4.94.09-7.49.43-.16.73.06,1,.63.78,1.89,1.61,3.76,2.51,5.85l2.94-6.46h.57c-.52,2.51.17,5,.19,7.44h-.71l-.3-5.57-.18-.06Z"/><path class="cls-1" d="M198.69,113.71a24,24,0,0,1,3.52.64,3.51,3.51,0,0,1,2.31,4,3.18,3.18,0,0,1-3,2.9c-.94.14-1.9.14-2.8.2Zm.83.59c0,2,0,4,0,5.93a1.09,1.09,0,0,0,.69.76,3,3,0,0,0,3.49-2.51C204.11,115.84,202.35,114,199.52,114.3Z"/><path class="cls-1" d="M177.8,117.55c1.18,1.35,1.84,3.1,3.75,3.61a1.35,1.35,0,0,1-1.8-.34,28,28,0,0,1-2.15-2.58,1.15,1.15,0,0,0-1.46-.52v3.6h-.85v-7.51c.88.07,1.82.09,2.74.25a1.46,1.46,0,0,1,1.32,1.34,1.73,1.73,0,0,1-1,1.88Zm-1.76-.29a9,9,0,0,0,1.06,0c1.17-.17,1.76-.87,1.57-1.84a1.9,1.9,0,0,0-2.29-1.2.54.54,0,0,0-.32.39C176,115.46,176,116.32,176,117.26Z"/><path class="cls-1" d="M166.33,117.74a3.8,3.8,0,0,1,3.84-4,3.64,3.64,0,0,1,3.56,3.82,3.89,3.89,0,0,1-3.83,4A3.62,3.62,0,0,1,166.33,117.74Zm6.77,0a3.34,3.34,0,0,0-3.14-3.6c-1.85,0-3.06,1.34-3,3.4a3.29,3.29,0,0,0,3.19,3.54C172,121.07,173.11,119.78,173.1,117.73Z"/><path class="cls-1" d="M149.79,117.51a3.84,3.84,0,0,1-3.77,4,3.65,3.65,0,0,1-3.62-3.77,3.86,3.86,0,0,1,3.84-4.06A3.58,3.58,0,0,1,149.79,117.51Zm-6.77-.06a3.31,3.31,0,0,0,3.19,3.62c1.82,0,3-1.31,3-3.34a3.37,3.37,0,0,0-3.15-3.6C144.23,114.12,143,115.44,143,117.45Z"/><path class="cls-1" d="M156.84,120v-6.18c.23.17.51.28.51.39,0,2.31-.06,4.62-.1,6.92,0,0-.05.09-.15.22L152,115.45v5.87h-.47c0-2,.06-3.95,0-5.91,0-.5-.48-1-.76-1.52a1,1,0,0,1,1.19.43c1.38,1.63,2.78,3.25,4.18,4.87C156.33,119.42,156.54,119.63,156.84,120Z"/><path class="cls-1" d="M193.2,121.37a39.25,39.25,0,0,0,0-7.51c1,0,2.1,0,3.21,0,.16,0,.3.36.44.54l-2.77-.3v2.82h2.61l0,.48h-2.67a27.14,27.14,0,0,0,0,2.86,1.1,1.1,0,0,0,.83.7,18.9,18.9,0,0,0,2.47-.48c0,.6-.36,1-1.23.89S194.14,121.37,193.2,121.37Z"/><path class="cls-1" d="M117.12,121.35h-.84v-7.58a19.77,19.77,0,0,1,3.14.44,1.83,1.83,0,0,1,1,2.65,2.09,2.09,0,0,1-3,.76c1,.31,1.87.15,2.2-.66a2.45,2.45,0,0,0,0-1.88c-.49-.93-1.52-.87-2.47-.82Z"/><path class="cls-1" d="M209,121.35h-.56l3.27-7.63,3.12,7.62H214c-.42-1.07-.8-2.07-1.23-3-.06-.14-.36-.23-.55-.25-2-.16-2-.16-2.8,1.74C209.27,120.26,209.14,120.77,209,121.35Zm2.55-6.43-1.13,2.71h2.21Z"/><path class="cls-1" d="M121.94,121.34h-.55c1-2.46,2.11-5,3.26-7.62,1.08,2.65,2.1,5.12,3.12,7.62H127c-.4-1.06-.77-2.07-1.19-3-.06-.14-.36-.23-.56-.25-2-.16-2-.15-2.79,1.74C122.24,120.26,122.12,120.78,121.94,121.34Zm1.4-3.7h2.24l-1.1-2.71Z"/><path class="cls-1" d="M165.21,117.1v.47h-2.72v3.74h-.89v-7.46c1,0,2.17,0,3.31,0,.18,0,.35.35.49.49-.92-.06-1.73-.15-2.54-.15-.15,0-.42.34-.43.53-.05.75,0,1.51,0,2.35Z"/><path class="cls-1" d="M132.46,114.59a3,3,0,0,0-1.12-.49,1.57,1.57,0,0,0-1.2.49c-.17.29,0,.88.21,1.27s.48.45.74.66.74.53,1.07.83a2.38,2.38,0,0,1,.59,3.3,2.64,2.64,0,0,1-3.51.42c-.24-.17-.34-.54-.51-.81l.36-.3a3.53,3.53,0,0,0,.47.75,2,2,0,0,0,2.69-.06,1.6,1.6,0,0,0-.22-2.39c-.54-.54-1.18-1-1.76-1.45-.93-.8-1.12-1.55-.6-2.35a2,2,0,0,1,2.49-.54c.2.09.3.37.45.56Z"/><path class="cls-1" d="M137.83,114.57c-.47-.19-.86-.49-1.23-.47a1.64,1.64,0,0,0-1.18.53c-.17.26,0,.85.21,1.2s.57.52.87.77.74.53,1.06.83a2.37,2.37,0,0,1,.41,3.33,2.7,2.7,0,0,1-3.48.28c-.2-.15-.27-.49-.39-.75l.19-.11a7.5,7.5,0,0,0,.73.66,2,2,0,0,0,2.62-.28,1.62,1.62,0,0,0-.28-2.27c-.57-.58-1.26-1-1.88-1.57a1.69,1.69,0,0,1-.72-1.77,1.94,1.94,0,0,1,2.92-.94C137.79,114.11,137.77,114.34,137.83,114.57Z"/><path class="cls-1" d="M140.81,121.35H140v-7.43h.84Z"/><path class="cls-1" d="M206.81,121.35H206V113.9l.85,0Z"/></g></g></svg>