<svg xmlns="http://www.w3.org/2000/svg" viewBox="0 0 194.88 183.73"><defs><style>.cls-1{fill:#fff;}</style></defs><title>Fish-Digital</title><g id="Layer_2" data-name="Layer 2"><g id="Layer_1-2" data-name="Layer 1"><g id="zWarAD"><path class="cls-1" d="M142,92c.79.43,1.37.71,1.91,1.06,2.46,1.59,2.65,2.63,1.31,5.26-5,9.84-13.53,15.28-23.74,18.06C102,121.69,83.87,118,68.33,105.24,41.13,82.93,39.75,44.42,62.4,19.47c.68-.75,1.24-1.81,2.09-2.18,1.35-.58,3.26-1.39,4.28-.86,1.6.84,2.12,2.6,1.11,4.76a35.7,35.7,0,0,0-3.22,18A13.43,13.43,0,0,0,74.1,50.61,116.19,116.19,0,0,0,94.77,58.9c8.56,2.53,17.48,3.83,26.13,6.09,9.17,2.41,17.06,6.93,22,15.5C145.53,85,145.37,88.08,142,92Zm-19-7.95c1.69.5,3.12,1.41,4.23,1.12a5,5,0,0,0,2.87-2.78,3.43,3.43,0,0,0-2.83-4.54,5.56,5.56,0,0,0-2.92.47C121.54,79.63,124.58,82.24,123.05,84Z"/><path class="cls-1" d="M128.18,7.65c-2.53,1.09-5,2.62-7.61,3.14s-5.76.12-9.06.12c2.47,5.94,3.86,11.58.94,18.18-.6-1.46-.94-2.16-1.19-2.9-1.89-5.47-5-9.39-11-11.25A32.89,32.89,0,0,0,80,14.79a37.38,37.38,0,0,1-5.15,1.08c-1.24.2-4.44-2.23-4.48-3.47a1.93,1.93,0,0,1,1-1.44c1.31-.7,2.8-1.08,4.08-1.83C77.27,8,78.9,6.39,80.88,5.51,96.36-1.43,112.11-1.69,128,4a46.34,46.34,0,0,1,4.31,2.05L132,8.68,130.72,7.3Z"/><path class="cls-1" d="M81,160.75c0-3.87.1-7.75,0-11.62-.08-2.2.73-3,2.87-2.9,1.84.08,3.69-.1,5.53-.11,10.56-.06,14.8,6.82,14,16S97.5,175.4,88.17,175.38c-7.2,0-7.2,0-7.2-7.15Zm5.55-.05c0,2.59-.09,5.18.06,7.75a2.53,2.53,0,0,0,1.34,1.89c3.57.9,7.71-1.14,8.66-4.68a20.36,20.36,0,0,0,.55-8.14c-.7-4.7-4.09-6.85-8.8-6.39-1.41.14-1.89.7-1.84,2.1C86.59,155.72,86.52,158.21,86.52,160.7Z"/><path class="cls-1" d="M120.26,178.6c8.92.85,10.14.3,9.71-4.48-.61.27-1.17.55-1.74.76-5.33,2-10-.77-10.72-6.4a25.88,25.88,0,0,1-.29-3c-.12-9.37,8.93-14.83,17.28-10.36a2.6,2.6,0,0,1,1,2c.06,6.09.14,12.18,0,18.27-.17,5.55-3,8.17-8.53,8.36a22.65,22.65,0,0,1-3.86-.2C119.08,183,119,182.82,120.26,178.6Zm9.92-14.44c0-1.2.07-2.4,0-3.59a2.47,2.47,0,0,0-.7-1.62c-1.54-1.07-5.35-.22-5.72,1.61a23.63,23.63,0,0,0-.16,8.26c.13.86,2.35,1.92,3.65,2,1.81.07,2.91-1.38,2.95-3.32C130.2,166.37,130.18,165.26,130.18,164.16Z"/><path class="cls-1" d="M54,155.82c2.12-.6,3.91-1.43,5.75-1.57,4.09-.3,6.21,1.38,6.49,5.45.31,4.61.12,9.25.13,13.87,0,2.2-1.72,1.44-2.85,1.54s-2.48.25-2.43-1.68c.07-3.14,0-6.29,0-9.43,0-3.75-.89-5.17-3.12-5.19-2.52,0-4,1.86-4,5.23,0,2.59,0,5.18,0,7.76,0,3.45,0,3.46-3.52,3.32a17.7,17.7,0,0,1-1.8-.26c0-9,0-17.82,0-26.68,0-2,1.36-1.65,2.5-1.6S54,146,54,148.14C54,150.7,54,153.27,54,155.82Z"/><path class="cls-1" d="M0,160.69c0-4,.07-7.95,0-11.92,0-1.72.59-2.27,2.25-2.24,4.25.08,8.51.11,12.76,0,2.11-.07,2.13,1.09,2.13,2.62s-.1,2.53-2,2.42c-2.21-.13-4.45.12-6.65-.07s-3,.77-2.71,2.86a4.05,4.05,0,0,1,0,1.1c-.37,2.41.55,3.42,3.05,3.12,1.46-.18,3,.14,4.43-.07,2.75-.41,3.28.89,3.1,3.28-.11,1.52-.76,1.86-2.09,1.82-2.13-.06-4.26.05-6.38,0-1.54-.05-2.17.53-2.12,2.09.07,2.5-.09,5,0,7.49.12,2.25-1.33,2-2.73,2s-3.11.6-3-1.94C.11,169,0,164.86,0,160.69Z"/><path class="cls-1" d="M181.12,175.54l-5.94-2a7.4,7.4,0,0,1-7.09,1.59,5.41,5.41,0,0,1-4.18-4.94c-.28-2.49.47-4.78,2.91-5.72,2.1-.82,4.45-.94,6.66-1.52a10,10,0,0,0,2.31-1.3c-.71-.94-1.31-2.56-2.15-2.7a13.36,13.36,0,0,0-5.43.45c-1.89.51-2.16-.52-2.62-1.84s.09-2.21,1.36-2.38a45.25,45.25,0,0,1,8.49-.74c4.1.26,5.86,3.22,5.7,8.27C181,166.68,181.12,170.63,181.12,175.54ZM174.18,166c-2.49.36-4.72.25-4.66,2.8,0,.75,1.55,1.92,2.52,2.08,2,.34,3.91-1.41,3.62-3.14C175.53,167,174.55,166.39,174.18,166Z"/><path class="cls-1" d="M32,170.13a21.79,21.79,0,0,0,4.75,1c1.07,0,2.13-.88,3.2-1.37a13,13,0,0,0-2.2-2.45c-1.14-.74-2.57-1-3.78-1.68-2.57-1.4-3.58-3.75-3-6.81a5.12,5.12,0,0,1,4.95-4.47,38,38,0,0,1,7.11.57c1.57.19,1.86,1.15,1.4,2.61s-.94,2.06-2.56,1.48a8.8,8.8,0,0,0-3.53-.46,2.35,2.35,0,0,0-1.8,1.22c-.13.52.51,1.52,1.08,1.87a27.4,27.4,0,0,0,3.56,1.52c3.19,1.38,4.52,3.53,4.19,6.71A5.79,5.79,0,0,1,40,175.3a18.59,18.59,0,0,1-6-.16C30.07,174.4,29.93,173.86,32,170.13Z"/><path class="cls-1" d="M156.69,149.51a6.67,6.67,0,0,1,.25,1.77c-.39,2.63.62,3.76,3.32,3.36,1.89-.28,1.71,1.08,1.77,2.32.07,1.43-.23,2.43-1.94,2.16-2.68-.42-3.43.87-3.15,3.31a38.61,38.61,0,0,1,0,3.88c0,4.33.36,4.67,4.49,4.36,1.62,3.68,1.38,4.16-2.45,4.86-4.63.84-7.19-1.11-7.4-5.77-.12-2.49,0-5-.05-7.49,0-1.49.51-3.26-2-3.37-.28,0-.71-1.52-.68-2.33a3.38,3.38,0,0,1,1-1.89c.41-.46,1.59-.74,1.57-1C151,149.51,154.33,150.31,156.69,149.51Z"/><path class="cls-1" d="M194.37,170.62c.9,4.32.9,4.32-2.38,4.91-3.58.64-6-.64-6.34-3.51a46.15,46.15,0,0,1-.15-5.52c0-6,.07-12,0-18-.05-2.4,1.43-2,2.91-2.11s2.58.09,2.54,2.15c-.12,6.27,0,12.54-.07,18.8C190.81,169.83,191.25,171.52,194.37,170.62Z"/><path class="cls-1" d="M26.43,165c0,2.67-.11,5.35,0,8,.12,2.11-1.08,2.23-2.6,2.12-1.34-.11-3.08.6-3-1.94.1-5.52.07-11.05,0-16.57,0-2.64,1.88-1.87,3.31-2,1.59-.16,2.38.32,2.3,2.11C26.34,159.47,26.43,162.24,26.43,165Z"/><path class="cls-1" d="M145.86,175h-5.39V162a29.6,29.6,0,0,0,0-4.42c-.46-2.93,1.18-3.12,3.38-3,1.29.07,2.09.25,2.08,1.81C145.83,162.49,145.86,168.57,145.86,175Z"/><path class="cls-1" d="M113.16,174.73a5.69,5.69,0,0,1-1,.31c-4.38.34-4.38.34-4.38-4.06,0-4.7.09-9.4-.05-14.1-.06-2.21,1.09-2.3,2.75-2.29s2.78,0,2.72,2.27C113.06,162.82,113.16,168.8,113.16,174.73Z"/><path class="cls-1" d="M73.86,175.37c-2.43,0-3.63-1.18-3.64-3.19a3,3,0,0,1,3.17-3.11,3,3,0,0,1,3.5,3.07A2.94,2.94,0,0,1,73.86,175.37Z"/><path class="cls-1" d="M110.44,151.77c-1.76-.17-3.32-.74-3.3-2.87,0-2,1.46-2.66,3.15-2.76,1.89-.1,3.37.77,3.51,2.73C113.94,151,112.23,151.52,110.44,151.77Z"/><path class="cls-1" d="M143.28,151.77c-1.93-.17-3.7-.91-3.31-2.88.22-1.08,1.91-2.37,3.13-2.64a2.7,2.7,0,0,1,3.42,2.67C146.63,151.15,144.88,151.49,143.28,151.77Z"/><path class="cls-1" d="M23.84,151.79c-2.06-.16-3.84-.89-3.42-2.9.24-1.1,1.91-2.4,3.15-2.68A2.7,2.7,0,0,1,27,148.92C27.05,151.07,25.38,151.56,23.84,151.79Z"/><path class="cls-1" d="M128.18,7.65l2.54-.35Z"/></g></g></g></svg>