<svg xmlns="http://www.w3.org/2000/svg" viewBox="0 0 418.15 95"><defs><style>.cls-1{fill:#fff;}</style></defs><title>FruitSnacks</title><g id="Layer_2" data-name="Layer 2"><g id="Layer_1-2" data-name="Layer 1"><g id="Fruitsnacks"><path class="cls-1" d="M355.2,0V40.43l.24.13c.23-.32.47-.63.69-1,3.73-5.87,7.47-11.74,11.17-17.63a2,2,0,0,1,2-1.15c3.56.06,7.12,0,10.68,0h1.44c-.39.63-.63,1.06-.91,1.46-4.21,6-8.41,12.08-12.66,18.09a1.59,1.59,0,0,0,0,2.11q7.41,11.35,14.74,22.76c.25.39.47.79.82,1.38-.63,0-1.05.08-1.47.08-4,0-8,0-12,0a2.21,2.21,0,0,1-2.26-1.3c-3.86-6.87-7.78-13.7-11.68-20.54a2.09,2.09,0,0,0-.73-.82v1.18c0,6.64,0,13.28,0,19.92,0,1.2-.3,1.59-1.54,1.56-3.48-.08-7-.06-10.44,0-1,0-1.38-.32-1.38-1.37q0-32.22,0-64.44c0-.32.06-.63.09-.95Z"/><path class="cls-1" d="M0,8.16l28.08,0c1.72,0,1.72,0,1.72,1.7,0,2.12,0,4.24,0,6.36,0,1-.32,1.31-1.31,1.3-4.4,0-8.8,0-13.2,0-1.09,0-1.45.31-1.43,1.42,0,4,.06,8,0,12,0,1.2.43,1.47,1.54,1.46,3.68-.06,7.36,0,11,0,1,0,1.42.27,1.39,1.35-.07,2.16-.06,4.32,0,6.48,0,1-.38,1.31-1.34,1.3-3.64,0-7.28,0-10.92,0-1.67,0-1.68,0-1.68,1.64v22c0,1.63,0,1.64-1.66,1.64L0,66.72Z"/><path class="cls-1" d="M300.32,27a4.53,4.53,0,0,0-3.63,3.42,13.36,13.36,0,0,0-2.46,0A4.13,4.13,0,0,0,291,34.94a1.42,1.42,0,0,1-.36,1.15c-3.34,1.92-3.85,4.21-1.51,7.27-.29.44-.64.87-.91,1.35a4,4,0,0,0,2,5.72c.67.29,1,.54.86,1.38a4,4,0,0,0,4.67,4.6c.66-.09,1,0,1.24.7.48,1.44,1.66,2.19,3.25,2.75-.81,1-1.48,1.9-2.26,2.7-4.23,4.32-11.81,6.37-17.91,3.11a2.39,2.39,0,0,0-2.56-.19c-7.47,4.13-17.1.89-21.4-7.07a31.57,31.57,0,0,1-3.52-17,30.47,30.47,0,0,1,3.13-12.46c3.19-6.2,8.28-9.43,15.22-9.39A17,17,0,0,1,276.79,21a3.9,3.9,0,0,0,3.58,0c6.37-3.34,15-.86,19.12,4.77Z"/><path class="cls-1" d="M206.78,44.93c0-6.72,0-13.44,0-20.16a1.8,1.8,0,0,1,1.38-2,45.11,45.11,0,0,1,11.91-2.57,43.65,43.65,0,0,1,14.55.67c4.62,1.16,8.51,3.37,10.25,8.13a14.57,14.57,0,0,1,.9,4.79c.08,10.52,0,21,.07,31.55,0,1.11-.33,1.44-1.43,1.42-3.56-.06-7.12-.07-10.67,0-1.16,0-1.4-.42-1.4-1.46,0-10,0-19.92,0-29.88,0-5.12-2.09-7.18-7.25-7a30.86,30.86,0,0,0-3.67.52c-.95.14-1.27.66-1.26,1.65,0,5.48,0,11,0,16.44,0,6.07,0,12.15,0,18.23,0,1.24-.38,1.57-1.57,1.54-3.48-.07-7-.06-10.44,0-1.11,0-1.43-.35-1.43-1.44C206.8,58.52,206.78,51.73,206.78,44.93Z"/><path class="cls-1" d="M105.88,42.64c0,6.64,0,13.28,0,19.92a1.93,1.93,0,0,1-1.43,2.11,44.72,44.72,0,0,1-15.13,2.82,37.8,37.8,0,0,1-11.42-1c-6.33-1.74-10-6.06-10.22-12.61-.25-7.63-.16-15.27-.21-22.91,0-2.92,0-5.84,0-8.76,0-1,.26-1.41,1.35-1.39,3.56.06,7.12.07,10.68,0,1.14,0,1.4.38,1.4,1.45,0,9.88,0,19.76,0,29.64,0,4.56,2.14,6.71,6.72,6.59A25.42,25.42,0,0,0,91.27,58c1-.18,1.39-.76,1.39-1.85,0-11.12,0-22.24,0-33.36a2.7,2.7,0,0,1,0-1.07c.17-.33.55-.8.85-.81,3.8-.05,7.6,0,11.4,0,.85,0,1,.44,1,1.13q0,4.74,0,9.48Z"/><path class="cls-1" d="M155.67,7.83c0,.5.07,1,.07,1.43,0,3.44,0,6.88,0,10.31,0,1,.27,1.37,1.29,1.32,1.56-.07,3.12,0,4.68,0,.77,0,1.06.28,1.05,1.05q-.06,3.3,0,6.6c0,.8-.33,1-1.08,1-1.44,0-2.88,0-4.32,0-1.59,0-1.6,0-1.6,1.56V51.25c0,.84,0,1.68,0,2.52.09,3.52,2.17,5.17,5.63,4.45L162.7,58c0,2.68,0,5.22,0,7.77,0,.24-.42.59-.71.68C156.88,68,151.9,68,147.36,64.87c-3.64-2.48-5-6.28-5-10.51-.07-7.68,0-15.36,0-23,0-1.79,0-1.79-1.73-1.79-3.31,0-3.31,0-3.31-3.35,0-1.44,0-2.88,0-4.31,0-.71.25-1,1-1,.92,0,1.84-.05,2.76,0s1.34-.27,1.32-1.28c-.06-2.48-.06-5,0-7.44,0-.43.39-1.14.73-1.23,4-1.09,8-2.09,12-3.1A2.76,2.76,0,0,1,155.67,7.83Z"/><path class="cls-1" d="M411.15,30.62c-2.16-.69-4.11-1.32-6.07-1.92a3.82,3.82,0,0,0-1-.1c-2.44-.05-4.3,1.06-5,3a4.82,4.82,0,0,0,1.76,5.75,21.54,21.54,0,0,0,3.94,2.24,24.78,24.78,0,0,1,7.62,4.89c4.61,4.71,4.3,14.56-2.31,19.45A17.83,17.83,0,0,1,401,67.33,28.06,28.06,0,0,1,385.94,65c-1.52-.72-1.5-.75-.87-2.31.93-2.29,1.85-4.59,2.84-7,.46.26.82.48,1.19.68,2.7,1.44,5.53,2.34,8.63,1.71a4.59,4.59,0,0,0,3.81-3.41,4.68,4.68,0,0,0-1.38-5.14,21.74,21.74,0,0,0-4.64-2.66c-2.69-1.22-5.28-2.54-7.21-4.83-4.4-5.23-3.33-14,2.19-18.52A15.33,15.33,0,0,1,399.29,20a25,25,0,0,1,13.93,2.65c.88.47,1,.91.59,1.77C412.84,26.55,412,28.7,411.15,30.62Z"/><path class="cls-1" d="M194.43,30.61l-6.09-1.92a3.54,3.54,0,0,0-.47-.07c-2.51-.24-4.65.87-5.45,2.84a4.88,4.88,0,0,0,1.83,5.95,21.67,21.67,0,0,0,3.86,2.15c2.77,1.28,5.5,2.63,7.6,4.91,5,5.48,3.84,14.93-2.43,19.51a18,18,0,0,1-9.11,3.37A28.12,28.12,0,0,1,169.31,65c-1.6-.75-1.59-.78-.95-2.37.93-2.3,1.85-4.59,2.74-6.77a47.14,47.14,0,0,0,5.44,2A12.54,12.54,0,0,0,181,58a4.35,4.35,0,0,0,3.79-3.39,4.68,4.68,0,0,0-1.39-5.14,21.69,21.69,0,0,0-4.54-2.61c-2.72-1.22-5.36-2.54-7.31-4.88-4.7-5.63-3.16-14.83,3.18-19.23A15.19,15.19,0,0,1,182.59,20a24.83,24.83,0,0,1,13.93,2.67c.79.43,1,.82.6,1.67C196.14,26.51,195.26,28.69,194.43,30.61Z"/><path class="cls-1" d="M331.92,30.29a32.72,32.72,0,0,0-5.32-1.21c-3.51-.21-6,1.34-7.11,4.7A34.68,34.68,0,0,0,318,41.36a25.06,25.06,0,0,0,1,10.31,11.86,11.86,0,0,0,.81,2c2.29,4.43,6.93,5.67,11.16,3l.7-.43a6.08,6.08,0,0,1,.43.84c.74,2.07,1.42,4.15,2.2,6.21a1.26,1.26,0,0,1-.54,1.71,14.31,14.31,0,0,1-6.47,2.37c-5.06.68-9.9.21-14.22-2.83a18.18,18.18,0,0,1-6.8-9.21,33.56,33.56,0,0,1,0-22.92c2.32-6.4,6.68-10.8,13.57-12.09a19.21,19.21,0,0,1,13.56,2.16,1.43,1.43,0,0,1,.73,2.12C333.25,26.54,332.56,28.57,331.92,30.29Z"/><path class="cls-1" d="M61.69,20.24l-2.43,9.24a23.22,23.22,0,0,0-3.45-.75,30.55,30.55,0,0,0-4.16.18c-.95.08-1.27.65-1.27,1.64,0,6.76,0,13.52,0,20.27,0,4.84,0,9.68,0,14.52,0,1-.28,1.4-1.35,1.38-3.56-.06-7.12,0-10.68,0-1,0-1.4-.31-1.4-1.37Q37,45,37,24.57a1.62,1.62,0,0,1,1.18-1.69,37,37,0,0,1,12.6-2.67c3.19-.17,6.39-.07,9.58-.08C60.75,20.13,61.14,20.19,61.69,20.24Z"/><path class="cls-1" d="M116.15,43.71c0-7.11,0-14.23,0-21.35,0-1.12.26-1.54,1.46-1.51,3.48.07,7,0,10.43,0,1,0,1.41.25,1.4,1.34q0,21.6,0,43.19c0,1-.27,1.35-1.29,1.34-3.56,0-7.12-.06-10.67,0-1.11,0-1.33-.41-1.32-1.41C116.17,58.11,116.15,50.91,116.15,43.71Z"/><path class="cls-1" d="M122.8,14c-3.91,0-7-2.6-7.1-6-.14-3.92,3.83-7.07,8.09-6.43,3.33.5,5.9,2.91,6,5.69a6.36,6.36,0,0,1-6.09,6.69C123.43,13.94,123.11,13.94,122.8,14Z"/><path class="cls-1" d="M283.78,6.81a10.1,10.1,0,0,1,2,.94,1.55,1.55,0,0,1,.4,2.13c-1.41,2.55-2.76,5.14-4.17,7.68-.75,1.35-3.37,2.12-4.56,1.35a1.11,1.11,0,0,1-.43-1c.82-2.83,1.68-5.66,2.62-8.46C280.11,8,282,7,283.78,6.81Z"/><path class="cls-1" d="M204.17,82.43c-1.3,2.65-2.47,5-3.58,7.3-.36.75-.87,1.28-1.64.93a2,2,0,0,1-.69-1.41c-.26-2.78-.42-5.58-.65-8.36,0-.59,0-1,.72-1.06s1.14.06,1.16.94c0,2.35.19,4.7.3,7.35,1.14-2.3,2.17-4.38,3.21-6.46a3.35,3.35,0,0,1,.6-1.16,2.26,2.26,0,0,1,1.37-.59c.23,0,.63.63.67,1,.16,1.59.21,3.19.31,4.78a4.67,4.67,0,0,0,.46,1.87c1-2.23,2.05-4.47,3.09-6.7.54-1.15.7-1.2,2.22-.8l-2.05,4.19c-.93,1.9-1.88,3.79-2.77,5.71a1.14,1.14,0,0,1-1.55.71,1.67,1.67,0,0,1-.63-1.18C204.51,87.26,204.37,85,204.17,82.43Z"/><path class="cls-1" d="M224.31,82.45c-1.3,2.63-2.48,4.94-3.59,7.28-.35.75-.86,1.28-1.63.93-.37-.17-.63-.9-.68-1.4-.26-2.75-.44-5.5-.65-8.25,0-.56-.19-1.14.7-1.18s1.19.18,1.18,1c0,2.27,0,4.54,0,6.8l.47.08c.62-1.23,1.24-2.44,1.84-3.67s1.09-2.41,1.79-3.53a2,2,0,0,1,1.43-.64c.18,0,.6.66.63,1,.19,2.18.29,4.36.71,6.64.21-.43.43-.86.63-1.3.84-1.81,1.73-3.6,2.49-5.45.44-1.08,1.11-1.22,2.13-.86a5.79,5.79,0,0,1-.23.8c-1.49,3-3,6.1-4.52,9.13a1.63,1.63,0,0,1-.93.76c-.72.18-1.18,0-1.23-1C224.73,87.42,224.51,85.11,224.31,82.45Z"/><path class="cls-1" d="M183.81,82.89c-1.13,2.28-2.29,4.54-3.37,6.84-.36.77-.86,1.28-1.62.93a1.93,1.93,0,0,1-.7-1.41c-.26-2.79-.42-5.58-.63-8.36-.05-.57-.1-1,.7-1.07s1.13.1,1.15,1c0,2,.14,3.92.21,5.87a2.84,2.84,0,0,0,.25,1.2q1.53-3.09,3-6.18a3.84,3.84,0,0,1,.68-1.25,2.42,2.42,0,0,1,1.42-.5c.2,0,.53.62.56,1,.15,1.63.2,3.27.31,4.9,0,.63.13,1.26.25,2.24,1.19-2.59,2.27-4.85,3.26-7.14a1.45,1.45,0,0,1,2.14-.9,3.12,3.12,0,0,1-.17.67c-1.53,3.13-3.08,6.24-4.58,9.37a1.07,1.07,0,0,1-1.46.64,1.58,1.58,0,0,1-.68-1.12c-.21-2.19-.34-4.38-.49-6.57Z"/><path class="cls-1" d="M119.54,87.75c1-2.28,2.13-4.54,3.12-6.84a1.4,1.4,0,0,1,2-.89,2.46,2.46,0,0,1-.12.59c-1.54,3.16-3.06,6.33-4.67,9.45-.18.35-.9.53-1.38.55-.19,0-.56-.6-.59-1-.16-1.55-.22-3.11-.33-4.66a6.21,6.21,0,0,0-.49-2.18c-.63,1.27-1.27,2.53-1.9,3.8-.55,1.11-1,2.26-1.68,3.31a1.92,1.92,0,0,1-1.3.69c-.2,0-.66-.61-.69-1-.29-3.17-.51-6.35-.75-9.5,1.55-.48,1.8-.34,1.82,1,0,2.22,0,4.45,0,6.68l.45.08c.17-.33.36-.65.52-1,1-2.07,2.08-4.14,3.06-6.24.33-.71.84-1.06,1.49-.78a1.61,1.61,0,0,1,.63,1.19c.2,2.18.32,4.37.47,6.55Z"/><path class="cls-1" d="M398.55,74.94c-.31,1.67-.59,3.21-.89,4.86.84,0,1.51-.14,2.17-.12a3.1,3.1,0,0,1,3.15,3,8.94,8.94,0,0,1-1.15,5.3,6,6,0,0,1-7.47,2.59,1,1,0,0,1-.69-1.28q1.44-6.75,2.8-13.5C396.72,74.56,397.55,74.88,398.55,74.94Zm2.77,8.78-.25-.09a9.46,9.46,0,0,0-.06-1.07,1.82,1.82,0,0,0-2-1.67c-1.05,0-1.84.2-2,1.48-.26,1.77-.7,3.51-1,5.27a9.84,9.84,0,0,0,0,1.8,6.83,6.83,0,0,0,2.19-.16,3.3,3.3,0,0,0,1.64-1.46A37.63,37.63,0,0,0,401.32,83.72Z"/><path class="cls-1" d="M362.31,75.08c-.61,3-1.21,6-1.78,8.9,1.19-1.09,2.48-2.15,3.63-3.34A2.53,2.53,0,0,1,367,80c-1.13,1.1-2.13,2.1-3.15,3.07-1.93,1.86-1.94,1.85-.58,4.13l2,3.33c-1.35.38-2.21.23-2.78-1s-1.38-2.56-2.26-4.15c-.34,1.56-.7,2.74-.84,3.94s-.72,1.68-2.07,1.29a10.1,10.1,0,0,1,.11-1.2q1.38-6.63,2.77-13.25C360.49,74.75,360.63,74.68,362.31,75.08Z"/><path class="cls-1" d="M151.2,85.67c-.27,1.24-.53,2.47-.8,3.71-.31,1.39-.41,1.46-2,1.12.21-1.07.43-2.15.65-3.23.76-3.67,1.55-7.34,2.26-11,.22-1.16.7-1.64,2.06-1.14l-1.8,9,.2.18,2.53-2.53c.39-.4.8-.78,1.16-1.21.62-.77,1.39-.81,2.54-.55-1.05,1-2,2-2.88,2.86-2.15,2-2.16,2-.65,4.53l1.78,3c-1.44.56-1.83.44-2.5-.76s-1.46-2.64-2.19-4Z"/><path class="cls-1" d="M333.72,91.06c-2.83-.07-4.54-2-4.08-4.74a13,13,0,0,1,1-3.42,5.9,5.9,0,0,1,7.51-3c.64.23,1,.51.78,1.31-.61,2.72-1.12,5.47-1.74,8.19a1.71,1.71,0,0,1-.94,1A17.82,17.82,0,0,1,333.72,91.06Zm.12-1.53c1.31,0,1.46-.1,1.75-1.42.39-1.79.77-3.59,1.1-5.39a9.64,9.64,0,0,0,0-1.7,10.47,10.47,0,0,0-2.1.06,2.52,2.52,0,0,0-1.27.85,7.39,7.39,0,0,0-1.71,5.79C331.78,89,332.48,89.53,333.84,89.53Z"/><path class="cls-1" d="M313.88,90.51c.16-.79.31-1.6.48-2.41.48-2.31.92-4.62,1.47-6.91a1.64,1.64,0,0,1,1-1.1,19.59,19.59,0,0,1,4.38-.36,2.39,2.39,0,0,1,2.25,3c-.43,2.36-1,4.69-1.45,7-.26,1.3-1.14.89-2.11.79.44-2.17.87-4.27,1.29-6.37.06-.27.11-.55.18-.82.19-.78.51-1.79-.4-2.12a6.78,6.78,0,0,0-2.88-.07c-.22,0-.45.68-.54,1.08-.51,2.34-1,4.69-1.48,7C315.75,90.83,315.58,90.93,313.88,90.51Z"/><path class="cls-1" d="M276,80.09c-.23,1.15-.47,2.31-.71,3.47-.38,1.88-.82,3.74-1.14,5.63a1.46,1.46,0,0,1-1.37,1.4,19.42,19.42,0,0,1-4,.16,2.28,2.28,0,0,1-2.12-2.9c.41-2.44.94-4.86,1.47-7.27.25-1.13,1.12-.7,2-.66-.33,1.7-.64,3.32-1,4.94-.18.9-.41,1.79-.57,2.69a1.46,1.46,0,0,0,1.27,1.93c1.48.24,2.26-.15,2.49-1.26.5-2.34,1-4.69,1.46-7C274.15,79.74,274.42,79.59,276,80.09Z"/><path class="cls-1" d="M23.43,79.86,22,86.9c-.43,2.14.32,2.92,2.48,2.6a1.3,1.3,0,0,0,1.24-1.2c.45-2.4,1-4.78,1.47-7.17.28-1.35.43-1.42,2.06-1-.22,1.11-.45,2.23-.68,3.35-.4,2-.77,3.92-1.24,5.86-.11.42-.54,1-.9,1.08a18.33,18.33,0,0,1-4.36.33A2.21,2.21,0,0,1,20,87.92c.4-2.45.95-4.87,1.46-7.29C21.67,79.54,22.51,80,23.43,79.86Z"/><path class="cls-1" d="M84.08,80.09C83.7,82,83.33,83.83,83,85.7c-.08.39-.17.78-.26,1.17-.44,2.16.29,2.94,2.46,2.64a1.31,1.31,0,0,0,1.26-1.2c.47-2.39,1-4.78,1.46-7.17.28-1.33.44-1.42,2.07-1-.4,2-.79,4-1.19,5.93-.2,1-.49,2-.61,2.93a1.64,1.64,0,0,1-1.57,1.65,22.65,22.65,0,0,1-4,.08,2,2,0,0,1-1.83-2.29c.38-2.68.93-5.35,1.54-8,.08-.32,1-.45,1.52-.67Z"/><path class="cls-1" d="M136.57,83.4a39.47,39.47,0,0,1-1.84,5.09,5.12,5.12,0,0,1-2.37,2.05c-2.6,1.15-4.89-.21-5.05-3A9.24,9.24,0,0,1,129,81.7a4.39,4.39,0,0,1,3.37-2c2.54-.22,3.93,1,3.94,3.62Zm-1.83,0-.32-.12c0-.93.05-1.93-1-2.31a2.3,2.3,0,0,0-2.65.9,2.89,2.89,0,0,0-.61,1,39.72,39.72,0,0,0-1,4.15c-.15,1,0,2,1.09,2.39A2.19,2.19,0,0,0,133,88.28C133.69,86.72,134.16,85,134.74,83.42Z"/><path class="cls-1" d="M67.58,86.92a31.82,31.82,0,0,1,1.63-4.67,5.35,5.35,0,0,1,2.27-2.17c2.89-1.46,5.49.19,5.25,3.41a15.36,15.36,0,0,1-1.38,4.88,4.78,4.78,0,0,1-2.1,2c-2.3,1.23-5.61.47-5.37-3.37Zm7.59-3.56c-.22-1.5-.49-2.11-1.25-2.4a2.45,2.45,0,0,0-2.79,1.14,9.28,9.28,0,0,0-1.47,5.68,1.77,1.77,0,0,0,2.94,1.4,3.56,3.56,0,0,0,1.28-1.52C74.41,86.26,74.75,84.8,75.17,83.36Z"/><path class="cls-1" d="M416.19,89c.44.74.31,1.26-.58,1.5a15.21,15.21,0,0,1-1.75.39c-3.1.4-5.07-1.34-4.68-4.42a15,15,0,0,1,1.59-4.69,4.67,4.67,0,0,1,2.15-1.8,3.77,3.77,0,0,1,4.19.32c1.34,1.1,1.06,2.68.91,4.13,0,.28-.65.65-1,.72-1.68.3-3.38.55-5.09.73-.81.08-1,.44-1,1.16a2.26,2.26,0,0,0,2.54,2.4A20.91,20.91,0,0,0,416.19,89Zm-5-4.19c1.66-.23,3.11-.43,4.55-.67.23,0,.59-.34.58-.48-.09-.8-.05-1.81-.51-2.3a2.46,2.46,0,0,0-2.16-.21C412.11,81.74,411.59,83.15,411.17,84.84Z"/><path class="cls-1" d="M55.63,94.83a28.57,28.57,0,0,0,1.8-3.06A5.44,5.44,0,0,0,58,89.19c-.24-2.7-.66-5.39-1-8.08-.07-.53-.3-1.16.63-1.23.75,0,1.19.12,1.24,1,.09,1.83.28,3.66.44,5.49,0,.47.09.93.14,1.39l.3.08c.5-1,1-1.94,1.49-2.91.68-1.35,1.41-2.69,2-4.07A1.46,1.46,0,0,1,65.37,80a8.57,8.57,0,0,1-.33.86c-2.33,4.38-4.69,8.73-7,13.13C57.51,95.09,56.79,95.16,55.63,94.83Z"/><path class="cls-1" d="M.26,90.46c0-.36.09-.75.17-1.12C1.19,85.62,2,81.91,2.69,78.19c.21-1.09.68-1.45,1.76-1.39,1.59.08,3.17,0,4.75,0,.19,1-.07,1.41-.93,1.4s-1.68,0-2.52,0-1.2.2-1.31,1-.33,1.72-.52,2.58.07,1.07.83,1.06a8.9,8.9,0,0,1,1.79,0,3.71,3.71,0,0,1,1.07.57,4.31,4.31,0,0,1-1.14.73,5.19,5.19,0,0,1-1.67,0c-1-.12-1.52.28-1.67,1.32-.19,1.3-.5,2.59-.77,3.88S1.86,90.9.26,90.46Z"/><path class="cls-1" d="M244.93,90.55l1.15-5.77c.16-.78.32-1.56.49-2.34.12-.59.36-1.19-.52-1.46a2.91,2.91,0,0,1,.15-1c1.09,0,1.07-.88,1.23-1.6A3.85,3.85,0,0,1,252,75c-.3.46-.46,1-.78,1.15-1.69.59-1.88,2-2.06,3.52a4.12,4.12,0,0,1,.95.18,3.1,3.1,0,0,1,.66.5c-.21.24-.45.71-.63.69-1.46-.16-1.55.85-1.75,1.86-.42,2.19-.88,4.38-1.34,6.56C246.78,90.84,246.72,90.86,244.93,90.55Z"/><path class="cls-1" d="M308.78,80.34c-.18.82-.47,1.06-1.28.84a3.09,3.09,0,0,0-2,.11,2.27,2.27,0,0,0-1,1.58c-.05.42.56.93.91,1.37.12.15.35.19.53.29a3.07,3.07,0,0,1,.6,5.34,4.72,4.72,0,0,1-5.7.25c.15-.82.46-1.16,1.45-.9a3.9,3.9,0,0,0,2.39-.14,1.77,1.77,0,0,0,.08-3.28l-.32-.17c-1.17-.54-2.06-1.32-1.91-2.73a3.41,3.41,0,0,1,2.5-3.06A3.92,3.92,0,0,1,308.78,80.34Z"/><path class="cls-1" d="M378.68,80.33c-.17.93-.59,1-1.38.82a2.85,2.85,0,0,0-1.92.12,2.37,2.37,0,0,0-1,1.59c-.05.42.53,1,.9,1.38a3.3,3.3,0,0,0,.83.46,2.64,2.64,0,0,1,1.36,3.7,4.54,4.54,0,0,1-6.77,1.68c.18-.9.61-1.08,1.54-.83a3.36,3.36,0,0,0,2.26-.17,2.53,2.53,0,0,0,1.11-1.78c0-.48-.56-1.21-1.06-1.51-1.19-.7-2.3-1.33-2.11-3a3.3,3.3,0,0,1,2.21-2.88A4,4,0,0,1,378.68,80.33Z"/><path class="cls-1" d="M292.73,81.64l-.94-1.18a5,5,0,0,0,.93-.69,2,2,0,0,0,.59-1c.09-1.39,1-1.78,2.33-1.85-.15.93-.29,1.8-.44,2.76l1.56.33c.14.82-.2,1.18-1,1.12s-1.06.25-1.2,1c-.37,2-.82,4-1.21,6-.19,1,0,1.2,1.58,1.69-.25.37-.46,1-.67,1-.76,0-1.75,0-2.2-.42a2.92,2.92,0,0,1-.62-2.24C291.79,85.82,292.32,83.65,292.73,81.64Z"/><path class="cls-1" d="M282,72.55c-.63-.68-1.26-1.37-1.9-2-.94.55.19,2.4-1.58,2.25-1.5-.12-.46-1.58-1.28-2.28l-1.7,2.19c-1.78-1-1.82-1.18-.86-2.47.39-.51.76-1,1.17-1.52a3.41,3.41,0,0,1,5.56,0c.42.49.79,1,1.18,1.52C283.62,71.5,283.62,71.5,282,72.55Z"/><path class="cls-1" d="M44.25,77l-.47,2.75L45.3,80c.26.79-.14,1.09-.87,1.07s-1.1.38-1.24,1.12c-.34,1.88-.76,3.75-1.13,5.63-.15.79-.15,1.53.9,1.75.18,0,.45.44.4.56a1.12,1.12,0,0,1-.61.6c-1.65.46-2.9-.7-2.62-2.51s.66-3.36,1-5c.12-.59.23-1.17.33-1.69l-1-1a4.61,4.61,0,0,0,.94-.68A2.18,2.18,0,0,0,42,78.74C42.15,77.44,42.86,76.94,44.25,77Z"/><path class="cls-1" d="M350.29,89c.56.85.37,1.32-.46,1.65-2.36,1-4.59-.19-4.92-2.68a8.52,8.52,0,0,1,1.66-6.44,4.42,4.42,0,0,1,5.2-1.63c.31.13.49.56.73.86-.38.14-.79.46-1.13.4-1.61-.29-2.81.06-3.47,1.62a14,14,0,0,0-1,4.46c-.12,1.85,1,2.55,2.82,2Z"/><path class="cls-1" d="M255.09,90.52c.32-1.58.64-3.16,1-4.75s.61-3.13,1-4.68a1.4,1.4,0,0,1,.74-.93c1.33-.31,2.7-.48,4.21-.73-.18,1.21-.44,1.81-1.56,1.6-.95-.18-1.53.21-1.72,1.29-.41,2.36-.95,4.69-1.43,7C257,90.82,256.82,90.93,255.09,90.52Z"/><path class="cls-1" d="M139.55,90.58c.41-2,.79-4,1.19-5.91.2-1,.48-2,.6-2.94a1.81,1.81,0,0,1,1.81-1.83l3.14-.32c-.1,1-.33,1.58-1.35,1.4s-1.68.27-1.88,1.42c-.41,2.32-.94,4.62-1.42,6.92C141.34,90.78,141.34,90.78,139.55,90.58Z"/><path class="cls-1" d="M99.6,79.55c-.25,1.08-.48,1.61-1.42,1.43-1.17-.23-1.72.32-1.93,1.5-.41,2.4-1,4.76-1.43,7.15-.16.84-.55,1.2-1.38,1s-.53-.84-.43-1.33c.52-2.62,1.1-5.22,1.59-7.84A1.64,1.64,0,0,1,96.12,80Z"/><path class="cls-1" d="M17.45,79.79C17.3,80.7,17,81.14,16,81s-1.6.26-1.8,1.36Q13.55,86,12.7,89.58a1.76,1.76,0,0,1-1,1.07c-.65.21-1.06-.15-.9-.92.6-2.89,1.19-5.78,1.82-8.66a1.25,1.25,0,0,1,.56-.83A7.22,7.22,0,0,1,17.45,79.79Z"/><path class="cls-1" d="M281.13,90.57c.57-2.76,1.12-5.45,1.67-8.14.13-.63.28-1.25.39-1.88.16-.86.84-.83,1.39-.65A1.21,1.21,0,0,1,285,81c-.53,2.82-1.2,5.62-1.69,8.45C283.11,90.75,282.45,90.93,281.13,90.57Z"/><path class="cls-1" d="M36.1,80.09c-.14.76-.27,1.53-.42,2.3-.48,2.34-1,4.69-1.45,7-.29,1.35-.45,1.44-2,1.07,0-.37.09-.75.17-1.12.56-2.74,1.12-5.48,1.7-8.21C34.38,79.77,34.49,79.72,36.1,80.09Z"/><path class="cls-1" d="M165.57,77.07c-.58,2.38-1.16,4.77-1.75,7.15a4.36,4.36,0,0,1-.4,1.37c-.18.27-.65.36-1,.54-.13-.29-.4-.6-.37-.86.39-2.52.8-5,1.25-7.54C163.49,76.72,164,76.59,165.57,77.07Z"/><path class="cls-1" d="M235.51,90.77c-.17-.28-.64-.68-.62-1.08a1.29,1.29,0,0,1,1.5-1.3,1.37,1.37,0,0,1,.9,1C237.29,90.2,236.73,90.71,235.51,90.77Z"/><path class="cls-1" d="M384.78,90.91c-.27-.39-.84-1-.73-1.15a6.9,6.9,0,0,1,1.35-1.41c.34.35,1,.8,1,1A6,6,0,0,1,385.3,91Z"/><path class="cls-1" d="M161.71,91.23c-.47-.75-.89-1.11-.9-1.5a1.18,1.18,0,0,1,1.35-1.28c.34,0,1,.74.91.92A9.79,9.79,0,0,1,161.71,91.23Z"/><path class="cls-1" d="M284.85,78.31c-.49-.65-1-1.13-.94-1.27a3.23,3.23,0,0,1,1.19-1.16c.14-.07.94.61.89.75A8.27,8.27,0,0,1,284.85,78.31Z"/><path class="cls-1" d="M37.09,77a5.22,5.22,0,0,1-1.4.73c-.24,0-.57-.48-.86-.74a5,5,0,0,1,1.23-1.08c.21-.09.67.38,1,.6Z"/><path class="cls-1" d="M401.32,83.72a37.63,37.63,0,0,1-1.47,4.1,3.3,3.3,0,0,1-1.64,1.46,6.83,6.83,0,0,1-2.19.16,9.84,9.84,0,0,1,0-1.8c.3-1.76.74-3.5,1-5.27.18-1.28,1-1.48,2-1.48a1.82,1.82,0,0,1,2,1.67,9.46,9.46,0,0,1,.06,1.07Z"/><path class="cls-1" d="M333.84,89.53c-1.36,0-2.06-.49-2.22-1.81a7.39,7.39,0,0,1,1.71-5.79,2.52,2.52,0,0,1,1.27-.85,10.47,10.47,0,0,1,2.1-.06,9.64,9.64,0,0,1,0,1.7c-.33,1.8-.71,3.6-1.1,5.39C335.3,89.43,335.15,89.53,333.84,89.53Z"/><path class="cls-1" d="M134.74,83.42c-.58,1.62-1.05,3.3-1.78,4.86a2.19,2.19,0,0,1-2.73,1.17C129.09,89,129,88,129.14,87.06a39.72,39.72,0,0,1,1-4.15,2.89,2.89,0,0,1,.61-1,2.3,2.3,0,0,1,2.65-.9c1.08.38,1,1.38,1,2.31Z"/><path class="cls-1" d="M75.17,83.36c-.42,1.44-.76,2.9-1.29,4.3a3.56,3.56,0,0,1-1.28,1.52,1.77,1.77,0,0,1-2.94-1.4,9.28,9.28,0,0,1,1.47-5.68A2.45,2.45,0,0,1,73.92,81C74.68,81.25,75,81.86,75.17,83.36Z"/><path class="cls-1" d="M411.17,84.84c.42-1.69.94-3.1,2.46-3.66a2.46,2.46,0,0,1,2.16.21c.46.49.42,1.5.51,2.3,0,.14-.35.44-.58.48C414.28,84.41,412.83,84.61,411.17,84.84Z"/></g></g></g></svg>