<svg xmlns="http://www.w3.org/2000/svg" viewBox="0 0 247.14 72.08"><defs><style>.cls-1{fill:gold;}</style></defs><title>GMS</title><g id="Layer_2" data-name="Layer 2"><g id="Layer_1-2" data-name="Layer 1"><g id="GMS"><path class="cls-1" d="M234.53,23.83h-1.75q-23.46,0-46.92,0A16.73,16.73,0,0,1,179,22.36a11.45,11.45,0,0,1-3.83-2.82,6.56,6.56,0,0,1-1.75-4.48c0-1.87,0-3.75.08-5.63a8,8,0,0,1,3.63-6.31A16,16,0,0,1,185.39.19C187.3,0,189.23,0,191.14,0h55.72a58.27,58.27,0,0,1,.1,10.11l-7.6,0H185.93v3.42c0,.4.25.57.61.59s.88,0,1.32,0h45a22.21,22.21,0,0,1,6.87.88,12.61,12.61,0,0,1,5.67,3.45A6.19,6.19,0,0,1,247.13,23q-.09,2.58,0,5.16a7.66,7.66,0,0,1-2.94,6.28,14.75,14.75,0,0,1-7.36,3.28,29,29,0,0,1-4.65.41q-28.44,0-56.88,0c-1.9,0-1.91,0-1.91-1.9V29.74c0-1.87,0-1.87,1.82-1.88h57.36c2.2,0,1.94.07,2-1.93C234.54,25.29,234.53,24.66,234.53,23.83Z"/><path class="cls-1" d="M61,23H46.83a43.5,43.5,0,0,1-.1-8.81c.39,0,.81-.1,1.24-.1H72.33l.72,0a.68.68,0,0,1,.73.76c0,.32,0,.64,0,1,0,3.76-.07,7.52,0,11.28.1,4.16-1.84,7-5.41,8.86a17.11,17.11,0,0,1-7.34,2c-1.88.08-3.76.14-5.63.14q-20.28,0-40.56,0A19.32,19.32,0,0,1,5.26,36a13.85,13.85,0,0,1-2.88-2.11A7.52,7.52,0,0,1,0,28.17c0-5.92.06-11.84,0-17.75A8.24,8.24,0,0,1,3,3.9,14.88,14.88,0,0,1,10.41.45,24.18,24.18,0,0,1,14.81,0Q43.25,0,71.69,0c2.39,0,2.09,0,2.1,2.08q0,3.36,0,6.71c0,1.33,0,1.34-1.35,1.34H41.6c-6.92,0-13.84,0-20.76,0a25,25,0,0,0-4.39.46,4.67,4.67,0,0,0-3.87,4.79c.05,2.44,0,4.88,0,7.32a4.43,4.43,0,0,0,4,4.78,15.12,15.12,0,0,0,2.85.27q17.4,0,34.8,0a11.44,11.44,0,0,0,3.89-.57,4.22,4.22,0,0,0,2.78-3.06A6.2,6.2,0,0,0,61,23Z"/><path class="cls-1" d="M165.19.15V38a12,12,0,0,1-1.23.13c-3.28,0-6.56,0-9.84,0h-.48c-.79-.07-.89-.16-.94-.93,0-.36,0-.72,0-1.08v-25c-.53.06-.71.45-.95.71q-10.62,11.51-21.21,23c-.82.88-1.64,1.76-2.43,2.66a1.81,1.81,0,0,1-1.47.65c-2,0-4.08,0-6.12,0a1.94,1.94,0,0,1-1.53-.79L100.34,17c-1.86-2-3.75-4.05-5.58-6.11A2.14,2.14,0,0,0,93,10.13c-3.2,0-6.4,0-9.6,0-.43,0-.86,0-1.37-.06A10.67,10.67,0,0,1,81.9,9q0-3.84,0-7.68C81.9.14,82,0,83.13,0H99a2,2,0,0,1,1.56.72q10.88,11.76,21.76,23.5l1.31,1.39c.5-.5,1-.93,1.37-1.39q10.64-11.49,21.23-23A3.41,3.41,0,0,1,149,0c4.84.06,9.68,0,14.51,0C164.05,0,164.59.1,165.19.15Z"/><path class="cls-1" d="M94.46,38a14,14,0,0,1-1.4.14c-3.24,0-6.48,0-9.72,0l-.72,0a.69.69,0,0,1-.72-.78c0-.28,0-.56,0-.84v-21c0-1.28.07-1.34,1.37-1.34H93.1l.6,0c.47,0,.75.22.75.73,0,.28,0,.56,0,.84V38Z"/><path class="cls-1" d="M193.52,56.42c0,4.66,0,9.37.06,14.08,0,1.22-.06,1.26-1.3,1.28h-.12c-1.59,0-1.59,0-1.59-1.57V52.58a11.84,11.84,0,0,1,3.14,0c.29,0,.6.37.8.65,3.35,4.52,7,8.83,10,13.6a.89.89,0,0,0,.39.34c-.08-4.85-.19-9.68,0-14.64h2.29c.5,0,.75.23.76.72,0,.28,0,.56,0,.84V70.23c0,.16,0,.32,0,.48,0,.93-.14,1-1,1.07-2.06.11-2.07.11-3.29-1.52-2.33-3.1-4.67-6.19-7-9.32C195.54,59.44,194.51,57.86,193.52,56.42Z"/><path class="cls-1" d="M95.52,52.54h3.06c0,.61.1,1.16.11,1.7,0,3.52,0,7,.07,10.55a6.39,6.39,0,0,0,.13,1.06c.76,3.45,3.61,4.24,6.07,3.84a4.77,4.77,0,0,0,4.24-5c.07-3.52,0-7,.06-10.55,0-.5.06-1,.1-1.58h3c0,.51.06,1,.07,1.43,0,3.32,0,6.64,0,9.95,0,4.46-2.44,7.66-7.63,8.09a11.28,11.28,0,0,1-4.72-.52,6.73,6.73,0,0,1-4.57-5.79,17.64,17.64,0,0,1-.16-2.62c0-3,0-6,0-9C95.4,53.6,95.48,53.1,95.52,52.54Z"/><path class="cls-1" d="M69.51,62.84v5.85a.6.6,0,0,0,.66.67l1,0h6.6c.48,0,1,0,1.35.08.11.15.19.2.2.27.26,2,.21,2-1.75,2-3.32,0-6.64,0-10,0-1.25,0-1.3-.06-1.3-1.27q0-8.4,0-16.8c0-.35,0-.7.08-1a108.29,108.29,0,0,1,12.31-.11,1.78,1.78,0,0,1,.17.4c.18,1.67.07,1.79-1.58,1.79H69.74a19.78,19.78,0,0,0-.11,5.58c.39,0,.81.09,1.23.09,2.08,0,4.16,0,6.24,0,.4,0,1.05.12,1.14.36a2.79,2.79,0,0,1,0,1.62c-.06.21-.66.38-1,.38-1.92,0-3.84,0-5.76,0Z"/><path class="cls-1" d="M164.6,54.77v5.57c.46,0,.88.1,1.3.1,2.08,0,4.16,0,6.24,0,.4,0,1.05.12,1.14.35a2.83,2.83,0,0,1,0,1.63c-.06.21-.66.38-1,.38-2,0-4,0-6,0-.32,0-.64,0-1,0-.53,0-.8.23-.8.79,0,1.64,0,3.28,0,4.92,0,.72.12.81,1,.81,2.4,0,4.8,0,7.2,0,.5,0,1,.07,1.45.11.07.15.1.19.11.22.27,2,.22,2.06-1.74,2.06-3.27,0-6.55,0-9.83,0-1.44,0-1.45,0-1.45-1.49q0-8.16,0-16.31c0-.43,0-.86.05-1.27a95,95,0,0,1,12.46-.09v2.09c-1.53.13-3,0-4.54.06Z"/><path class="cls-1" d="M127.46,52.49c1.1,0,2,0,3,0,.57,0,.64.52.8.92.87,2.27,1.74,4.55,2.59,6.83,1,2.66,2,5.32,3,8.07.11-.25.22-.47.31-.69q2.88-7.18,5.73-14.36a1.07,1.07,0,0,1,1.16-.8c.79,0,1.58,0,2.53,0a11.88,11.88,0,0,1-.38,1.15q-3.67,8.59-7.35,17.19a1.35,1.35,0,0,1-1.44,1c-2.93-.05-2.27.3-3.24-2.14-2-5.05-4-10.11-5.95-15.17C128,53.9,127.75,53.29,127.46,52.49Z"/><path class="cls-1" d="M37.8,52.55h3.06c0,.53.08,1,.08,1.46v13.9c0,1.46,0,1.47,1.45,1.47,2.2,0,4.4,0,6.6,0l.95,0a.72.72,0,0,1,.8.82c0,.28,0,.56,0,.84a.64.64,0,0,1-.66.69c-.2,0-.4,0-.6,0-3.52,0-7,0-10.55,0-1.15,0-1.21-.07-1.21-1.24q0-8.45,0-16.9C37.71,53.32,37.76,53,37.8,52.55Z"/></g></g></g></svg>