<svg xmlns="http://www.w3.org/2000/svg" viewBox="0 0 192.47 63.08"><defs><style>.cls-1{fill:#fff;}</style></defs><title>Google</title><g id="Layer_2" data-name="Layer 2"><g id="Layer_1-2" data-name="Layer 1"><path class="cls-1" d="M41.54,6.6c-1.56,1.59-3,3-4.38,4.47-.35.36-.55,0-.79-.16A17.79,17.79,0,0,0,31.65,8a17.34,17.34,0,0,0-9.42-1.15,17.67,17.67,0,0,0-15,16.4,17.44,17.44,0,0,0,2.15,9.92,17,17,0,0,0,12.75,8.94,17.4,17.4,0,0,0,11.12-1.7,13.73,13.73,0,0,0,7.52-10.75c.09-.6,0-.71-.68-.72-1.18,0-2.37,0-3.56,0H26c-1.19,0-1.19,0-1.19-1.23,0-1.47,0-3,0-4.43,0-.85,0-.88.86-.89H46.42c.87,0,1,.12,1.08,1.2a31.3,31.3,0,0,1-.44,8.53c-1.58,7.24-6,12.13-12.62,15.1a21.11,21.11,0,0,1-5.85,1.52,25,25,0,0,1-11.68-1.06,24.6,24.6,0,0,1-13.59-11A23.12,23.12,0,0,1,0,23.43,24,24,0,0,1,9.62,5.21,23.57,23.57,0,0,1,22.5.1a23.59,23.59,0,0,1,18,5.71C40.82,6.06,41.13,6.29,41.54,6.6Z"/><path class="cls-1" d="M142.49,20.84c0-.53,0-1.07,0-1.6s.16-.76.72-.76c1.64,0,3.28,0,4.91,0,.61,0,.81.25.76.81,0,.19,0,.39,0,.58q0,13.62,0,27.24a18.7,18.7,0,0,1-1.95,8.83,12.5,12.5,0,0,1-8.27,6.53,16.79,16.79,0,0,1-8.76.06,14.56,14.56,0,0,1-8.9-6.87c-.25-.41-.46-.84-.69-1.27s-.13-.59.27-.75c1.6-.66,3.2-1.32,4.79-2,.51-.22.72,0,1,.41a8.82,8.82,0,0,0,4.76,4.41,8.63,8.63,0,0,0,8.16-1,7.42,7.42,0,0,0,3-5.2,36.44,36.44,0,0,0,.23-4.32,2.33,2.33,0,0,0-.14-.56c-.26.2-.46.33-.63.49a11.15,11.15,0,0,1-9.57,3c-6.7-.79-12.25-6.64-13.18-13.32a16.2,16.2,0,0,1,7.74-16,14.37,14.37,0,0,1,7-2,10.89,10.89,0,0,1,7.92,2.92c.21.2.42.37.63.56ZM125.67,33.13a9.39,9.39,0,0,0,3.47,7.78A8.21,8.21,0,0,0,141.88,38a10.83,10.83,0,0,0,0-9.66,8.1,8.1,0,0,0-12.56-2.95A9.37,9.37,0,0,0,125.67,33.13Z"/><path class="cls-1" d="M81.58,33.2c0,9-7,15.82-16.14,15.78-8.84,0-15.62-7-15.59-16a15.87,15.87,0,0,1,31.73.27Zm-7,0a10.41,10.41,0,0,0-.88-4.3A8.69,8.69,0,0,0,59.76,26a10.28,10.28,0,0,0-.84,13.38,8.57,8.57,0,0,0,12.2,1.38A9.3,9.3,0,0,0,74.57,33.18Z"/><path class="cls-1" d="M163.63,34.11c0-5.22,1.25-9,4.15-12.17,5.31-5.79,15.26-6.42,20.9.18a22.59,22.59,0,0,1,3.7,6.48c.21.52,0,.75-.43.94-2.44,1-4.86,2-7.29,3l-12.37,5.1c-.74.31-.76.4-.33,1.13,2.88,4.93,9.22,4.79,12.43,2.23a16,16,0,0,0,2.07-2.13c.31-.36.52-.47.94-.19q2.19,1.48,4.41,2.93c.45.3.4.56.11.94a15.59,15.59,0,0,1-14.57,6.33A15,15,0,0,1,163.63,34.11Zm6.7-1.52a6.31,6.31,0,0,0,.64-.18q6.39-2.64,12.78-5.31c.63-.26.66-.39.25-1a5.76,5.76,0,0,0-3.71-2.37,8.34,8.34,0,0,0-9.65,6.36C170.47,30.86,170.45,31.65,170.33,32.59Z"/><path class="cls-1" d="M100.22,17.56a15.45,15.45,0,0,1,15.67,15.73,15.75,15.75,0,0,1-31.5-.16A15.42,15.42,0,0,1,100.22,17.56Zm8.88,15.67a17.8,17.8,0,0,0-.17-2.2,9.16,9.16,0,0,0-8-7.45A8.93,8.93,0,0,0,92.44,28a9.52,9.52,0,0,0-1.3,4.77,9.65,9.65,0,0,0,2.32,6.92,9,9,0,0,0,4.2,2.73A8.62,8.62,0,0,0,106.6,40,9.1,9.1,0,0,0,109.1,33.23Z"/><path class="cls-1" d="M153.67,24.8V3.06c0-.26,0-.52,0-.77,0-.49.2-.69.68-.69,1.83,0,3.66,0,5.49,0,.55,0,.75.25.71.77,0,.16,0,.32,0,.48q0,21.8,0,43.59c0,1.75.16,1.51-1.56,1.52h-4.14c-1.18,0-1.18,0-1.18-1.24Z"/></g></g></svg>