<svg xmlns="http://www.w3.org/2000/svg" viewBox="0 0 249.82 74.68"><defs><style>.cls-1{fill:#fff;}</style></defs><title>IMEC</title><g id="Layer_2" data-name="Layer 2"><g id="Layer_1-2" data-name="Layer 1"><path class="cls-1" d="M177.74,74.68c-1.68-.28-3.38-.49-5-.85-8.39-1.85-13.58-7-15.44-15.38a48.75,48.75,0,0,1,.28-22.69A19.44,19.44,0,0,1,164,25a20.12,20.12,0,0,1,9.52-4.09,35.51,35.51,0,0,1,12.92.1c7,1.39,11.51,5.66,13.76,12.38a40.47,40.47,0,0,1,1.94,10.68c.11,2,.14,4.06.17,6.09,0,1.41-.49,2-1.88,2.12a11.8,11.8,0,0,1-1.46.08H170.3c-1.18,0-1.2,0-1,1.18.14.91.27,1.82.49,2.71,1,4.11,3.67,6.38,7.73,7.13a37.88,37.88,0,0,0,10.84.24c2.72-.3,5.41-.76,8.12-1.16,1.5-.22,2.13.31,2.13,1.83q0,3.34,0,6.67c0,1.42-.48,2-1.89,2.29-2.8.47-5.61.86-8.42,1.29a3.9,3.9,0,0,0-.46.12Zm1.78-31.26c3.22,0,6.44,0,9.66,0,.74,0,1-.26.88-.95a52,52,0,0,0-1.21-5.86,7.19,7.19,0,0,0-5.89-5.1,17.27,17.27,0,0,0-6.37,0A7.61,7.61,0,0,0,170.3,37a51.47,51.47,0,0,0-1.13,5.71c-.11.61.24.72.76.72C173.13,43.41,176.32,43.42,179.52,43.42Z"/><path class="cls-1" d="M232.37,74.68c-1.57-.28-3.15-.49-4.7-.86-7.58-1.8-12-6.73-13.85-14.15a52.78,52.78,0,0,1-1.2-15.25,43.69,43.69,0,0,1,1.48-9.85c2.26-7.93,7.63-12.28,15.62-13.59a50.41,50.41,0,0,1,18.08.52c1.53.3,2,.9,2,2.45,0,2.14,0,4.29,0,6.43,0,1.29-.51,1.81-1.79,1.72-2.24-.15-4.48-.4-6.72-.56a28.78,28.78,0,0,0-8.23.5c-3.69.8-5.78,3.19-6.69,6.75a36.42,36.42,0,0,0-.79,10.66,39.94,39.94,0,0,0,.82,7c.94,4.21,3.47,6.34,7.75,7a45.06,45.06,0,0,0,11.66-.08c.72-.08,1.45-.21,2.18-.23,1.24,0,1.8.51,1.81,1.75,0,2.2,0,4.39,0,6.59A2,2,0,0,1,248,73.7c-1.83.33-3.68.57-5.53.86a3.9,3.9,0,0,0-.46.12Z"/><path class="cls-1" d="M133.83,74.68a2.29,2.29,0,0,1-1-2.18V64.29c0-8.78,0-17.55-.05-26.33a14.52,14.52,0,0,0-.64-3.74,3.41,3.41,0,0,0-3.45-2.58,51.92,51.92,0,0,0-5.43.24c-1.33.11-2-.33-2-1.68q0-3.57,0-7.15a1.83,1.83,0,0,1,1.6-2,34.26,34.26,0,0,1,13.31,0A10.94,10.94,0,0,1,145,30,37.71,37.71,0,0,1,146,37.7c.1,11.56,0,23.13,0,34.7a2.39,2.39,0,0,1-1,2.28Z"/><path class="cls-1" d="M75.45,74.68a2.23,2.23,0,0,1-1-2.17c0-10.7,0-21.4,0-32.1a32.31,32.31,0,0,0-.37-5c-.42-2.68-1.79-3.81-4.5-3.81-1.62,0-3.24.16-4.85.3-1.15.1-1.81-.36-1.82-1.51,0-2.46,0-4.93,0-7.39A1.78,1.78,0,0,1,64.41,21c4.87-.8,9.75-1.09,14.56.35,4.64,1.39,7,4.83,7.86,9.37a46.32,46.32,0,0,1,.77,8.06c.08,11.08,0,22.16,0,33.24a2.78,2.78,0,0,1-1,2.62Z"/><path class="cls-1" d="M51.71,74.68c-1.05-.24-2.12-.42-3.16-.72-4.81-1.37-7.32-4.82-8.22-9.52a35.81,35.81,0,0,1-.67-6.53c-.06-11.75,0-23.51,0-35.27,0-1.64.58-2.24,2.25-2.25q4.23,0,8.46,0c1.79,0,2.38.61,2.38,2.4q0,16.62,0,33.24A23.54,23.54,0,0,0,53,59.59c.5,3,1.83,4.11,4.86,4.12a43.14,43.14,0,0,0,4.53-.34c1.26-.12,1.83.35,1.83,1.63,0,2.38,0,4.77,0,7.15a1.84,1.84,0,0,1-1.71,2.09c-.84.18-1.7.29-2.55.44Z"/><path class="cls-1" d="M104.4,74.68a2.7,2.7,0,0,1-.86-2.26q0-16.26,0-32.51a26.21,26.21,0,0,0-.48-4.92A3.71,3.71,0,0,0,99,31.61a44.18,44.18,0,0,0-5,.26c-1.32.13-1.94-.3-1.94-1.6,0-2.41,0-4.82,0-7.23a1.77,1.77,0,0,1,1.59-2,34.26,34.26,0,0,1,13.31,0c5.26,1.18,8.09,4.71,9,9.81a43.86,43.86,0,0,1,.68,7.5c.07,11.35,0,22.71,0,34.06a2.63,2.63,0,0,1-.87,2.25Z"/><path class="cls-1" d="M0,1.34A2.43,2.43,0,0,1,2.47,0C5.4.05,8.32,0,11.25,0c1.58,0,2.28.7,2.28,2.28q0,4.51,0,9c0,1.56-.68,2.25-2.22,2.25-3,0-5.91,0-8.86,0A2.38,2.38,0,0,1,0,12.23Z"/></g></g></svg>