<svg xmlns="http://www.w3.org/2000/svg" viewBox="0 0 117.08 91.48"><defs><style>.cls-1{fill:#fff;}</style></defs><title>KBC</title><g id="Layer_2" data-name="Layer 2"><g id="Layer_1-2" data-name="Layer 1"><path class="cls-1" d="M117.08,54l-52.87,0H3.11c-3,0-3,0-3-3.11,0-6.23,0-6.36,6-7.28,10.29-1.56,20.61-3,30.93-4.34a4.34,4.34,0,0,1,2.66.7c11.29,7.08,23.38,6.1,33.38-2.7a4.37,4.37,0,0,1,2.56-1c10.48-.35,21-.61,31.44-.91,2.46-.07,4.92-.23,7.38-.27a18,18,0,0,1,2.63.35Z"/><path class="cls-1" d="M102.26,91.48c-3.87-.79-7.83-1.26-11.57-2.45a12.45,12.45,0,0,1-8.86-9.42c-1.6-6.86,1-12.59,7.35-15.67s13.19-3.42,20.07-2.79a78.28,78.28,0,0,1,7.83,1.5V73c-.74-.35-1.48-.72-2.23-1-4.69-2.08-9.39-2.34-14.06,0-1.73.87-3.12,2.16-3.14,4.24a4.59,4.59,0,0,0,3.26,4.34,24.59,24.59,0,0,0,5.5,1.43c3.83.58,7.25-1,10.67-2.37V91.48Z"/><path class="cls-1" d="M59.22,0A20.25,20.25,0,1,1,38.81,20.12,20.34,20.34,0,0,1,59.22,0Z"/><path class="cls-1" d="M72.49,76.23c.68.16,1.2.26,1.71.4,3.21.85,4.77,2.46,5.07,5.2.37,3.47-.84,6.34-3.77,7.53a19.43,19.43,0,0,1-6.76,1.43c-8.44.17-16.87,0-25.31.1-2,0-2.62-.7-2.61-2.65q.12-12.13,0-24.28c0-1.86.58-2.5,2.48-2.48,9.12.08,18.25,0,27.37.05,4.58,0,7.44,2,8.19,5.4.87,4-.75,7-4.53,8.58C73.78,75.74,73.21,76,72.49,76.23ZM59.92,84.29v0c1,0,2.06,0,3.09,0,1.48-.06,2.51-.68,2.51-2.34a2.25,2.25,0,0,0-2.43-2.47c-2.05-.07-4.11-.1-6.16,0a2,2,0,0,0-1.45,1c-.83,2.73,0,3.82,2.8,3.83Zm-.15-10.71v-.1c1.1,0,2.2.07,3.29,0A2.37,2.37,0,0,0,63,68.73c-2-.07-4.11-.15-6.16,0A2.05,2.05,0,0,0,55.45,70c-.58,3-.06,3.57,3.09,3.57Z"/><path class="cls-1" d="M39.19,61.85c-2.47,3.05-4.53,5.6-6.6,8.14-1.47,1.81-2.9,3.65-4.45,5.39-.92,1-.85,1.76,0,2.8,3,3.49,5.86,7.07,8.77,10.63.41.51.75,1.08,1.28,1.85a10.94,10.94,0,0,1-1.84.37c-4.19,0-8.37.12-12.55-.06A4.5,4.5,0,0,1,21,89.35c-2.22-2.69-4.25-5.54-6.77-8.24,0,2.55-.07,5.11,0,7.66.06,1.68-.56,2.35-2.26,2.31-3.29-.08-6.58-.07-9.87,0C.55,91.1,0,90.48,0,88.88q.09-12.55,0-25.1c0-1.46.41-2.13,2-2.09q5.15.11,10.29,0c1.57,0,2,.67,2,2.11a70.85,70.85,0,0,0,.37,9.71c2-3.16,4.07-6.27,5.92-9.51a4.15,4.15,0,0,1,4.3-2.34c3.83.16,7.68,0,11.52.05C37.1,61.71,37.82,61.78,39.19,61.85Z"/></g></g></svg>