<svg xmlns="http://www.w3.org/2000/svg" viewBox="0 0 215.26 112.33"><defs><style>.cls-1{fill:#fff;}</style></defs><title>Leuven</title><g id="Layer_2" data-name="Layer 2"><g id="Layer_1-2" data-name="Layer 1"><path class="cls-1" d="M215.1,57h-4c-2.64-7.39-5.31-14.85-8-22.32l-.35.07V57h-4.6V19h4.05l8,22.12.39-.05V18.94h4.54Z"/><path class="cls-1" d="M142.7,18.91h5c.05.67.12,1.28.12,1.9q0,12.92,0,25.83a22.82,22.82,0,0,1-.26,3.3c-.72,4.63-4.2,7.77-8.5,7.73s-7.6-3.24-8.28-7.78a18.54,18.54,0,0,1-.18-2.78q0-13.19,0-26.36c0-.57.06-1.14.1-1.8h5v2.11c0,8.66,0,17.33,0,26a13.26,13.26,0,0,0,.5,3.6,2.89,2.89,0,0,0,2.83,2.2,3,3,0,0,0,3.07-2.11,11.25,11.25,0,0,0,.53-3.41c0-8.73,0-17.46,0-26.18Z"/><path class="cls-1" d="M166.05,18.93h5.32c-2.34,12.92-4.66,25.69-7,38.63-.63,0-1.19.09-1.74.11s-1,0-1.8,0c-2.35-12.91-4.69-25.74-7-38.71h5.33c1.11,8.09,2.19,16.09,3.28,24.09l.32,0C163.81,35.09,164.92,27.1,166.05,18.93Z"/><path class="cls-1" d="M115.62,52.37h8.87V57H110.55V19H124v4.51H115.6V34.78h7.73V39.5h-7.71Z"/><path class="cls-1" d="M182.65,52.42h8.85V57H177.61V19h13.51v4.6h-8.49V34.77h7.72v4.72h-7.7Z"/><path class="cls-1" d="M95.13,52.4h9.21V57H90.08V19h4.84c.06.62.2,1.32.2,2q0,14.48,0,29Z"/><path class="cls-1" d="M134,71.87l-4,9.64h-.52c-1.62-4-3.23-8-4.94-12.25l1.9-.11,3.31,8.17,3.29-8.07h1.85c1,2.58,2.1,5.13,3.3,8.05l3.26-8.07h1.92c-1.7,4.22-3.33,8.25-4.95,12.28l-.52,0Z"/><path class="cls-1" d="M166.79,77.86V69.27h1.72V81.39h-1.62l-7.83-9v9l-1.81.11V69.38c1.06-.57,1.67,0,2.28.69,2.27,2.64,4.57,5.26,6.85,7.89Z"/><path class="cls-1" d="M172.32,75.26A6.32,6.32,0,0,1,179,68.94a6.38,6.38,0,1,1-.29,12.73A6.27,6.27,0,0,1,172.32,75.26Zm6.74-4.43a4.44,4.44,0,0,0-4.75,4.49,4.64,4.64,0,0,0,9.28,0A4.41,4.41,0,0,0,179.06,70.83Z"/><path class="cls-1" d="M203.93,81.4V69.33a46.35,46.35,0,0,1,6.47.06,5.81,5.81,0,0,1,4.86,6.12A6.08,6.08,0,0,1,210,81.37C208.06,81.57,206.07,81.4,203.93,81.4Zm2-1.89c3.55.54,5.51,0,6.64-1.8a4.59,4.59,0,0,0-.17-5.09c-1.72-2.16-4.06-1.76-6.47-1.64Z"/><path class="cls-1" d="M124,99.39V87.74c1.09-.63,1.69,0,2.29.66,2.2,2.55,4.41,5.08,6.91,7.95V87.67l1.79-.24V99.35c-1,.49-1.62,0-2.23-.7q-2.78-3.24-5.59-6.45c-.37-.42-.77-.81-1.45-1.53v8.86Z"/><path class="cls-1" d="M191.35,91.11V99.4l-1.71.15V87.72c.91-.59,1.56-.16,2.19.58,1.81,2.12,3.65,4.22,5.48,6.33.41.47.85.93,1.54,1.7V87.64l1.79-.19v12l-1.48.09L191.73,91Z"/><path class="cls-1" d="M203.77,87.45c2.35,0,4.67-.29,6.93.38a5.77,5.77,0,0,1,4,6.21,5.87,5.87,0,0,1-5.27,5.41,56.38,56.38,0,0,1-5.68,0Zm1.92,1.78v8.52a32.62,32.62,0,0,0,3.29,0,4.14,4.14,0,0,0,3.83-4.23,4.05,4.05,0,0,0-3.59-4.25A24.32,24.32,0,0,0,205.69,89.23Z"/><path class="cls-1" d="M148.17,88.4v1.49a2.23,2.23,0,0,1-.54,0,21.47,21.47,0,0,0-3.7-.85,4.35,4.35,0,0,0-4.57,4.62A4.47,4.47,0,0,0,144.29,98a19,19,0,0,0,2.13-.42V95.35l-2-.31-.11-1.39h4v5a9.22,9.22,0,0,1-6.32.77,5.88,5.88,0,0,1-4.6-6.33A6.2,6.2,0,0,1,143,87.34,8.49,8.49,0,0,1,148.17,88.4Z"/><path class="cls-1" d="M113.68,93.63c1.34,2,2.54,3.76,3.92,5.81l-1.89.11c-2-1.58-2.16-4.9-5.55-5.19v5.08h-1.79V87.55a10.81,10.81,0,0,1,4.93.25A3.25,3.25,0,0,1,114.57,93,4.38,4.38,0,0,1,113.68,93.63Zm-3.4-1.08c1.14,0,2.26.3,2.83-.85a2.1,2.1,0,0,0-.06-1.77c-.65-1-1.72-.91-2.77-.68Z"/><path class="cls-1" d="M153.44,69.21c0,.62-.07,1-.11,1.64h-4.9v3.46h4.7c0,.7.06,1.17.1,1.81h-4.79v3.54h5l.13,1.71h-7.06V69.21Z"/><path class="cls-1" d="M92.1,79.72h5.05l.1,1.63H90.12V69.27h6.82v1.56H92.13v3.56h4.64l.16,1.72H92.1Z"/><path class="cls-1" d="M197.94,69.23h1.69c0,3,0,6,0,8.9a3,3,0,0,1-.6,1.42c-1.16,1.82-3.83,2.57-6.44,1.87a4.37,4.37,0,0,1-3.43-4.48c-.06-2.49,0-5,0-7.68l1.91-.1c0,1.26,0,2.35,0,3.44,0,1.45,0,2.91.08,4.36.16,2,1.45,3.06,3.52,3a3,3,0,0,0,3.19-3.15c.06-1.92,0-3.84,0-5.76C197.86,70.45,197.91,69.89,197.94,69.23Z"/><path class="cls-1" d="M111.23,69.26h1.92c0,1.12,0,2.2,0,3.29,0,1.51-.05,3,.07,4.53.15,1.9,1.46,2.92,3.46,2.85s3.18-1.13,3.24-3.09,0-3.84,0-5.76c0-.56,0-1.13.08-1.82l1.67-.1c0,3.12,0,6.11,0,9.1a2.82,2.82,0,0,1-.64,1.41c-1.2,1.74-4,2.46-6.5,1.72a4.39,4.39,0,0,1-3.29-4.58C111.19,74.33,111.23,71.85,111.23,69.26Z"/><path class="cls-1" d="M107.74,69.28v1.55h-5v3.48h4.76l.11,1.84h-4.88v3.5h5.09v1.74h-7V69.28Z"/><path class="cls-1" d="M182.29,94.3v3.45h5l.11,1.69h-7V87.58h6.63a2.73,2.73,0,0,1,.19.64,3.82,3.82,0,0,1-.12.85h-4.77V92.5h4.57l.15,1.8Z"/><path class="cls-1" d="M162.05,97.78H167l.19,1.66h-7V87.59h6.67l.08,1.53H162v3.44h4.61c.05.63.08,1,.13,1.69h-4.71Z"/><path class="cls-1" d="M99.11,87.34a43.55,43.55,0,0,1,5.07.31A3.13,3.13,0,0,1,106.7,91a3.19,3.19,0,0,1-2.51,3.16,28.69,28.69,0,0,1-3.3.4v4.9l-1.78.09ZM101,89.2v3.28c3.24.38,3.94-.17,3.43-2.6C103.45,88.84,102.24,89.17,101,89.2Z"/><path class="cls-1" d="M90,98.72V96.58a6.89,6.89,0,0,0,1.05.61,7,7,0,0,0,2.26.74A1.89,1.89,0,0,0,94.77,97a2.06,2.06,0,0,0-.4-1.68,7.23,7.23,0,0,0-1.66-1.25c-.56-.4-1.17-.75-1.7-1.2a3,3,0,0,1-1-3.3,3.11,3.11,0,0,1,2.65-2.22,4.63,4.63,0,0,1,3.55.79V90c-1.52-.56-3-1.7-4.41-.17-.33,1.07.27,1.61,1,2.08s1.5.9,2.21,1.4a3.64,3.64,0,0,1,1.57,4.39,3.46,3.46,0,0,1-4,1.95A15.16,15.16,0,0,1,90,98.72Z"/><path class="cls-1" d="M177,87.55h1.87l-5.07,12h-.51l-5.17-12,1.86-.15,3.52,8.14C174.75,92.69,175.86,90.13,177,87.55Z"/><path class="cls-1" d="M158.4,97.77l-.08,1.69h-7V87.66a3,3,0,0,1,.66-.19,8.22,8.22,0,0,1,1.09.14V97.77Z"/><path class="cls-1" d="M14,63.54a1.58,1.58,0,0,1-1.41-1.69c0-1.9,0-3.81,0-5.72,0-.88.41-1.65,1.41-1.65s1.41.77,1.43,1.64c.05,1.91.06,3.82,0,5.72C15.41,62.83,15.23,62.93,14,63.54Z"/><path class="cls-1" d="M14.05,17.78a1.54,1.54,0,0,1-1.44-1.66c0-1.91,0-3.81,0-5.72,0-.88.39-1.66,1.39-1.68s1.42.74,1.44,1.62c.06,1.9.06,3.81,0,5.72A1.62,1.62,0,0,1,14.05,17.78Z"/><path class="cls-1" d="M15.45,82c0,.92.06,1.85,0,2.77s-.48,1.61-1.5,1.55a1.41,1.41,0,0,1-1.32-1.56c0-2,0-3.93,0-5.89a1.41,1.41,0,0,1,1.33-1.55c1,0,1.44.68,1.5,1.56.06,1,0,2.08,0,3.12Z"/><path class="cls-1" d="M14,31.54a1.76,1.76,0,0,1,1.45,2c0,1.73,0,3.47,0,5.2,0,1.27-.67,2-1.53,1.91-1.11-.14-1.33-1-1.35-1.91,0-1.74,0-3.47,0-5.2A1.74,1.74,0,0,1,14,31.54Z"/><path class="cls-1" d="M14,43a1.66,1.66,0,0,1,1.48,1.77c0,1.85.05,3.71,0,5.56,0,.93-.39,1.79-1.5,1.75s-1.34-.84-1.36-1.71c0-1.85-.05-3.71,0-5.55C12.63,43.74,12.73,43.7,14,43Z"/><path class="cls-1" d="M14,88.75a1.66,1.66,0,0,1,1.43,1.87c0,1.79,0,3.58,0,5.37,0,.93-.34,1.82-1.44,1.81S12.6,96.92,12.58,96c0-1.79,0-3.58,0-5.37A1.66,1.66,0,0,1,14,88.75Z"/><path class="cls-1" d="M15.45,24.68c0,1,0,2,0,2.95,0,.81-.43,1.51-1.34,1.54s-1.45-.69-1.48-1.58c0-2,0-3.93,0-5.89A1.39,1.39,0,0,1,14,20.16c1,0,1.42.7,1.49,1.57s0,2,0,2.95Z"/><path class="cls-1" d="M15.45,70.43c0,1,.05,2,0,2.95s-.5,1.6-1.5,1.55a1.42,1.42,0,0,1-1.32-1.56c0-2,0-3.93,0-5.89a1.41,1.41,0,0,1,1.33-1.55c1-.05,1.43.68,1.49,1.56S15.45,69.45,15.45,70.43Z"/><path class="cls-1" d="M19.11,41.26c-1.42-.23-2-1-2.05-2-.11-2.08-.07-4.17,0-6.25,0-.34.34-.68.51-1a1.73,1.73,0,0,1,2.13,1.66c.16,2.13.1,4.27.05,6.41C19.72,40.5,19.33,40.88,19.11,41.26Z"/><path class="cls-1" d="M17.53,77.79a1.85,1.85,0,0,1,2.19,1.88c.13,2,.08,4.06,0,6.08,0,.43-.42.86-.61,1.22a1.88,1.88,0,0,1-2-1.78c-.13-2.19-.05-4.39,0-6.59C17.09,78.36,17.34,78.11,17.53,77.79Z"/><path class="cls-1" d="M19.15,52.67c-1.44-.16-2-.94-2.08-1.89-.11-2.14-.05-4.28,0-6.42,0-.29.32-.57.5-.87a1.76,1.76,0,0,1,2.13,1.78c.14,2.08.09,4.17,0,6.25C19.72,51.91,19.36,52.28,19.15,52.67Z"/><path class="cls-1" d="M19.13,75.49a1.86,1.86,0,0,1-2.06-1.84c-.14-2.07-.08-4.16,0-6.24,0-.35.33-.69.49-1a1.6,1.6,0,0,1,2.09,1.42c.14,2.35,0,4.72,0,7.08C19.59,75.08,19.33,75.25,19.13,75.49Z"/><path class="cls-1" d="M17.69,54.8a2.07,2.07,0,0,1,2,2c.1,2,.05,4,0,6.07a2.78,2.78,0,0,1-.43,1,1.64,1.64,0,0,1-2.18-1.52C17,60.23,17,58,17.07,55.84,17.07,55.51,17.45,55.18,17.69,54.8Z"/><path class="cls-1" d="M119.3,87.56h1.6V99.39l-1.6.2Z"/><path class="cls-1" d="M23.59,42.62A1.63,1.63,0,0,1,21.54,41c-.13-2.19-.06-4.39,0-6.58,0-.28.33-.56.5-.83A1.61,1.61,0,0,1,24,35.16c.11,2.3,0,4.6,0,6.91C23.93,42.21,23.76,42.35,23.59,42.62Z"/><path class="cls-1" d="M22.4,67.32c.69.9,1.49,1.47,1.53,2.09.16,2.29.07,4.61,0,6.91,0,.19-.23.38-.34.54-1.42,0-2.06-.4-2.12-1.66-.1-2.07-.07-4.16,0-6.24C21.52,68.54,21.94,68.14,22.4,67.32Z"/><path class="cls-1" d="M23.56,88.41a1.72,1.72,0,0,1-2-1.76c-.12-2.08-.07-4.16,0-6.24,0-.39.34-.77.52-1.14A1.79,1.79,0,0,1,24,81c.11,2.13.07,4.27,0,6.4C24,87.76,23.71,88.1,23.56,88.41Z"/><path class="cls-1" d="M23.47,99.89a1.69,1.69,0,0,1-1.91-1.6c-.12-2.25-.06-4.5,0-6.75,0-.24.28-.48.42-.71a1.52,1.52,0,0,1,2,1.43c.14,2.3.06,4.61,0,6.91C24,99.4,23.66,99.63,23.47,99.89Z"/><path class="cls-1" d="M21.93,45.06a1.59,1.59,0,0,1,2,1.52c.13,2.24.06,4.5,0,6.75,0,.27-.35.54-.53.79a1.67,1.67,0,0,1-1.91-1.67c-.11-2.24,0-4.49,0-6.74C21.56,45.51,21.77,45.32,21.93,45.06Z"/><path class="cls-1" d="M27.91,89.85a1.32,1.32,0,0,1-1.82-1.19c-.12-2.41,0-4.84,0-7.26,0-.17.27-.35.41-.53a1.47,1.47,0,0,1,1.75,1.52c.1,2.25,0,4.51,0,6.76C28.26,89.4,28,89.64,27.91,89.85Z"/><path class="cls-1" d="M27.81,101.37A1.53,1.53,0,0,1,26,99.83c-.11-2.19-.07-4.39,0-6.58,0-.34.34-.68.5-1a1.5,1.5,0,0,1,1.74,1.47c.08,2.36,0,4.73,0,7.09C28.19,101,28,101.12,27.81,101.37Z"/><path class="cls-1" d="M30.9,36.61a1.62,1.62,0,0,1,1.73,1.73c.09,2.08.06,4.17,0,6.25a3.34,3.34,0,0,1-.47,1.12c-1.14,0-1.67-.59-1.69-1.36-.08-2.37,0-4.74,0-7.1C30.5,37.06,30.73,36.87,30.9,36.61Z"/><path class="cls-1" d="M31.58,70.76c.36.59,1,1.18,1,1.79.06,2.48.37,5-.2,7.44-1.47.1-1.92-.67-2-1.57-.09-2.14-.07-4.29,0-6.43,0-.39.34-.77.52-1.15Z"/><path class="cls-1" d="M26.54,46.49a1.62,1.62,0,0,1,1.72,1.6c.08,2.25,0,4.5,0,6.76,0,.24-.25.48-.39.73A1.45,1.45,0,0,1,26,54.15c-.11-2.31,0-4.62,0-6.93C26.05,47,26.35,46.76,26.54,46.49Z"/><path class="cls-1" d="M9.05,41.59c-.75-1.34-.88-7.38-.19-8.44a11.49,11.49,0,0,1,1.44-1.4,7.21,7.21,0,0,1,.53,1.67c.05,1.86,0,3.72,0,5.58A2.51,2.51,0,0,1,9.05,41.59Z"/><path class="cls-1" d="M9,87.25c-.14-.19-.39-.37-.39-.55,0-2.38-.09-4.76,0-7.13a1.78,1.78,0,0,1,1.77-1.68c.15.26.41.5.41.73,0,2.27.08,4.53,0,6.79A1.8,1.8,0,0,1,9,87.25Z"/><path class="cls-1" d="M30.86,93.78a1.72,1.72,0,0,1,1.79,1.86c.07,2,.06,4,0,6.08a3.72,3.72,0,0,1-.54,1.24c-1.15-.11-1.63-.74-1.65-1.52-.07-2.31,0-4.62,0-6.94C30.47,94.3,30.67,94.11,30.86,93.78Z"/><path class="cls-1" d="M30.87,48.05a1.52,1.52,0,0,1,1.73,1.51c.1,2.2.08,4.4,0,6.6,0,.38-.39.74-.57,1.05-1.12-.14-1.59-.78-1.61-1.56-.06-2.31,0-4.62,0-6.94C30.49,48.52,30.7,48.33,30.87,48.05Z"/><path class="cls-1" d="M31.34,59c.56.89,1.21,1.46,1.25,2.07.12,2.24,0,4.5,0,6.76,0,.24-.28.48-.41.69a1.32,1.32,0,0,1-1.71-1.32c-.1-2.31-.06-4.62,0-6.93C30.46,60,30.82,59.72,31.34,59Z"/><path class="cls-1" d="M8.58,98.63c0-2.67-.08-5.2.05-7.72a1.56,1.56,0,0,1,1.85-1.5,3.34,3.34,0,0,1,.34.94c0,2,.07,4.06,0,6.09C10.75,97.85,10.22,98.34,8.58,98.63Z"/><path class="cls-1" d="M26.47,58a1.38,1.38,0,0,1,1.74,1.33c.1,2.36,0,4.73,0,7.09,0,.19-.23.38-.35.57a1.4,1.4,0,0,1-1.81-1.4c-.12-2.3-.05-4.62,0-6.92C26,58.45,26.33,58.22,26.47,58Z"/><path class="cls-1" d="M10.72,55c0,1,.12,1.84.13,2.68,0,1.46.07,2.91,0,4.36-.08,1.12-.43,2.17-2,2.26a4.67,4.67,0,0,1-.34-1.11c0-1.91-.05-3.83,0-5.74C8.52,55.93,9,55.43,10.72,55Z"/><path class="cls-1" d="M10.74,43.66c0,2.63.09,5.11-.05,7.57a1.63,1.63,0,0,1-1.9,1.64,2.64,2.64,0,0,1-.3-.8c0-2.09-.08-4.18,0-6.27C8.54,44.4,9.1,43.9,10.74,43.66Z"/><path class="cls-1" d="M8.69,75.82a12.52,12.52,0,0,1-.23-1.45c0-1.81,0-3.61,0-5.41a2.49,2.49,0,0,1,1.9-2.61,4,4,0,0,1,.46,1.2c0,2,.07,4,0,5.93C10.77,74.89,10.29,75.38,8.69,75.82Z"/><path class="cls-1" d="M10.48,20.61a5.62,5.62,0,0,1,.35,1.27c0,1.92.06,3.84,0,5.75a2.29,2.29,0,0,1-2,2.48,4.75,4.75,0,0,1-.38-1.24c0-1.91,0-3.83,0-5.75A2.36,2.36,0,0,1,10.48,20.61Z"/><path class="cls-1" d="M35.66,83.42c.55.83,1.19,1.34,1.21,1.88.12,2.31.07,4.63,0,6.94,0,.24-.26.48-.4.71a1.38,1.38,0,0,1-1.64-1.45c-.1-2.25,0-4.51,0-6.77C34.86,84.45,35.18,84.17,35.66,83.42Z"/><path class="cls-1" d="M39.73,39.72A1.24,1.24,0,0,1,41.21,41c.08,2.37,0,4.74,0,7.11,0,.23-.3.46-.47.7a1.38,1.38,0,0,1-1.46-1.45c-.07-2.25,0-4.52,0-6.78C39.29,40.25,39.59,40,39.73,39.72Z"/><path class="cls-1" d="M35.33,95.34a1.45,1.45,0,0,1,1.58,1.49c.07,2.26,0,4.52,0,6.77,0,.29-.31.57-.46.82A1.37,1.37,0,0,1,34.88,103c-.1-2.31-.05-4.63,0-6.94C34.87,95.86,35.15,95.62,35.33,95.34Z"/><path class="cls-1" d="M36.39,58.76A1.73,1.73,0,0,1,34.82,57c-.06-2.09,0-4.18,0-6.26a3.48,3.48,0,0,1,.46-1.16c1.13,0,1.6.68,1.63,1.46.06,2.31,0,4.63,0,6.95C36.89,58.21,36.6,58.44,36.39,58.76Z"/><path class="cls-1" d="M39.72,85.49a1.23,1.23,0,0,1,1.49,1.23c.08,2.37,0,4.74,0,7.11,0,.23-.3.46-.47.71a1.4,1.4,0,0,1-1.46-1.46c-.07-2.25,0-4.52,0-6.78C39.29,86,39.59,85.73,39.72,85.49Z"/><path class="cls-1" d="M36.46,81.55c-1.22,0-1.6-.79-1.64-1.69-.08-2.08,0-4.17,0-6.26a3.77,3.77,0,0,1,.48-1.18c1.11.08,1.59.71,1.61,1.48.07,2.32,0,4.63,0,6.95C36.89,81.08,36.61,81.31,36.46,81.55Z"/><path class="cls-1" d="M40.11,96.43c.5.82,1.1,1.35,1.13,1.91.09,2.3,0,4.62,0,6.93,0,.2-.21.39-.32.58a1.16,1.16,0,0,1-1.56-1.19c-.1-2.37-.05-4.74,0-7.12C39.33,97.31,39.63,97.09,40.11,96.43Z"/><path class="cls-1" d="M40.78,60.19a1.38,1.38,0,0,1-1.49-1.46c-.06-2.26,0-4.52,0-6.78,0-.29.31-.57.46-.84a1.38,1.38,0,0,1,1.49,1.47c.09,2.25.06,4.51,0,6.77C41.26,59.63,41,59.91,40.78,60.19Z"/><path class="cls-1" d="M39.76,62.53a1.5,1.5,0,0,1,1.52,1.59c0,2.52.53,5.1-.35,7.54l-.61.15c-.35-.52-1-1-1-1.56-.11-2.32-.06-4.64,0-7C39.31,63.06,39.58,62.82,39.76,62.53Z"/><path class="cls-1" d="M44.86,39.26a7.64,7.64,0,0,1-1.11-1.74c-.5-1.88-.08-6.88.77-8,.4.61,1,1.12,1,1.65.1,2.32,0,4.64,0,7C45.55,38.36,45.27,38.59,44.86,39.26Z"/><path class="cls-1" d="M44.83,73.64c-.51-.84-1.07-1.33-1.08-1.84-.08-2.55-.42-5.13.22-7.69,1.21,0,1.58.67,1.6,1.43.07,2.26,0,4.52,0,6.78C45.57,72.61,45.27,72.89,44.83,73.64Z"/><path class="cls-1" d="M44.82,41.11a6.64,6.64,0,0,1,.77,1.76c.4,2.86.06,6.51-.64,7.44a1.44,1.44,0,0,1-1.25-1.59q-.08-3.21,0-6.44a3.56,3.56,0,0,1,.49-1.15Z"/><path class="cls-1" d="M44.82,96.41c-.47-.71-1-1.18-1.06-1.67-.08-2.38,0-4.75,0-7.13,0-.19.22-.38.32-.56a1.12,1.12,0,0,1,1.45,1.15c.07,2.43,0,4.86,0,7.29C45.5,95.67,45.24,95.85,44.82,96.41Z"/><path class="cls-1" d="M45.41,84.69c-1.4-.22-1.62-.91-1.73-1.69-.42-2.93,0-6.68.92-7.66.35.54.93,1,.94,1.53A41,41,0,0,1,45.41,84.69Z"/><path class="cls-1" d="M5.24,43.73A9.88,9.88,0,0,1,5,42.25c0-1.86,0-3.71,0-5.57,0-1,.2-2,1.49-2.33.16.32.42.6.42.89,0,2.14.06,4.29,0,6.43C6.87,42.76,6.64,43,5.24,43.73Z"/><path class="cls-1" d="M5.55,89.76A5.4,5.4,0,0,1,5,88.48c0-2.14,0-4.29,0-6.43,0-.9.33-1.7,1.36-1.89.15.1.32.17.32.23.06,2.54.17,5.07.11,7.6C6.77,88.51,6.1,89,5.55,89.76Z"/><path class="cls-1" d="M6.53,91.49a4,4,0,0,1,.36,1.06c0,2.09,0,4.18,0,6.27a1.91,1.91,0,0,1-1.47,2.05,2.91,2.91,0,0,1-.43-1c0-2.08,0-4.17,0-6.26A2,2,0,0,1,6.53,91.49Z"/><path class="cls-1" d="M5.32,55.16A6.18,6.18,0,0,1,5,53.9C5,51.93,5,50,5,48a2,2,0,0,1,1.49-2.23,3.44,3.44,0,0,1,.42,1.05c0,2.09.05,4.18,0,6.26C6.87,54.18,6.68,54.37,5.32,55.16Z"/><path class="cls-1" d="M5.24,9.35A7.6,7.6,0,0,1,5,8.05C5,6.14,5,4.22,5,2.31A2,2,0,0,1,6.63,0,7.84,7.84,0,0,1,6.9,1.49c0,1.85,0,3.71,0,5.56C6.9,8.06,6.73,9,5.24,9.35Z"/><path class="cls-1" d="M52.82,30.61c-.43-.79-.91-1.25-.91-1.72,0-2.56-.36-5.15.21-7.69l.47-.17c.33.44.91.88.93,1.34.1,2.38.06,4.76,0,7.15C53.54,29.75,53.25,30,52.82,30.61Z"/><path class="cls-1" d="M52.81,64.93a8.39,8.39,0,0,1-.92-1.84c-.4-2.5,0-6.74.73-7.79a6.4,6.4,0,0,1,.92,1.36C54,58.06,53.58,63.63,52.81,64.93Z"/><path class="cls-1" d="M5.25,66.58A8.64,8.64,0,0,1,5,65.11q0-2.78,0-5.55c0-1,.17-2,1.58-2.35a5.4,5.4,0,0,1,.34,1.26c0,2,0,3.93,0,5.89C6.88,65.62,6.68,65.84,5.25,66.58Z"/><path class="cls-1" d="M52.46,66.84c1.42,1.14,1.69,7.61.32,9.29a5.54,5.54,0,0,1-.87-1.39C51.5,73.11,51.89,67.74,52.46,66.84Z"/><path class="cls-1" d="M5.09,20.75c0-1.08-.11-2-.12-2.88,0-1.45,0-2.89,0-4.34,0-.93.26-1.83,1.56-2a3.64,3.64,0,0,1,.34,1c0,2.08.05,4.16,0,6.24A1.81,1.81,0,0,1,5.09,20.75Z"/><path class="cls-1" d="M49.08,76.67a9.31,9.31,0,0,1,.82,2c.38,3.34.09,6.5-.83,7.68a7.16,7.16,0,0,1-1-1.76C47.65,82.3,48.07,77.92,49.08,76.67Z"/><path class="cls-1" d="M6.85,68.7c0,2.72.06,5.24,0,7.76,0,.55-.65,1.07-1.21,1.93A5.88,5.88,0,0,1,5,77c0-2.08-.06-4.16,0-6.24A1.79,1.79,0,0,1,6.85,68.7Z"/><path class="cls-1" d="M49.15,63.62a8.16,8.16,0,0,1-1-1.78c-.43-1.81,0-6.74.7-7.89.4.55,1,1,1,1.45.08,2.43,0,4.86,0,7.29C49.81,62.87,49.57,63.05,49.15,63.62Z"/><path class="cls-1" d="M48.84,42.36c.45.71,1,1.14,1,1.59.05,2.48,0,5-.08,7.45,0,.08-.14.17-.27.32-.88.18-1.29-.46-1.32-1.15-.08-2.37,0-4.74,0-7.11C48.15,43.22,48.43,43,48.84,42.36Z"/><path class="cls-1" d="M49.18,109.4a8.18,8.18,0,0,1-1-1.77c-.42-1.68,0-6.75.66-7.93.41.54,1,1,1,1.43.09,2.43,0,4.86,0,7.29C49.82,108.61,49.59,108.79,49.18,109.4Z"/><path class="cls-1" d="M52.74,101.13a6.23,6.23,0,0,1,.83,1.51c.42,2,0,6.73-.73,7.88-.36-.59-.9-1-.92-1.54-.09-2.32-.05-4.64,0-7,0-.25.23-.5.36-.74Z"/><path class="cls-1" d="M6.78,23c0,.94.12,1.73.13,2.51,0,1.56,0,3.12,0,4.68,0,.95-.27,1.82-1.55,2A3.41,3.41,0,0,1,5,31.24C5,29.16,5,27.08,5,25A1.8,1.8,0,0,1,6.78,23Z"/><path class="cls-1" d="M52.84,89.67a7.32,7.32,0,0,1,.75,1.74c.39,2.93.06,6.51-.81,7.65-.34-.6-.85-1.08-.87-1.58-.09-2.27,0-4.53,0-6.8,0-.3.27-.6.41-.89Z"/><path class="cls-1" d="M52.9,87.8a7.13,7.13,0,0,1-1-1.66c-.42-1.8,0-7,.7-8,.36.59.92,1.07.93,1.56.09,2.32.05,4.64,0,7C53.55,86.88,53.29,87.12,52.9,87.8Z"/><path class="cls-1" d="M52.86,43.92a7.14,7.14,0,0,1,.73,1.75c.39,3,.06,6.5-.79,7.59-.33-.5-.85-.93-.87-1.38-.08-2.38,0-4.76,0-7.15,0-.23.27-.47.41-.71Z"/><path class="cls-1" d="M52.74,32.47c.29.51.81,1,.81,1.52,0,2.54.36,5.12-.21,7.69-1.2-.18-1.46-.8-1.47-1.54q0-3.22,0-6.44a3.83,3.83,0,0,1,.42-1.17Z"/><path class="cls-1" d="M58.16,112.33c-.22-.54-.65-1.09-.63-1.62.1-2.48-.45-5,.32-7.44l.47-.12c.23.41.65.81.66,1.22a37.46,37.46,0,0,1-.16,7.85Z"/><path class="cls-1" d="M58.12,68.83c1.11,1.18,1.36,7.2.34,9.33a5.56,5.56,0,0,1-.86-1.23C57.16,75.55,57.53,69.8,58.12,68.83Z"/><path class="cls-1" d="M58.39,66.83a7.15,7.15,0,0,1-.82-1.46c-.39-1.46,0-7,.59-8.1.33.5.79.87.8,1.26,0,2.49,0,5,0,7.49C58.94,66.16,58.76,66.29,58.39,66.83Z"/><path class="cls-1" d="M58.7,89.7c-1.46-1.49-1.64-7.86-.42-9.53.28.51.69.92.7,1.34C59,84.12,59.35,86.76,58.7,89.7Z"/><path class="cls-1" d="M58.06,34.47c1.16,1.21,1.42,7.21.41,9.39-.37-.56-.87-1-.89-1.4-.07-2.38,0-4.76,0-7.14C57.57,35.08,57.83,34.84,58.06,34.47Z"/><path class="cls-1" d="M58.22,45.64A8.74,8.74,0,0,1,59,47.4c.38,2.39.06,6.71-.64,7.86a6.11,6.11,0,0,1-.8-1.28C57.19,52.65,57.53,47,58.22,45.64Z"/><path class="cls-1" d="M58.27,91.63c.28.51.7.91.71,1.32,0,2.62.36,5.25-.19,7.83l-.47.14a5.1,5.1,0,0,1-.77-1.32C57.12,97.67,57.52,92.67,58.27,91.63Z"/><path class="cls-1" d="M55.68,90.61a6,6,0,0,1,.81,1.46c.42,2,0,6.93-.69,8A5.82,5.82,0,0,1,55,98.61C54.57,96.63,55,91.68,55.68,90.61Z"/><path class="cls-1" d="M55.68,44.85a6,6,0,0,1,.81,1.46c.42,2,0,6.93-.69,8A5.82,5.82,0,0,1,55,52.85C54.57,50.88,55,45.92,55.68,44.85Z"/><path class="cls-1" d="M2.42,45.22c-.06-3-.78-6.09.5-9C4.23,37.87,3.88,44.28,2.42,45.22Z"/><path class="cls-1" d="M2.43,91c-.08-3-.78-6.08.48-9C4.23,83.59,3.89,90,2.43,91Z"/><path class="cls-1" d="M3.44,70.55c.55,2.57.23,5.19.18,7.79,0,.46-.48.91-.74,1.38-.32-.2-.49-.25-.49-.32-.06-2.58-.13-5.17-.11-7.75,0-.41.46-.81.7-1.21Z"/><path class="cls-1" d="M55.61,67.62c.38.62.84,1,.85,1.42a51.41,51.41,0,0,1-.07,7.85l-.57.19c-.29-.46-.81-.91-.82-1.38-.09-2.31-.06-4.64,0-7C55,68.47,55.28,68.19,55.61,67.62Z"/><path class="cls-1" d="M2.29,33.76c0-2.69,0-5.37,0-8.06,0-.34.47-.67.92-.95.74,2.63.44,5.25.38,7.85,0,.45-.49.9-.75,1.35Z"/><path class="cls-1" d="M3.46,93.28a38.4,38.4,0,0,1,.17,7.93c0,.46-.48.92-.74,1.37l-.39-.08a4.57,4.57,0,0,1-.31-1c0-2.08,0-4.17,0-6.25A1.77,1.77,0,0,1,3.46,93.28Z"/><path class="cls-1" d="M2.91,47.56c1.31,2.3.91,8.19-.44,9.34-.61-2.67-.22-5.23-.24-7.75C2.22,48.62,2.67,48.09,2.91,47.56Z"/><path class="cls-1" d="M55.87,65.91A7.62,7.62,0,0,1,55,64.39c-.38-1.47,0-6.94.57-8.07.37.52.88.92.89,1.33.08,2.43,0,4.85,0,7.28C56.46,65.12,56.25,65.3,55.87,65.91Z"/><path class="cls-1" d="M3.42,59.09c.62,2.5.22,5.07.23,7.61,0,.51-.48,1-1,1.49-.75-2.61-.46-5.22-.42-7.81,0-.47.46-.93.71-1.39Z"/><path class="cls-1" d="M55.86,111.66a7.47,7.47,0,0,1-.86-1.52c-.38-1.52,0-6.94.59-8.07.36.53.86.93.88,1.35.06,2.43,0,4.86,0,7.28C56.46,110.89,56.24,111.07,55.86,111.66Z"/><path class="cls-1" d="M.66,14.77c.76,1.36.71,7.43-.08,8.83C-.23,22.47-.17,16,.66,14.77Z"/><path class="cls-1" d="M.72,94.73c.8,2.14.57,7.91-.28,8.92C-.22,102.05-.09,96,.72,94.73Z"/><path class="cls-1" d="M.65,49.1c.86,1.46.71,7.72-.22,8.79C-.24,56.22-.09,50.19.65,49.1Z"/><path class="cls-1" d="M.84,60.57c.27,2.94.61,5.88-.16,8.79C-.18,68.07-.14,61.87.84,60.57Z"/><path class="cls-1" d="M.55,46.44c-.75-1.94-.6-7.63.18-9,.77,1.63.38,3.17.4,4.62S1.47,45.08.55,46.44Z"/><path class="cls-1" d="M.68,26.12c.81,1.94.63,7.81-.2,8.9C-.2,33.65-.12,27.48.68,26.12Z"/><path class="cls-1" d="M.71,71.87c.8,2.17.58,7.9-.26,8.9C-.22,79.24-.1,73.14.71,71.87Z"/><path class="cls-1" d="M.69,83.42c.74,1.42.66,7.47-.13,8.78C-.25,91-.16,84.51.69,83.42Z"/></g></g></svg>