<svg xmlns="http://www.w3.org/2000/svg" viewBox="0 0 382.35 80.52"><defs><style>.cls-1{fill:#fff;}</style></defs><title>Limecraft</title><g id="Layer_2" data-name="Layer 2"><g id="Layer_1-2" data-name="Layer 1"><path class="cls-1" d="M53.63,19.77a58.49,58.49,0,0,1-.05,6.49c-.29,2.55.77,3.91,3,5,4.1,2.15,8,4.62,12.08,6.88a3.09,3.09,0,0,1,1.87,3.09c-.08,5.71-.07,11.43,0,17.15a3.17,3.17,0,0,1-1.76,3.16Q52.75,70.76,36.83,80a2.75,2.75,0,0,1-3.16,0C23,73.8,12.27,67.67,1.63,61.4A3.67,3.67,0,0,1,.09,58.71C0,46.35.05,34,0,21.63a2.74,2.74,0,0,1,1.59-2.74C12.37,12.7,23.11,6.45,33.92.31a3.13,3.13,0,0,1,2.66,0Q44.38,4.59,52,9.2a3.94,3.94,0,0,1,1.53,2.7c.21,2.61.07,5.25.07,7.87Zm.17,46.45a3.08,3.08,0,0,0,.86-.06c4-2.25,7.93-4.46,11.8-6.84A3.13,3.13,0,0,0,67.52,57c.09-4.71.14-9.41,0-14.11a4.2,4.2,0,0,0-1.73-2.84c-3-1.92-6.1-3.6-9.19-5.35-.82-.47-1.69-.85-2.76-1.39ZM50.29,27.6a9.67,9.67,0,0,0,.31-1.46c0-4.32.09-8.65-.05-13a3.41,3.41,0,0,0-1.5-2.26c-2.53-1.62-5.41-2.77-7.73-4.63C37.15,3,33.39,3,29.24,6.29,27.07,8,24.43,9.19,21.44,11ZM21.42,69.45c4.75,2.72,9,5.2,13.28,7.52.52.28,1.61-.18,2.29-.55,3.17-1.76,6.3-3.59,9.43-5.42.75-.43,1.45-.94,2.53-1.65-3.47-2-6.66-3.61-9.52-5.66s-5.34-2.15-8.28,0S25,67.34,21.42,69.45ZM3.09,37.54c4.74-2.76,9-5.19,13.18-7.74.41-.25.54-1.22.55-1.85.05-3.39,0-6.78,0-10.17V13.55c-4.67,2.7-8.8,5.06-12.89,7.5a2.07,2.07,0,0,0-.84,1.48C3.06,27.3,3.09,32.06,3.09,37.54Zm0,5.24c0,3.2.35,5.72-.07,8.1-1.1,6.21,1.4,10,7.15,12.11,2.23.84,4.22,2.31,6.72,3.71,0-5.37,0-10.21,0-15a1.59,1.59,0,0,0-.54-1.19C12.07,48,7.83,45.55,3.05,42.78Zm17,24,12.25-7.11L20,52.62ZM33.61,37.46V23.35L21.39,30.41ZM20.08,27.7l12.16-7-12.16-7Zm.1,5.48v14l12-7Zm13.5,9.63L21.46,49.93,33.68,57Zm16.78-9.68-12.18,7,12.18,7.07ZM37,37.48,49.1,30.39,37,23.38ZM50.4,66.67v-14l-12.1,7ZM16.69,33.14l-12.13,7,12.13,7ZM37,42.93v14l12-7Z"/><path class="cls-1" d="M368.88,22.83c0,2.39.07,4.6,0,6.81-.06,1.69.56,2.36,2.29,2.31,3.08-.1,6.17,0,9.26,0,1.27,0,1.82.42,1.84,1.72s-.48,1.94-1.9,1.91c-3.09-.06-6.18,0-9.27,0-1.55,0-2.23.55-2.22,2.17.05,6,0,12.05.05,18.07.06,4.13,2.31,6.11,6.4,5.66,2.06-.23,4.08-.76,6.11-1.15,1.49,2.51,1.3,3.31-1.34,3.91a34.68,34.68,0,0,1-7.3.94c-4.67,0-7.71-2.74-8-7.58-.33-6.24-.22-12.5-.25-18.75,0-3.24,0-3.25-3.14-3.26s-6.64.06-10,0c-1.91-.06-2.55.67-2.53,2.58.07,8.1,0,16.21.05,24.32,0,1.53,0,2.69-2.14,2.67s-2.26-1-2.26-2.6c0-8-.06-16.07.06-24.1,0-2.26-.72-3.08-2.92-2.87-1.28.12-2.58,0-3.8,0-.83-3.42-.7-3.58,2.43-3.6,4.64,0,4.2.5,4.26-4.21a44.3,44.3,0,0,1,.38-6,7.25,7.25,0,0,1,6.87-6.42,24,24,0,0,1,5.74.31c2.8.47,2.93.87,2,3.94-1.55-.19-3.12-.5-4.71-.57-3.77-.16-5.62,1.5-5.86,5.27-.12,1.92,0,3.86,0,5.79,0,1.42.65,1.9,2,1.89q5.91-.06,11.82,0c1.35,0,2-.5,2-1.88,0-1.08,0-2.16,0-3.24C364.79,23.36,364.79,23.36,368.88,22.83Z"/><path class="cls-1" d="M140.59,48c0-4.55,0-9.11,0-13.67,0-1-.42-2.26,1.32-2.43,1.56-.15,1.74.85,2,1.95.61,2.61.7,2.64,2.93,1.29a23.31,23.31,0,0,1,13.85-3.75c3.11.19,5.78,1.21,7.56,3.82,1.06,1.55,2,1.5,3.4.51a22.68,22.68,0,0,1,14.12-4.35c5.8.2,9.85,3.58,10.1,9.35.33,7.4.12,14.83.18,22.25,0,1.61-1,1.62-2.13,1.64s-2.05-.2-2-1.74c0-6.18,0-12.37,0-18.55,0-7.16-3.66-10.41-10.61-8.83-3.38.78-6.54,2.62-9.69,4.2-.63.31-1,1.66-1,2.53-.08,6.64-.05,13.29,0,19.93,0,1.48-.1,2.48-2,2.53s-2.23-1-2.22-2.58c0-5.72,0-11.44,0-17.15a25.2,25.2,0,0,0-.18-3c-.64-4.78-3.63-7.23-8.44-6.86A24.41,24.41,0,0,0,146,39.66a3.53,3.53,0,0,0-1,2.58c-.08,6.65-.07,13.29,0,19.94,0,1.49-.13,2.46-2.06,2.5s-2.34-.88-2.33-2.53c0-4.71,0-9.42,0-14.14Z"/><path class="cls-1" d="M328,60.12c-1,.73-1.55,1.11-2.07,1.52a16.24,16.24,0,0,1-19.39.69,17.31,17.31,0,0,1-6.75-19.39A16.48,16.48,0,0,1,315,31.39,15.33,15.33,0,0,1,326.11,35c1.26,1.09,2.06.88,2.24-.88,0-.31,0-.72.22-.89.54-.48,1.2-1.22,1.77-1.17a2.06,2.06,0,0,1,1.32,1.54q.13,14.7,0,29.39c0,.55-.83,1.58-1.15,1.53a2.74,2.74,0,0,1-1.76-1.23A13.09,13.09,0,0,1,328,60.12Zm-.6-12.66c-.12-2.45.65-5.68-2-8.42a12.7,12.7,0,0,0-15.25-2.5,13.33,13.33,0,0,0-6.29,14.86c1.27,4.94,4.23,8.35,9.24,9.68,4.65,1.23,8.59-.09,12.06-3.4C328,54.93,327.37,51.51,327.37,47.46Z"/><path class="cls-1" d="M232.55,55.08a13.33,13.33,0,0,1-11.44,10,16.13,16.13,0,0,1-18.42-13.35c-1.71-9.43,3.45-18,12.21-19.95,11.43-2.52,18.67,6.69,18.62,15.76,0,1.73-1.05,1.77-2.29,1.77H209.46c-2.89,0-3.08.27-2.39,3.08a11.9,11.9,0,0,0,17.16,7.8,8.21,8.21,0,0,0,3.45-3.25C228.81,54.61,230.35,54.52,232.55,55.08ZM218,45.7v.07c2.93,0,5.87,0,8.8,0,2.22,0,2.58-.55,2-2.67C227.36,38,223.3,34.9,218.28,35a12,12,0,0,0-11.07,8.69c-.35,1.43.12,2,1.57,2C211.86,45.69,215,45.7,218,45.7Z"/><path class="cls-1" d="M255.67,65.58c-7.47-.46-13.51-4.73-15.84-11.5-2.39-6.94-.3-14.75,5.12-19.12a17.07,17.07,0,0,1,19.11-1.35,12.7,12.7,0,0,1,5.81,6.94,7.41,7.41,0,0,1-.14,2.63c-1.33-.11-2.8.7-3.69-1.31a11.49,11.49,0,0,0-17.28-4.74c-5.37,3.69-7.11,11.7-3.88,17.86a12.11,12.11,0,0,0,15.44,5.64,8.71,8.71,0,0,0,5.47-5.29c.69-2,2.21-1.63,3.58-1.39.3,0,.72,1.42.53,2a11.85,11.85,0,0,1-7.16,7.69A61.91,61.91,0,0,1,255.67,65.58Z"/><path class="cls-1" d="M105.34,36.83V18.53c0-1.58-.46-3.28,2.24-3.26s2.09,1.9,2.1,3.37c0,11.19,0,22.39,0,33.58,0,.62,0,1.23,0,1.85.07,6.65,2.36,8.39,8.88,6.87.65-.15,1.92.21,2.11.66.43,1,.5,2.51-1.13,2.7-2.72.33-5.54.89-8.19.5-3.84-.56-5.92-3.89-6-8.75-.09-6.4,0-12.81,0-19.22Z"/><path class="cls-1" d="M278.13,48.05c0-4.7-.05-9.41.05-14.11A2.53,2.53,0,0,1,279.41,32c1.16-.44,1.69.35,1.95,1.56.63,2.93.69,2.9,3.12,1.24,3.11-2.11,6.37-3.79,10.31-3.41,1.2.12,2.43.14,2.06,1.95-.28,1.33-.12,2.66-2.4,2.26-4.75-.81-8.21,2-11.51,4.87-.54.47-.58,1.71-.58,2.59-.05,6.09,0,12.19-.05,18.28,0,1.46.68,3.36-2.13,3.3s-2-2-2-3.42c-.08-4.39,0-8.79,0-13.19Z"/><path class="cls-1" d="M130.77,48.3c0,4.71-.05,9.41,0,14.12,0,1.74-.66,2.23-2.34,2.24s-2-.92-2-2.33q0-14.11,0-28.24c0-1.51.35-2.2,2.06-2.22s2.25.66,2.22,2.31c-.07,4.7,0,9.41,0,14.12Z"/><path class="cls-1" d="M132.1,20.68a3.29,3.29,0,1,1-6.58-.1A3.15,3.15,0,0,1,129,17.4,3.09,3.09,0,0,1,132.1,20.68Z"/></g></g></svg>