<svg xmlns="http://www.w3.org/2000/svg" viewBox="0 0 269.69 117.43"><defs><style>.cls-1,.cls-2{fill:#fff;}.cls-2{font-size:18px;font-family:CenturyGothic, Century Gothic;letter-spacing:0.01em;}</style></defs><title>Loko</title><g id="Layer_2" data-name="Layer 2"><g id="Layer_1-2" data-name="Layer 1"><g id="White"><g id="Loko"><path class="cls-1" d="M43.08,0A43.08,43.08,0,1,0,86.16,43.08,43.08,43.08,0,0,0,43.08,0ZM60.69,72.08h-31V12.39h8.16V65H60.69Z"/><path class="cls-1" d="M125.72,18.73a23.5,23.5,0,1,1-23.5,23.5,23.54,23.54,0,0,1,23.5-23.5m0-7a30.5,30.5,0,1,0,30.5,30.5,30.5,30.5,0,0,0-30.5-30.5Z"/><path class="cls-1" d="M239.19,18.73a23.5,23.5,0,1,1-23.5,23.5,23.54,23.54,0,0,1,23.5-23.5m0-7a30.5,30.5,0,1,0,30.5,30.5,30.5,30.5,0,0,0-30.5-30.5Z"/><polygon class="cls-1" points="165.43 13.8 165.43 72.08 173.03 72.08 173.03 47.58 196.4 72.08 205.41 72.08 178.1 43.08 206.54 12.39 196.97 12.39 173.31 38.01 173.31 12.39 165.43 12.39 165.43 13.8"/><text class="cls-2" transform="translate(1.28 113.47)">de Leuvense studentenkoepel</text></g></g></g></g></svg>