<svg xmlns="http://www.w3.org/2000/svg" viewBox="0 0 138.76 138.7"><defs><style>.cls-1{fill:#fff;}</style></defs><title>MasterVending</title><g id="Layer_2" data-name="Layer 2"><g id="Layer_1-2" data-name="Layer 1"><g id="Mastervending"><path class="cls-1" d="M69.38,138.69C31.28,139-.17,107.71,0,69.08a69.39,69.39,0,1,1,138.65,4.59C136.9,107.65,108.45,138.8,69.38,138.69ZM129,69.77a59.79,59.79,0,1,0-59.81,59.71A59.69,59.69,0,0,0,129,69.77Z"/><path class="cls-1" d="M108.66,68.13c0,5.55-.08,11.11,0,16.66a3.78,3.78,0,0,1-2.59,3.51c-3.07,1-6.16,2-9.25,3-1.78.58-2.57,0-2.57-1.94,0-10.74,0-21.49,0-32.23a4.87,4.87,0,0,0-2.89-5c-3-1.47-6-3.09-9-4.71a6.14,6.14,0,0,1-1.23-1.26,5.82,5.82,0,0,1,1.22-.87c3.38-1.14,6.76-2.28,10.16-3.34,2.3-.72,4.18.57,6.08,1.53,2.58,1.29,5.11,2.67,7.65,4a4,4,0,0,1,2.39,3.86C108.62,57,108.66,62.57,108.66,68.13Z"/><path class="cls-1" d="M39.24,72.82c0-5.47,0-10.93,0-16.4a4.14,4.14,0,0,0-2.36-3.9c-3.33-1.76-6.67-3.48-10-5.25-.33-.18-.74-.53-.77-.84s.39-.72.7-.83C30.42,44.38,34,43.15,37.63,42c2.48-.77,4.42.79,6.44,1.79,2.31,1.13,4.55,2.4,6.84,3.56a4.57,4.57,0,0,1,2.8,4.36q0,16.4,0,32.8A3.78,3.78,0,0,1,51,88.32q-4.62,1.55-9.25,3.07-2.53.84-2.53-1.89Q39.24,81.16,39.24,72.82Z"/><path class="cls-1" d="M81.41,68.06V83.49c0,3.4-.38,4-3.61,5.07Q73.7,90,69.6,91.32c-1.82.61-2.55.05-2.56-1.92q0-16.19,0-32.37a4.84,4.84,0,0,0-2.94-4.83C61,50.71,58,49.08,55,47.45c-.44-.23-.73-.74-1.1-1.12A4.84,4.84,0,0,1,55,45.39c3.11-1.1,6.23-2.16,9.35-3.22,2.55-.87,4.75.18,6.92,1.33,2.52,1.34,5,2.77,7.53,4a4.33,4.33,0,0,1,2.6,4.3C81.4,57.23,81.41,62.64,81.41,68.06Z"/></g></g></g></svg>