<svg xmlns="http://www.w3.org/2000/svg" viewBox="0 0 485.74 89.17"><defs><style>.cls-1,.cls-2,.cls-3,.cls-4{fill:#fff;}.cls-1{opacity:0.51;}.cls-2{opacity:0.35;}.cls-4{opacity:0.6;}</style></defs><title>Mediahuis</title><g id="Layer_2" data-name="Layer 2"><g id="Layer_1-2" data-name="Layer 1"><path class="cls-1" d="M.06,22.56c1.41-.93,2.77-1.94,4.22-2.78Q20.59,10.32,36.9.9a6,6,0,0,0,1-.9h.83V44.47l-.78.07a5,5,0,0,0-.62-.52q-13-7.55-26.05-15.08C7.56,26.79,3.8,24.69.06,22.56Z"/><path class="cls-2" d="M38.74,44.47V0h.41c3.56,2.14,7.1,4.32,10.69,6.4,8.94,5.19,17.9,10.33,26.85,15.5a3.48,3.48,0,0,1,.48.38c-.38.27-.73.59-1.14.83L39.13,44.54Z"/><path class="cls-3" d="M485.74,58.09c-.07,0-.16,0-.19.09-2.63,6-7.7,7.95-13.76,8.22a19.25,19.25,0,0,1-12.28-3.31c-3.29-2.31-4.63-5.57-4.47-9.67h3.42c.16,3,1.12,5.52,3.66,7.26a15.3,15.3,0,0,0,9.34,2.59,13,13,0,0,0,6.86-1.86c5-3.23,5.11-9.37,0-12.41a59.07,59.07,0,0,0-7.7-3.3c-2.91-1.19-5.92-2.17-8.74-3.54-7.38-3.58-7.57-13.67-.56-18.17,5.21-3.35,14.1-3.24,19.11.4a11.27,11.27,0,0,1,4.78,10.28h-3.27a7.81,7.81,0,0,1-.23-1.05,8.92,8.92,0,0,0-4.05-6.84c-4.77-3.35-12.5-2.3-15.63,1.12-2.95,3.23-2.84,8.17.84,10.56a47.57,47.57,0,0,0,7.8,3.57c1.32.55,2.75.83,4.1,1.31,4.72,1.69,9,3.91,11,9Z"/><path class="cls-4" d="M38.74,44.47l.39.07c1.15.82,2.24,1.74,3.45,2.45q14.93,8.65,29.9,17.25c1.52.88,3.08,1.66,4.63,2.49a6.74,6.74,0,0,1-1.25,1.2Q57.93,78.35,40,88.75a2.25,2.25,0,0,1-2.62,0q-13.74-8-27.53-16C7,71.15,4.22,69.6,1.46,68A7,7,0,0,1,.11,66.41a14.55,14.55,0,0,0,2.48-.87q17.25-10,34.45-20a4.8,4.8,0,0,0,.92-1Z"/><path class="cls-3" d="M150.1,65.81h-6c-3.43-9.47-6.88-19-10.34-28.57l-.45.06V65.77h-8.73V22.38h11.46c3.57,10.36,7.18,20.8,10.78,31.25l.46,0Q152.75,38,158.21,22.34h11.43v43.4h-8.73V37.42l-.5-.1C157,46.76,153.57,56.21,150.1,65.81Z"/><path class="cls-3" d="M223.86,65.87V22.24h2.91c4.11,0,8.23.09,12.34,0a17.45,17.45,0,0,1,18.2,17.23,91.65,91.65,0,0,1-.23,10.87,16.51,16.51,0,0,1-14.62,15.15c-4.06.47-8.2.3-12.31.39C228.11,65.9,226.06,65.87,223.86,65.87Zm8.83-7c2.67,0,5.12.05,7.58,0a6.23,6.23,0,0,0,2.16-.6c4.06-1.78,5.63-5.27,5.94-9.36a78,78,0,0,0,0-9.67c-.26-5.21-3.52-10.72-10.43-10.16-1.29.11-2.6,0-3.9,0a9.8,9.8,0,0,0-1.37.23Z"/><path class="cls-3" d="M77.11,66.73c-1.55-.83-3.11-1.61-4.63-2.49q-15-8.59-29.9-17.25c-1.21-.71-2.3-1.63-3.45-2.45L76,23.11c.41-.24.76-.56,1.14-.83A10.43,10.43,0,0,1,77.43,24q0,20.37,0,40.75A12,12,0,0,1,77.11,66.73Z"/><path class="cls-3" d="M38,44.54a4.8,4.8,0,0,1-.92,1q-17.2,10-34.45,20a14.55,14.55,0,0,1-2.48.87c0-.48-.1-1-.1-1.43Q0,44.39,0,23.8c0-.41,0-.83.06-1.24,3.74,2.13,7.5,4.23,11.23,6.38q13,7.52,26.05,15.08A5,5,0,0,1,38,44.54Z"/><path class="cls-3" d="M304.76,22.3h9.1c4.81,14.37,9.66,28.81,14.56,43.43H319.2c-1-3-1.95-6.09-2.95-9.21h-14c-.95,3-1.92,6.07-2.93,9.23h-9.22Zm9.31,27.07-4.61-14.66-.35,0c-1.53,4.83-3.05,9.66-4.62,14.62Z"/><path class="cls-3" d="M183.9,22.31h27.57V29H192.61V39.77h15.78v6.77H192.65v12.4h18.91v6.81H183.9Z"/><path class="cls-3" d="M370.66,65.8h-3.59V45.93H342.64V65.76H339V22.37h3.7V42.46H367V22.39h3.66Z"/><path class="cls-3" d="M278.34,65.77H269.8V22.38h8.54Z"/><path class="cls-3" d="M387.33,22.34h3.55c0,.62.1,1.21.1,1.81,0,8.58,0,17.16,0,25.75a25.07,25.07,0,0,0,.4,4.49c1,5.34,5.54,9,11.69,8.89,4.72-.12,8.6-2,10.55-6.51A15.65,15.65,0,0,0,414.81,51c.12-8.86.06-17.72.06-26.57V22.33h3.55c0,.54.11,1.06.11,1.59q0,13.69,0,27.39c0,8.86-5.9,14.83-14.75,15.09-4.18.12-8-.63-11.38-3.33a13.23,13.23,0,0,1-5-10.41C387.23,42.64,387.33,32.62,387.33,22.34Z"/><path class="cls-3" d="M439.45,65.78H436V22.4h3.47Z"/></g></g></svg>