<svg xmlns="http://www.w3.org/2000/svg" viewBox="0 0 152.66 152.59"><defs><style>.cls-1{fill:#fff;}</style></defs><title>Mercedes</title><g id="Layer_2" data-name="Layer 2"><g id="Layer_1-2" data-name="Layer 1"><g id="Mercedes"><path class="cls-1" d="M0,76.5C0,34.42,34.13,0,76,0a76.32,76.32,0,0,1,76.66,76.56c.09,41.94-34.14,76-76.35,76A76.19,76.19,0,0,1,0,76.5Zm138.51,36.91a21.9,21.9,0,0,0-2-1.07c-19.38-7.88-38.75-15.8-58.18-23.56a6.7,6.7,0,0,0-4.51.23q-28.36,11.58-56.66,23.37c-.86.35-1.65.86-2.78,1.45,15.68,23.54,37.16,35.86,65.24,34.68C105.22,147.43,124.64,135.11,138.51,113.41Zm.69-2.22C150.67,92.81,153,63.11,137.85,39,124,16.92,103.71,5.81,77.74,4.24a11.45,11.45,0,0,0-.08,1.63q4.47,31.47,9,63a4.64,4.64,0,0,0,1.52,2.76C105.07,84.77,122,97.88,139.2,111.19ZM75.45,4.21C48.61,5.85,27.82,17.09,14.35,40,.56,63.4,1,87.44,13.25,111.63a8.85,8.85,0,0,0,1.39-.68q24.75-20,49.43-40A6.47,6.47,0,0,0,66,67.17c2-12.48,3.84-25,5.72-37.49C72.93,21.39,74.14,13.09,75.45,4.21Z"/></g></g></g></svg>