<svg xmlns="http://www.w3.org/2000/svg" viewBox="0 0 260.29 100.36"><defs><style>.cls-1{fill:#fff;}</style></defs><title>NMBS</title><g id="Layer_2" data-name="Layer 2"><g id="Layer_1-2" data-name="Layer 1"><path class="cls-1" d="M77.39,100.32c-16.72.29-32.28-2.85-46.95-10C20.63,85.55,12,79.21,6,69.89-3.07,55.71-1.77,39.25,9.2,26.4c8.14-9.54,18.47-15.82,30.14-19.83C66.22-2.67,93-2.27,119.43,8.46c10.56,4.3,19.76,10.66,26.81,19.83,9.84,12.81,10.37,28.83,1.3,42.18-6.61,9.73-15.9,16.12-26.39,21A101.66,101.66,0,0,1,77.39,100.32Zm3.43-5.52c7.47.08,18.68-1.92,29.34-6.58,10.3-4.5,19.33-10.7,25.21-20.58,6.88-11.54,6.89-23.22-.07-34.76-5.45-9-13.51-15.15-22.94-19.45-19.31-8.78-39.28-9.9-59.61-4.2C40.38,12.71,29.48,18.78,21.28,29a33.24,33.24,0,0,0-1.89,40A48.56,48.56,0,0,0,35.13,83.74C47.89,91.49,61.86,94.73,80.82,94.8Z"/><path class="cls-1" d="M212.29,48c-1.13,2.59-2.32,5.15-3.37,7.77a2.61,2.61,0,0,1-2.76,1.82,2.46,2.46,0,0,1-2.68-1.88,56.28,56.28,0,0,0-3.4-7.67c-.15,2.28-.33,4.56-.43,6.84-.08,1.85-.12,3.7-.06,5.55s-1,2.22-2.6,2.2-2.19-.61-2.12-2.19c.31-6.81.57-13.63.82-20.45,0-1.18.51-1.93,1.73-2,1.65,0,3.52-.56,4.39,1.59,1.22,3,2.43,6.07,3.66,9.1.28.69.61,1.36,1.18,2.61,1.69-4.09,3.11-7.62,4.63-11.11a3.88,3.88,0,0,1,1.67-2c2.59-1.08,4.26,0,4.41,2.79.34,6.32.6,12.64.94,19,.1,1.72-.31,2.68-2.28,2.69s-2.91-.47-2.85-2.63c.11-4,0-7.94,0-11.91Z"/><path class="cls-1" d="M236.52,49.45c2.53,1.29,4,3.07,4.07,5.78.11,3.61-1.69,6.41-5.25,7a57.1,57.1,0,0,1-10,.32c-.53,0-1.47-1.15-1.48-1.78-.11-7-.06-13.93-.08-20.9A1.63,1.63,0,0,1,225.64,38a49.27,49.27,0,0,1,8.07.29c5.36.94,7,6.18,3.52,10.34ZM229,55.2c.05,1.55-.5,3.42,2.21,3.28,2.54-.12,4.1-1.26,4.11-3.29s-1.53-3.13-4.11-3.26S229,53.66,229,55.2Zm0-10.54c.26,1.16-.72,3.12,1.84,3.11,2,0,3.29-1.16,3.24-3.07a3.07,3.07,0,0,0-3.24-2.94C228.59,41.68,229.05,43.27,229,44.66Z"/><path class="cls-1" d="M184.68,52.46c0-4.22,0-7.83,0-11.44,0-1.79.27-3.05,2.48-3.07s2.28,1.31,2.27,3c0,6.32,0,12.65-.06,19,0,.89-.47,2.31-1.09,2.55a2.93,2.93,0,0,1-3.86-1.26c-2.08-3.48-4.23-6.91-6.36-10.36a6.17,6.17,0,0,0-1.91-2.07v3.84c0,2.49-.06,5,0,7.46.07,1.74-.39,2.65-2.35,2.63s-2.2-.94-2.19-2.55c.05-6.47,0-12.94.07-19.4,0-.88.51-2.24,1.15-2.51a2.81,2.81,0,0,1,3.71,1.15q3.31,5.48,6.65,10.94C183.56,50.89,184,51.44,184.68,52.46Z"/><path class="cls-1" d="M250.4,62.91c-1.49-.25-3.18-.46-4.83-.84-2.1-.47-1.26-2-1-3.24s1-1.54,2.32-1.28a15.77,15.77,0,0,0,5.42.32,3.36,3.36,0,0,0,2.19-2.35,3.76,3.76,0,0,0-1.65-2.79,35.76,35.76,0,0,0-4.68-2c-2.66-1.24-3.61-3.47-3.42-6.29a6.22,6.22,0,0,1,4-5.77c3.12-1.27,6.28-.92,9.41,0,1.65.48,1.15,1.67.88,2.78s-.84,1.64-2.15,1.32a12.51,12.51,0,0,0-4.41-.41,3,3,0,0,0-2.19,1.8,3.27,3.27,0,0,0,1.4,2.46,18.94,18.94,0,0,0,3.71,1.59c4,1.67,5.13,3.52,4.8,8-.23,3.12-2.24,5.34-5.81,6.23A35.36,35.36,0,0,1,250.4,62.91Z"/><path class="cls-1" d="M100.74,48.32c1.54.74,2.68,1.27,3.81,1.84,9.71,5,11.73,16.29,4.35,24.4-4.17,4.58-9.49,7.21-15.38,8.71-17.13,4.36-33.29,2.07-48.34-7.36a5.63,5.63,0,0,1-2-1.58,3.17,3.17,0,0,1-.12-2.24c.15-.55.78-1,1.19-1.47,2.3-2.75,2.3-2.75,5.78-1.8V32.73c-3.65.57-3.65.57-5.9-2.09-1.78-2.1-1.73-2.81.47-4.44A49.22,49.22,0,0,1,60.4,18.32c11.91-3.42,23.79-3.41,35.32,1.39a29.16,29.16,0,0,1,8.64,5.72c6.53,6.23,5.59,16.12-1.71,21.5ZM68.08,63.77c0,2.91,0,5.82,0,8.74,0,2.66,1.11,3.76,3.77,3.82,3,.06,6.11.07,9.16,0A11.61,11.61,0,0,0,92.69,64.89a12.33,12.33,0,0,0-11.37-12c-3.68-.16-7.38,0-11.08-.06-1.53,0-2.19.65-2.17,2.18C68.11,57.94,68.08,60.86,68.08,63.77Zm0-28.34c0,2.27.06,4.54,0,6.81-.07,1.8.61,2.62,2.47,2.56,2.48-.08,5,0,7.45-.06A10.26,10.26,0,0,0,88,34.57a10.13,10.13,0,0,0-9.81-9.86c-2.13-.11-4.26-.1-6.39,0-2.53.09-3.61,1.2-3.67,3.71C68,30.74,68.08,33.08,68.08,35.43Z"/></g></g></svg>