<svg xmlns="http://www.w3.org/2000/svg" viewBox="0 0 114.19 114.23"><defs><style>.cls-1{fill:#fff;}</style></defs><title>Quivr</title><g id="Layer_2" data-name="Layer 2"><g id="Layer_1-2" data-name="Layer 1"><path class="cls-1" d="M0,60.55V53.69c.11-.5.23-1,.33-1.5.66-3.59.92-7.31,2-10.76C9.93,18,25.94,4.3,50.34.54L53.69,0h6.86c1.16.18,2.32.4,3.49.55a57,57,0,0,1,48.7,69.15c-7.42,32.45-40.68,52-72.33,41.83C17.45,104.17,4.25,87.91.55,64,.37,62.87.18,61.71,0,60.55ZM77.14,82.78a2.62,2.62,0,0,1-.33.52,11.11,11.11,0,0,1-1,.79A32.13,32.13,0,0,1,51.05,89.3,32.52,32.52,0,0,1,24.46,59.21a31.72,31.72,0,0,1,11-26.6A32.76,32.76,0,0,1,86.94,43.42,4,4,0,0,0,90.07,46a3.73,3.73,0,0,0,3.78-1.48,3.89,3.89,0,0,0,.34-4.18A39.59,39.59,0,0,0,83.76,26.42a39.7,39.7,0,0,0-30.68-9.74,39.21,39.21,0,0,0-26.2,13.37A39.44,39.44,0,0,0,16.69,60.86a39.08,39.08,0,0,0,13.47,26.6A39.67,39.67,0,0,0,62,97.48a39.21,39.21,0,0,0,19.85-8.07c.85-.65,1.44-.7,2.16.12a23.37,23.37,0,0,0,2.24,2.21,4,4,0,0,0,5.54-.17,3.89,3.89,0,0,0,0-5.43,27.36,27.36,0,0,0-2.22-2.22c-.77-.68-.68-1.21-.13-2.06,1.67-2.59,3.32-5.2,4.75-7.93a3.78,3.78,0,0,0-1.75-5.43c-2.05-1-4.17-.06-5.35,2.14-.93,1.76-1.91,3.51-3,5.19s-1.07,1.54-2.38.24l-21.4-21.4A13.84,13.84,0,0,0,59,53.5a3.85,3.85,0,0,0-4.53-.21,3.66,3.66,0,0,0-1.63,4.21,7,7,0,0,0,1.69,2.58Q65.16,70.77,75.83,81.4C76.26,81.83,76.67,82.29,77.14,82.78Z"/></g></g></svg>