<svg xmlns="http://www.w3.org/2000/svg" viewBox="0 0 263.19 142.67"><defs><style>.cls-1,.cls-2{fill:#fff;}.cls-2{font-size:22px;font-family:ArialMT, Arial;}.cls-3{letter-spacing:-0.01em;}.cls-4{letter-spacing:0.02em;}.cls-5{letter-spacing:0.05em;}.cls-6{letter-spacing:0.03em;}.cls-7{letter-spacing:0.01em;}.cls-8{letter-spacing:0.02em;}.cls-9{letter-spacing:0.05em;}.cls-10{letter-spacing:0em;}.cls-11{letter-spacing:-0.01em;}.cls-12{letter-spacing:0em;}</style></defs><title>SSB</title><g id="Layer_2" data-name="Layer 2"><g id="Layer_1-2" data-name="Layer 1"><g id="White"><g id="sbb"><path class="cls-1" d="M85.58,17.57A45,45,0,0,0,14.11,72.4Z"/><path class="cls-1" d="M72.6,27.53,0,83.22A45.75,45.75,0,0,0,72.6,27.53Z"/><path class="cls-1" d="M139.05,44.7l9.39-7.32s-3.66-8.45-17.22-8.45-22.57,7.32-22.57,14.83,5.25,12.58,16.14,15,13.33,3,13.33,5.55-3.48,4.4-6.9,4.4-8.31-2.26-11.12-6L109.58,71s5.64,9,20.28,9,22-8.82,22-16.52-5.26-12.58-19-15.2c-9.76-1.69-10-2.82-10-4.51s2.82-3.94,7.32-3.94A10.41,10.41,0,0,1,139.05,44.7Z"/><path class="cls-1" d="M186.36,28.93c-9.39-1.23-14.46,1.88-16.33,3V7.35H156.51V80H170V76.8S173.78,80,181.66,80s24-6.76,25.34-20.09S204.75,33.44,186.36,28.93Zm-4.48,38.65A13.13,13.13,0,1,1,195,54.46,13.12,13.12,0,0,1,181.88,67.58Z"/><path class="cls-1" d="M242.29,28.93c-9.38-1.23-14.45,1.88-16.33,3V7.35H212.45V80H226V76.8S229.72,80,237.6,80s24-6.76,25.34-20.09S260.69,33.44,242.29,28.93Zm-4.47,38.65a13.13,13.13,0,1,1,13.12-13.12A13.12,13.12,0,0,1,237.82,67.58Z"/><text class="cls-2" transform="translate(108.65 115.53)"><tspan class="cls-3">a</tspan><tspan class="cls-4" x="12.1" y="0">c</tspan><tspan class="cls-5" x="23.5" y="0">c</tspan><tspan class="cls-6" x="35.51" y="0">o</tspan><tspan x="48.41" y="0">u</tspan><tspan class="cls-7" x="60.64" y="0">n</tspan><tspan class="cls-8" x="73.19" y="0">t</tspan><tspan class="cls-7" x="79.74" y="0">an</tspan><tspan class="cls-9" x="104.82" y="0">ts</tspan><tspan class="cls-10"><tspan x="0" y="20">advis</tspan><tspan class="cls-11" x="51.8" y="20">e</tspan><tspan class="cls-12" x="63.81" y="20">u</tspan><tspan x="75.96" y="20">rs</tspan></tspan></text></g></g></g></g></svg>