<svg xmlns="http://www.w3.org/2000/svg" viewBox="0 0 284.39 283.93"><defs><style>.cls-1,.cls-2{fill:#fff;}.cls-1{opacity:0.5;}</style></defs><title>SWF</title><g id="Layer_2" data-name="Layer 2"><g id="Layer_1-2" data-name="Layer 1"><path class="cls-1" d="M136.78,232.91c-.34.28-.64.75-1,.83-7,1.37-11.72,5.79-15.51,11.49a22.2,22.2,0,0,0-3.52,11.1c-.65,10.83,5.1,21.11,15.42,25.44,1.53.64,3,1.44,4.49,2.16h-7.22a33.71,33.71,0,0,0-4.15-1.07,149.14,149.14,0,0,1-29-6.7,139.26,139.26,0,0,1-37.63-19.65A141.57,141.57,0,0,1,17,208.68a139.71,139.71,0,0,1-14.9-44.05c-.49-3-1.38-6-2.09-9V130.08c.4-1.75.93-3.48,1.18-5.26a149.81,149.81,0,0,1,8.91-35A143,143,0,0,1,62,24.71C71.87,17.89,82.4,12.12,93.87,8.39a207.75,207.75,0,0,1,23.46-6.33c6.39-1.27,13-1.35,19.54-2a29.19,29.19,0,0,0-13.7,8.17,20.78,20.78,0,0,0-5.48,10.48,35.23,35.23,0,0,0-1,7c.18,9.3,4.53,16.35,12.28,21.28,1.88,1.19,4.15,1.78,6.23,2.68a14.52,14.52,0,0,1,1.62,1c-4.28.69-8.56,1.35-12.82,2.08A81.89,81.89,0,0,0,97.9,62.43,90.88,90.88,0,0,0,69.74,87a88.22,88.22,0,0,0-16.23,34.85A90.7,90.7,0,0,0,86.4,213.44a89,89,0,0,0,44.38,18.5C132.79,232.19,134.78,232.58,136.78,232.91Z"/><path class="cls-2" d="M282.84,121.51a140.65,140.65,0,0,0-35.41-75.08A142.88,142.88,0,0,0,222.86,25,140,140,0,0,0,181.8,5.33,126.27,126.27,0,0,0,149.61,0c-4.25-.11-8.5,0-12.74.06a29.19,29.19,0,0,0-13.7,8.17,20.78,20.78,0,0,0-5.48,10.48,35.23,35.23,0,0,0-1,7c.18,9.3,4.53,16.35,12.28,21.28,1.88,1.19,4.15,1.78,6.23,2.68a14.52,14.52,0,0,1,1.62,1c12.27,0,24.35,1.2,36,5.45a91.05,91.05,0,0,1,40.51,29,90.63,90.63,0,0,1-13,126.43,88.11,88.11,0,0,1-50.2,20.67c-4.42.37-8.87.4-13.31.59-.34.28-.64.75-1,.83-7,1.37-11.72,5.79-15.51,11.49a22.2,22.2,0,0,0-3.52,11.1c-.65,10.83,5.1,21.11,15.42,25.44,1.53.64,3,1.44,4.49,2.16H155a15.91,15.91,0,0,1,3-.95,139.32,139.32,0,0,0,67.48-26.11,141,141,0,0,0,46.74-57.75,148.47,148.47,0,0,0,11-38.79c.32-2.13.79-4.25,1.2-6.37V130.08C283.87,127.22,283.27,124.38,282.84,121.51ZM142.16,272.92c-7.47-.08-14.72-6.7-14.53-15,.15-6.72,6.42-14.46,15.09-14.21,7,.2,14.6,6.77,14,14.65C157.31,266.16,149.61,273,142.16,272.92Z"/><path class="cls-2" d="M159.8,165.29h-8.46q-4.09-15.34-8.18-30.63l-.76,0c-2.69,10.19-5.39,20.38-8.16,30.83-2.45,0-4.76.13-7-.08a2.66,2.66,0,0,1-1.73-1.66c-2.25-7.42-4.41-14.87-6.55-22.33-1.64-5.68-3.23-11.37-4.83-17.06-.25-.88-.47-1.77-.78-2.94h8.76q4.08,16.08,8.15,32.18l.48.12c.45-1.3,1-2.58,1.32-3.9,2.38-8.83,4.78-17.66,7-26.51.44-1.71,1.23-2.29,2.87-2.17,1.28.09,2.56,0,4,0,3,11,5.87,21.75,8.78,32.51l.64.06,8.18-32.38h8.79Z"/><path class="cls-2" d="M75.33,159.11l4-5.59c2.42,1.48,4.54,2.94,6.81,4.12a15.54,15.54,0,0,0,10.55,1.23,9.74,9.74,0,0,0,4.3-2.27,4.24,4.24,0,0,0-.72-6.86,36.61,36.61,0,0,0-6.41-2.51c-3.32-1.11-6.76-1.91-10-3.21-4.5-1.8-7.13-5.18-7.19-10.2s2.27-8.64,6.59-11c7.34-4.08,19.42-2.53,25.44,3.26a4.83,4.83,0,0,1,.56.92l-4.2,5.51c-3.43-2.81-6.95-4.65-11-4.81a19.86,19.86,0,0,0-6,.7,4.45,4.45,0,0,0-3.22,4.4,3.7,3.7,0,0,0,2.77,3.75c3.22,1.13,6.52,2,9.77,3a49.45,49.45,0,0,1,5.48,1.94c4.78,2.14,7.55,5.79,7.58,11.13,0,5.55-2.61,9.52-7.6,11.86-7.94,3.73-20.17,1.77-26.56-4.2A12.06,12.06,0,0,1,75.33,159.11Z"/><path class="cls-2" d="M207.58,128.12h-4.7c-5,0-10,.06-15,0-1.86,0-2.72.53-2.64,2.51.11,2.84,0,5.69,0,8.84h21.83v6.83H185.36v19h-7.74V121.35h30Z"/></g></g></svg>