<svg xmlns="http://www.w3.org/2000/svg" viewBox="0 0 97.89 96.32"><defs><style>.cls-1{fill:#fff;}</style></defs><title>Telenet</title><g id="Layer_2" data-name="Layer 2"><g id="Layer_1-2" data-name="Layer 1"><path class="cls-1" d="M49.8,96.32c-4.62-.11-8.37-.11-12.11-.31-4.82-.26-9.63-.63-14.44-1-2.37-.19-4.73-.47-7.07-.87A17.1,17.1,0,0,1,2.29,80.83,51.17,51.17,0,0,1,1.5,75C1.21,72.35,1,69.66.75,67c-.17-2.14-.3-4.29-.41-6.43C.05,55-.09,49.37.06,43.78Q.26,37,.71,30.23c.27-3.92.71-7.84,1.08-11.76A18.41,18.41,0,0,1,4.51,9.92,16.84,16.84,0,0,1,16.58,2c3.59-.53,7.21-.89,10.83-1.18C31.32.54,35.24.29,39.16.18c5-.15,10-.22,15-.15C58.55.09,63,.27,67.39.61c4.69.35,9.37.77,14,1.45A16.71,16.71,0,0,1,94,10.92a18.55,18.55,0,0,1,2.12,7.35c.32,3.16.68,6.32.94,9.49.23,2.75.37,5.51.53,8.27.36,5.92.4,11.85.25,17.78-.11,4.18-.35,8.36-.64,12.53-.25,3.59-.65,7.17-1,10.75A19.73,19.73,0,0,1,93.58,86a17.1,17.1,0,0,1-12.86,8.3c-3.55.46-7.12.8-10.69,1.15-1.92.19-3.86.32-5.79.4C59.14,96,54,96.18,49.8,96.32Zm-.88-13.26v-.18c2,0,4,0,6.06,0s4.07-.12,6.1-.29c3.73-.31,7.46-.62,11.17-1.08A12.35,12.35,0,0,0,82.82,71.43c.44-2.64.69-5.32.89-8,.28-3.83.53-7.67.64-11.5A139.68,139.68,0,0,0,84,36.63c-.31-3.78-.64-7.56-1.08-11.32A12.57,12.57,0,0,0,72.36,14.7a162.23,162.23,0,0,0-18.68-1.42,165.21,165.21,0,0,0-17,.35c-3.7.3-7.4.63-11.08,1.08A12.48,12.48,0,0,0,15,25.5c-.35,2.91-.69,5.83-.87,8.76-.27,4.16-.51,8.32-.55,12.49s.12,8.27.36,12.39c.23,3.85.61,7.69,1.06,11.52A12.37,12.37,0,0,0,25.74,81.51q5.88.73,11.81,1.13C41.33,82.89,45.13,82.93,48.92,83.06Z"/><path class="cls-1" d="M70.4,56.73c.39,1.75-.6,2.74-1.9,3.64a39.4,39.4,0,0,1-13.21,6.11,27.77,27.77,0,0,1-16.47-1.17,40.48,40.48,0,0,1-10-5.41,2.68,2.68,0,0,1-1.29-2.54c.05-.61,0-1.23,0-1.84,0-.81.35-1,1-.59a41.54,41.54,0,0,0,8.45,3.84A37.49,37.49,0,0,0,51,60.65a39.94,39.94,0,0,0,18-5.5l.41-.25c.64-.36,1-.18,1,.57v1.26Z"/><path class="cls-1" d="M36.45,29.54a9.58,9.58,0,0,1,5.48,1.81A5.4,5.4,0,0,1,44,36.09a5.63,5.63,0,0,1-4.24,5.41,9.24,9.24,0,0,1-9-1.23,5.22,5.22,0,0,1-2-4.7,5.58,5.58,0,0,1,4-5.3A11.32,11.32,0,0,1,36.45,29.54Z"/><path class="cls-1" d="M68.83,36.32c0,.74,0,1.49,0,2.23s-.21.91-.92.79a45.43,45.43,0,0,0-8.39-.66c-1.76,0-3.51.24-5.26.38-.55,0-.71-.06-.72-.62,0-1.6,0-3.2,0-4.8a.78.78,0,0,1,.75-.85c1.11-.19,2.23-.4,3.35-.51A30.23,30.23,0,0,1,68,33.13c.74.19.87.35.87,1.11Z"/></g></g></svg>