<svg xmlns="http://www.w3.org/2000/svg" viewBox="0 0 141.73 104.39"><defs><style>.cls-1{fill:#fff;}</style></defs><title>Tobania</title><g id="Layer_2" data-name="Layer 2"><g id="Layer_1-2" data-name="Layer 1"><g id="White"><g id="Tobania"><path class="cls-1" d="M6.72,56.73a.8.8,0,0,0,.88.91h.92a.82.82,0,0,0,.91-.91V40.5h5.8a.81.81,0,0,0,.89-.91V39a.8.8,0,0,0-.89-.91H.91A.8.8,0,0,0,0,39v.56a.81.81,0,0,0,.91.91H6.72V56.73Zm13.74-9a10,10,0,1,0,20,0,9.74,9.74,0,0,0-10-10,9.76,9.76,0,0,0-10,10Zm2.82,0a7.2,7.2,0,1,1,14.4,0c0,4.37-3,7.71-7.19,7.71s-7.21-3.34-7.21-7.71Zm25.1,9a.81.81,0,0,0,.91.91h6.06c3.45,0,6.3-1.88,6.3-5.56a4.71,4.71,0,0,0-3.21-4.73V47.3a4.55,4.55,0,0,0,2.41-4.2c0-3.15-2.35-5-5.64-5H49.29a.81.81,0,0,0-.91.91v17.7Zm2.71-10.4V40.5h4.06a2.7,2.7,0,0,1,2.94,2.87,2.77,2.77,0,0,1-2.88,3Zm0,8.93V48.6h4.4a3.17,3.17,0,0,1,3.37,3.34,3.12,3.12,0,0,1-3.37,3.32ZM67.6,56.59c-.23.63.05,1,.74,1h.94a1,1,0,0,0,1-.75L72,52h7.36l1.74,4.86a1,1,0,0,0,1,.75h.94a.72.72,0,0,0,.75-1L77.38,38.87a1,1,0,0,0-1-.75H75a1,1,0,0,0-1,.75L67.6,56.59Zm5.11-6.83,2.18-6.19c.34-1,.78-2.77.78-2.77h0s.42,1.77.75,2.77l2.16,6.19Zm18.19,7a.81.81,0,0,0,.91.91h.89a.81.81,0,0,0,.91-.91V45c0-1.11-.17-2.85-.17-2.85h.06s.91,1.77,1.6,2.85L103.45,57a1.11,1.11,0,0,0,1.08.61h1a.81.81,0,0,0,.91-.91V39a.8.8,0,0,0-.91-.91h-.88a.82.82,0,0,0-.92.91V50.81c0,1.08.17,2.82.17,2.82h0s-.92-1.77-1.61-2.82L94,38.73a1.15,1.15,0,0,0-1.11-.61h-1a.81.81,0,0,0-.91.91v17.7Zm24.72,0a.81.81,0,0,0,.91.91h.88a.81.81,0,0,0,.92-.91V39a.81.81,0,0,0-.92-.91h-.88a.8.8,0,0,0-.91.91v17.7Zm9.84-.14c-.22.63.05,1,.75,1h.94a1,1,0,0,0,1-.75L129.86,52h7.35L139,56.89a1,1,0,0,0,1,.75h.94c.67,0,1-.42.75-1l-6.41-17.72a1,1,0,0,0-1-.75H132.9a1,1,0,0,0-1,.75l-6.41,17.72Zm5.11-6.83,2.19-6.19c.33-1,.77-2.77.77-2.77h.06s.41,1.77.74,2.77l2.16,6.19Z"/><polygon class="cls-1" points="116.07 19.97 116.07 0 25.9 0 25.9 19.97 116.07 19.97 116.07 19.97"/><path class="cls-1" d="M25.9,90.54c15.22,10,28.89,13.85,45.08,13.85s29.87-3.87,45.09-13.85v-20C100.86,80.48,87.18,84.42,71,84.42S41,80.55,25.9,70.58v20Z"/></g></g></g></g></svg>