<svg xmlns="http://www.w3.org/2000/svg" viewBox="0 0 349.12 110.51"><defs><style>.cls-1{fill:#fff;}</style></defs><title>Total</title><g id="Layer_2" data-name="Layer 2"><g id="Layer_1-2" data-name="Layer 1"><g id="Total"><path class="cls-1" d="M56.54,39.73c-12.69,1.8-23.83,5.15-34,11.06-4,2.3-7.4,5.57-10.84,8.66-2.06,1.84-1.84,4,.23,6A83.57,83.57,0,0,0,47.11,86.66c1.59.5,3.62-.44,5.62-1.74-12.5-5.12-23.85-11.39-33.35-21,.93.29,1.85.61,2.79.89,10.52,3.05,21,6.13,31.58,9.11,3.55,1,6.15-.07,7.34-3.88,3.08-9.83,6.23-19.64,9.37-29.45.83-2.59-.22-4.05-2.68-4.93-15.24-5.45-30.75-8.77-47-6.09-6.17,1-11.87,3.21-16.34,8.17C4.79,29.61,16.87,17.39,29,12.66A66.91,66.91,0,0,1,64.9,9.23C59.27,3.31,52.23,4.05,44.78,4.11a38.82,38.82,0,0,1,4.43-2.2A34.63,34.63,0,0,1,91.49,19.27a26.27,26.27,0,0,0,4.38,5.94C106.22,36.41,110.1,49.44,107,64.4c-2.77,13.49-9.77,19.79-23.7,22-2.29.37-4.4,1.82-6.59,2.78l.6,2.09,13.29-1.56.5.62c-2.21,1.74-4.26,3.77-6.67,5.16C71.51,102.94,57.24,107.16,42.82,110c-11.06,2.15-21-2.14-27.75-12a6.33,6.33,0,0,1-1-2.89c5.2,4.19,10.71,6.87,17.66,5-1.73-.84-3.47-1.64-5.17-2.52C12.72,90.39,2.73,80.24.38,64c-1.92-13.27,3.38-22,16.1-26C28.34,34.31,46.21,34.89,56.54,39.73Zm37.51,13c-1.38,5-2.59,9.41-4,14.41C100.72,63,101.4,60.53,94.05,52.73Z"/><path class="cls-1" d="M195.34,74.21c-4.28-.91-8.45-1.36-12.3-2.71-6.83-2.4-10.29-7.79-10.29-14.89s3.49-12.54,10.13-15.08a34.29,34.29,0,0,1,25.32,0c6.63,2.57,10.07,8,10.05,15.13s-3.51,12.47-10.37,14.83C203.86,72.91,199.53,73.34,195.34,74.21Zm1.11-9a22.81,22.81,0,0,0,2.69-.24c5.17-.94,7.66-3.6,7.73-8.15.07-4.91-2.28-7.74-7.81-8.43a28.22,28.22,0,0,0-9.3.45c-3.59.77-5.45,3.48-5.61,7.26C183.9,62,188,65.22,196.45,65.18Z"/><path class="cls-1" d="M257.77,71.44c2.32-4.69,4.15-9.73,7.09-14,3.76-5.43,8.3-10.34,12.73-15.29,2.66-3,6.34-3.7,9.4-1,9,7.85,16.34,17,20.07,28.62a11,11,0,0,1,.23,2.33c-6.79,2.34-8.86,1.56-12.21-3.67a5.71,5.71,0,0,0-4-2c-4.48-.26-9,0-13.47-.14-3.68-.11-6.94-.13-8,4.65-.22,1-2.76,1.94-4.35,2.17-2,.31-4.19-.13-6.3-.25Zm25.16-21.79-6.76,8.28h13.74C287.33,54.88,285.46,52.66,282.93,49.65Z"/><path class="cls-1" d="M159.77,72.76c-9.44-.32-13.06-4-13.11-12.55,0-5.16-.28-10.34.08-15.48.32-4.56-1.56-6-5.79-5.54-2.14.22-4.32,0-6.48,0-3.18.14-4.47-1.26-4.45-4.46s1.19-4.51,4.43-4.48q19.73.12,39.46,0c3.23,0,4.38,1.23,4.38,4.45s-1.07,4.62-4.32,4.51-6.33.11-9.49,0-4.43,1.19-4.38,4.41c.14,8.16.06,16.32,0,24.48C160.12,69.56,159.91,71,159.77,72.76Z"/><path class="cls-1" d="M240.83,40.2c5.16,0,10.33.06,15.49,0,2.65,0,3.95.87,4,3.74s-1,4.14-4,4.35C247,48.92,247,49,247,58.69c0,3,.08,6,0,9-.17,4-2.16,5.67-6.55,5.63s-6.25-1.68-6.36-5.83c-.12-4.83-.16-9.67,0-14.49.11-3.35-1-5-4.58-4.77-1.49.12-3,0-4.5,0-2.76.07-4.33-.79-4.31-4s1.25-4.14,4.19-4.07C230.17,40.28,235.5,40.2,240.83,40.2Z"/><path class="cls-1" d="M337.54,73.41c-4.47-.32-9-.49-13.41-1-7.86-.87-12-5.28-12.28-13.07-.17-4.82.07-9.65-.08-14.46-.14-4.17,2.49-5.14,5.76-5.15s6.49.49,6.46,5c0,4.32-.05,8.64.05,13,.12,5.16,1.32,6.48,6.52,6.71,4.65.22,9.31.16,14,.12,3,0,4.6.9,4.6,4.29s-1.57,4.4-4.58,4.31c-2.33-.07-4.65,0-7,0Z"/></g></g></g></svg>