<svg xmlns="http://www.w3.org/2000/svg" viewBox="0 0 225 225"><defs><style>.cls-1{fill:#fff;}</style></defs><title>Volvo</title><g id="Layer_2" data-name="Layer 2"><g id="Layer_1-2" data-name="Layer 1"><g id="Volvo"><path class="cls-1" d="M102,0h21c10.75,2.74,21.78,4.71,32.17,8.46,7.86,2.83,15.05,7.69,22.25,12.13,3.23,2,4.06-.44,5.59-1.83,2.42-2.2,0-3.13-1.33-4.06-3.31-2.24-6.81-4.19-10-6.55-1.13-.83-1.67-2.48-2.48-3.76,1.34-.6,2.68-1.69,4-1.7,15-.12,30,0,45-.14,3.15,0,4.4.81,4.37,4.18-.15,15.17,0,30.33-.13,45.49,0,1.25-.94,2.5-1.44,3.75-1.32-.71-3.08-1.1-3.88-2.19-2.28-3.07-4-6.55-6.28-9.59-.91-1.21-3.41-2.75-4.1-2.33-2.31,1.39-4.72,3.26-1.67,6.57,1.88,2,3.17,4.66,4.63,7.08,8.67,14.32,13,30.06,15.32,46.49v21c-.29,1.62-.6,3.23-.86,4.85q-9.85,60.68-65.24,87.33c-11.35,5.46-23.56,7.92-35.9,9.82H102a26.88,26.88,0,0,0-2.88-.71c-36.51-4.83-64.22-23.17-83.53-54.38C6.69,155.52,2.33,139.59,0,123V102c.28-1.45.6-2.89.83-4.35C7.34,56.34,29.51,26.55,67.59,9.47,78.32,4.66,90.49,3.07,102,0Zm10.2,197c37.26.13,69.54-23.49,81-59,1.36-4.23.5-4.92-3.65-4.91q-77,.16-154,0c-4.73,0-4.94,1.23-3.65,5.28A84.35,84.35,0,0,0,112.2,197Zm0-105.09c25.83,0,51.65-.07,77.48.07,3.69,0,5-.41,3.7-4.55a84.72,84.72,0,0,0-161.6-.14C30.56,91.09,31.13,92,35.2,92,60.86,91.78,86.52,91.87,112.17,91.87Zm66.26,9.53a67.12,67.12,0,0,0-7.54,1.53c-5.08,1.67-7.82,5.33-7.72,9.85s3.15,8.35,8,9.78c5.44,1.61,10.89,1.57,16.05-1a9.52,9.52,0,0,0,5.62-8.79,8.87,8.87,0,0,0-5.46-8.79C184.36,102.67,181.05,102.12,178.43,101.4Zm-93.73.12a58,58,0,0,0-7.06,1.32c-5.11,1.61-7.74,5.09-7.75,9.77s2.92,9.06,8.17,9.91a40.21,40.21,0,0,0,13.71-.23c4.64-.87,7.45-4.52,7.6-9.35s-2.54-8.22-7.07-9.79A59.64,59.64,0,0,0,84.7,101.52ZM42,102.15c-2.83,0-5.66-.09-8.48.06-.75,0-1.45.82-2.18,1.26.54.49,1.12,1.44,1.59,1.38,3.32-.39,4.15,2.11,5.33,4.28,2,3.65,3.93,7.32,6,10.91,2.56,4.4,12,4.16,14.49-.33,2.09-3.78,3.93-7.71,6.24-11.35.92-1.44,2.79-2.28,4.23-3.4l2-1.55c-.77-.42-1.53-1.17-2.32-1.21-3.15-.14-6.32-.13-9.48,0-.75,0-1.48.77-2.22,1.18.49.51,1,1.47,1.49,1.48,3.34.1,1.85,1.88,1.13,3.19-1.75,3.18-3.62,6.29-5.44,9.43-2-3.18-4-6.36-6-9.54-1.13-1.8-1.26-3,1.5-3.06.63,0,1.25-1,1.88-1.6a7,7,0,0,0-2.34-1.08C47,102.05,44.48,102.14,42,102.15Zm105.63,16.23c-2.12-3.84-3.76-6.91-5.5-9.93-1.2-2.08-1.88-3.7,1.67-3.59.51,0,1.06-.92,1.59-1.41-.6-.43-1.19-1.22-1.79-1.24-5.5-.09-11-.11-16.49,0-.69,0-1.35.91-2,1.4.58.44,1.17.87,1.74,1.32,1.56,1.24,3.5,2.22,4.56,3.79a68,68,0,0,1,5.57,10c1.41,3.14,3.38,4,6.83,4.29,5.27.35,8.4-1.33,10.09-6.32a31.67,31.67,0,0,1,3.28-6.15c1.56-2.52,2.09-6.29,6.46-5.77.33,0,.76-.83,1.15-1.28-.53-.45-1-1.27-1.58-1.29-3.66-.11-7.33-.09-11,0a1.76,1.76,0,0,0-1.34,1.07c-.1.43.47,1.45.8,1.47,4.61.34,1.86,2.77,1.12,4.29C151.31,112,149.58,114.86,147.61,118.38ZM115,122.87a97.44,97.44,0,0,1,10,.07c4,.41,5.53-1.09,4.82-4.94-.27-1.51-.74-3-1.11-4.48a36.8,36.8,0,0,0-2.65,3.08,7.87,7.87,0,0,1-9.23,3.1c-1.06-.32-1.33-3.83-1.66-5.92a41.31,41.31,0,0,1,0-5c-.07-2.18.09-4,3.06-3.93.52,0,1.08-.9,1.62-1.39-.72-.44-1.42-1.25-2.15-1.27-4.82-.11-9.64-.1-14.46,0-.66,0-1.3.63-2,1,.59.59,1.21,1.15,1.76,1.78,1,1.15,2.54,2.24,2.76,3.53a24.6,24.6,0,0,1,0,7.94c-.22,1.33-1.66,2.48-2.64,3.64a16.23,16.23,0,0,1-1.92,1.66c.78.38,1.56,1.06,2.35,1.08C107.37,122.92,111.2,122.86,115,122.87Z"/><path class="cls-1" d="M183.23,112.61c0,4.78-2.07,7.72-5.27,7.71s-5.24-3-5.19-7.73,2.16-7.7,5.31-7.73S183.28,107.93,183.23,112.61Z"/><path class="cls-1" d="M79.23,112.82c0-4.49,2.11-7.81,5.19-8s5.82,3.11,5.51,7.53c-.24,3.4-.48,7.35-5.18,7.88C81.52,120.64,79.29,117.47,79.23,112.82Z"/></g></g></g></svg>