<svg xmlns="http://www.w3.org/2000/svg" viewBox="0 0 84.86 84.73"><defs><style>.cls-1{fill:#fff;}</style></defs><title>VRT</title><g id="Layer_2" data-name="Layer 2"><g id="Layer_1-2" data-name="Layer 1"><path class="cls-1" d="M84.84,23.33c0,6.26.06,12.52,0,18.78-.2,15.94-7.17,28.14-20.61,36.6a40.13,40.13,0,0,1-19,5.92A42.06,42.06,0,0,1,2.17,55.33C-2.52,40.13.41,26.27,10.86,14.27,19.29,4.59,30.22,0,43,0q20.1,0,40.19,0c1.62,0,1.62,0,1.62,1.67q0,10.83,0,21.65ZM61.61,37.45c0-.82.33-1.13,1.15-1.11,1.79,0,3.58,0,5.38,0,.88,0,1.34-.32,1.3-1.26s0-1.84,0-2.75S69.06,31,68.11,31c-1.75,0-3.51-.05-5.26,0-1,.05-1.31-.33-1.26-1.3,0-1.23-.06-2.47,0-3.71,0-.76-.29-1.09-1-1.08-1.24,0-2.47,0-3.71,0-1,0-1.39.42-1.38,1.44,0,3.23,0,6.46,0,9.69h0c0,2.83-.05,5.66,0,8.49a14.42,14.42,0,0,0,.46,3.53A8.16,8.16,0,0,0,65,54a8.38,8.38,0,0,0,7.32-7.92c0-1-.32-1.41-1.29-1.4s-2,0-3,0a1.28,1.28,0,0,0-1.46,1.21,2.44,2.44,0,0,1-4.77-.06ZM24.18,44.52c-1.26-4-2.56-7.88-3.76-11.85-.38-1.22-1-1.81-2.28-1.68-1.07.11-2.15,0-3.23,0s-1.36.42-1,1.46c2.31,6.74,4.65,13.48,7,20.22a1.32,1.32,0,0,0,1.4,1c1.56,0,3.12.07,4.66,0a1.8,1.8,0,0,0,1.27-1q3.56-10.09,7-20.21c.37-1.08.09-1.47-1.08-1.5s-2.39.05-3.59,0a1.48,1.48,0,0,0-1.69,1.29c-.52,1.8-1.1,3.58-1.66,5.36ZM44.08,33.6c-.06-.49-.11-.72-.12-1-.09-1.51-.19-1.62-1.69-1.63-1,0-1.91,0-2.86,0s-1.49.37-1.45,1.41c0,.87,0,1.75,0,2.63,0,5.66,0,11.32,0,17,0,1.5.17,1.67,1.62,1.7,1,0,1.92,0,2.87,0,1.56,0,1.67-.14,1.69-1.74,0-2.55,0-5.1,0-7.66,0-4,2.39-7.16,5.84-7.9.92-.2,2.24-.15,2.65-.73s.17-1.91.2-2.91v-.12c0-1.63-.22-1.89-1.84-1.86A9.65,9.65,0,0,0,44.08,33.6Z"/></g></g></svg>