<svg xmlns="http://www.w3.org/2000/svg" viewBox="0 0 406.56 71.27"><defs><style>.cls-1{fill:#fff;}</style></defs><title>Wordline</title><g id="Layer_2" data-name="Layer 2"><g id="Layer_1-2" data-name="Layer 1"><path class="cls-1" d="M114.38,71.27a6.61,6.61,0,0,0-1.63-.57c-10.9-.64-20.71-9.56-23.09-20.78-2.33-11,3.79-24.5,16-29.27a7.06,7.06,0,0,1,1.35-.19c-.27.84-.49,1.45-.65,2.09-.71,2.88-1.36,5.78-2.12,8.66A39.73,39.73,0,0,1,102.53,37c-2.75,6.29-2.69,12.29,1.48,18a13.87,13.87,0,0,0,17.32,4.17l1.18-.61c-1.68-1.17-2.92-2.05-4.17-2.91-7.27-5-10.62-12.25-11-20.75a24,24,0,0,1,4.08-14.27A3.65,3.65,0,0,1,115,18.73c8,.39,14.87,3.11,20.13,9.39,6.52,7.78,7.9,16.64,4.47,25.88-3.67,9.86-11.06,15.62-21.77,16.69a11.35,11.35,0,0,0-2,.58Zm14.84-22.11c1.78-4.22.71-8.2-1.23-12a14.48,14.48,0,0,0-6.19-6.3c-1.8-.95-2.75-.46-3,1.49C118.06,38.88,121.61,47.28,129.22,49.16Z"/><path class="cls-1" d="M368.28,66.08c-3.85,1.4-7.35,3.07-11,3.88a32.31,32.31,0,0,1-10,.49,8.73,8.73,0,0,1-8-6.74,30.75,30.75,0,0,1-1.17-7c-.16-6.47-.05-12.94-.06-19.41a21.27,21.27,0,0,0-.08-2.88c-.37-2.7-1.76-3.89-4.54-4.09a30.14,30.14,0,0,0-12.24,2.05c-.62,4-.19,8-.27,12-.08,4.19,0,8.39,0,12.58V69.58a43.71,43.71,0,0,1-5.11.2c-3-.23-6.19.88-9.09-1.07-.56-.37-1.84.15-2.7.48a28.86,28.86,0,0,1-10.23,1.53,8.76,8.76,0,0,1-7.31-3.1,10,10,0,0,0-1.15-1.05c-3.67,1.26-7.08,2.82-10.66,3.55a31.34,31.34,0,0,1-9.62.32c-5.23-.6-8.48-4.72-9-10.58C256,58.91,256,58,256,57q0-24.81,0-49.62c0-1.06.09-2.12.15-3.51a39.57,39.57,0,0,1,10-.07A3.32,3.32,0,0,1,269,7.06c.13,1.31.13,2.63.13,4,0,12.7,0,25.41,0,38.11a71.09,71.09,0,0,0,.57,7.85c.28,2.56,1.57,4,4.17,4.05a59.1,59.1,0,0,0,7.43-.67c.94-3.69.4-7,.5-10.34s0-6.47,0-9.71V20.19c3.47,0,6.55-.12,9.62,0,2,.1,3,1.23,3.35,3.17a19.32,19.32,0,0,1,.16,3.23c0,8.63,0,17.26.05,25.89a23,23,0,0,0,.52,4.6c.6,2.75,1.9,3.92,4.72,3.94a56.45,56.45,0,0,0,6.44-.69c.81-3.58.32-6.92.41-10.22s0-6.48,0-9.71v-20a34.27,34.27,0,0,1,10.55-.05c1.31.21,2.36,2,3.81,3.41,1.16-.6,2.8-1.48,4.48-2.28a26.84,26.84,0,0,1,12.86-2.71c8.74.47,12.36,4.12,12.83,12.72.32,5.85.07,11.74.08,17.61a42.76,42.76,0,0,1,0,4.67c-.61,5.66,1.55,8.39,9.06,6.88.58-.12,1.15-.29,2-.49a8.85,8.85,0,0,0-.43-1.29c-3.76-7.06-3.64-14.59-2-22C363.08,24.73,374.48,17.11,388,19c4.68.65,9.05,2.11,12.54,5.61,3.66,3.68,5.23,8.3,5.83,13.22.4,3.27.08,6.63.08,10.35H374.71a10.28,10.28,0,0,0,9.41,12.2,22.61,22.61,0,0,0,14.52-3,6.9,6.9,0,0,1,5.92-.89c.83,2.78.42,5.65.27,8.46,0,.67-1.08,1.59-1.86,1.88a55.48,55.48,0,0,1-9.5,3.1C384.56,71.54,375.8,71.35,368.28,66.08ZM392.84,39.3c-.52-2.44-.79-4.44-1.38-6.35a6.3,6.3,0,0,0-4.91-4.71c-5.7-1.11-9.56,1.16-11.28,6.71-.42,1.34-.67,2.74-1,4.35Z"/><path class="cls-1" d="M30.73,50.38C34.9,33.71,39.08,17,43.34.07c3.7,0,7.15,0,10.59,0,1.51,0,2,1,2.26,2.3C58.32,11.2,60.5,20,62.67,28.83Q65.3,39.45,68,50.05c0,.19.32.32.77.75,1.06-4.4,2.09-8.61,3.1-12.82q2.73-11.32,5.45-22.65c.08-.35.22-.69.28-1,.64-3.78-.14-4.75-4-4.89s-3.74-.19-3.78-4C69.76.05,69.76,0,75,0c6,0,12,0,18,0,3,0,3.27.31,3.36,3.26,0,.84,0,1.68,0,2.52,0,2.63,0,2.64-2.71,3.67-1.86.73-2.61,2.17-3.08,4.05-2.77,11-5.64,22-8.49,33C80,54.41,78,62.27,76,70.06c-2.63.77-12.91.93-17.6.23C54.93,56.58,51.45,42.71,48,28.83c-4.26,13.69-7.34,27.7-11.14,41.65H19.61c-.38-1.31-.79-2.54-1.1-3.78q-4.67-19-9.31-37.95C8,24,6.86,19.23,5.73,14.47c-.6-2.49-1-5-4.38-5.3C.86,9.13.14,8,.09,7.31-.07,5.08,0,2.82,0,.69,3-.08,24-.25,28.45.39c.83,2.73.36,5.55.25,8.73l-7.88.53L30,50.55Z"/><path class="cls-1" d="M248,69.71c-3.18,0-6.14.15-9.09,0-2-.13-2.38-.82-4-4.44a10.39,10.39,0,0,0-1.3,1c-5.36,5.48-17.23,6.06-23.14,2.06a4.62,4.62,0,0,0-5.26-.39,30.55,30.55,0,0,1-15.7,2.86c-4.56-.29-7.76-2.33-9.28-6.63a17.45,17.45,0,0,1-1.13-5.59c-.08-17.6,0-35.21,0-52.82a17.11,17.11,0,0,1,.24-1.83,37.59,37.59,0,0,1,10.54.07c.86.14,1.88,1.53,2.16,2.52a21.58,21.58,0,0,1,.71,5.66c.06,13.54,0,27.07,0,40.61,0,.72,0,1.44,0,2.15.08,5.87,4.21,8.12,9.72,5.35-.7-3.37-1.46-6.72-2.06-10.1A33.16,33.16,0,0,1,203,30.82c4-9.23,13.22-13.18,22.74-11.76a26.81,26.81,0,0,1,4.53,1c1.45.49,2.81,1.25,4.67,2.1.45-6.15-.12-12.18.36-18.55,3.32,0,6.4-.12,9.47.05a3.83,3.83,0,0,1,3.43,3.59,21.18,21.18,0,0,1,.1,2.87q0,28,0,56.06C248.26,67.27,248.12,68.31,248,69.71Zm-13-25.16c0-3.35-.05-6.7,0-10,0-1.82-.7-3.15-2.39-3.54-2.53-.58-5.16-1.33-7.7-1.16-4.21.28-7.59,2.46-8.88,6.7-1.67,5.47-1.45,11.08-.41,16.66a11.58,11.58,0,0,0,.9,2.72,7.09,7.09,0,0,0,5.25,4.45,14.18,14.18,0,0,0,11.23-2.52,4.37,4.37,0,0,0,2-3.93C235,50.77,235.06,47.66,235.06,44.55Z"/><path class="cls-1" d="M158.3,69.81c-4,0-7.37,0-10.7,0-.82,0-1.64-.13-2.39-.2-.83-2.77-.93-45.54-.08-49.39,3.22,0,6.53-.1,9.84,0,2.26.09,2.39,2.34,3.32,4.06,1.37-.94,2.59-1.82,3.85-2.64A18.51,18.51,0,0,1,172,18.8c2.4-.05,2.9.54,3,3,.06,2.85,0,5.71,0,8.94a81.42,81.42,0,0,0-8.4.47,82.56,82.56,0,0,0-8.24,2.18Z"/><path class="cls-1" d="M288.14,17.37a7.77,7.77,0,0,1-7.67-7.48,7.77,7.77,0,0,1,7.79-7.73c4.37,0,8.21,3.54,7.91,7.64C295.84,14.36,292.87,17.15,288.14,17.37Z"/></g></g></svg>